G04*
G04 #@! TF.GenerationSoftware,Altium Limited,Altium Designer,23.1.1 (15)*
G04*
G04 Layer_Color=8388736*
%FSLAX44Y44*%
%MOMM*%
G71*
G04*
G04 #@! TF.SameCoordinates,B2619DF1-9EDC-4D65-B863-11D422F83FB1*
G04*
G04*
G04 #@! TF.FilePolarity,Negative*
G04*
G01*
G75*
%ADD18O,2.7032X0.9032*%
%ADD19R,3.7032X6.2032*%
%ADD20C,5.2832*%
%ADD21C,2.1082*%
%ADD22O,1.7272X2.4892*%
%ADD23O,2.4892X1.7272*%
%ADD24R,1.2000X1.2000*%
%ADD25C,1.2000*%
%ADD26C,1.2500*%
%ADD27R,1.2500X1.2500*%
%ADD28R,1.2500X1.2500*%
%ADD29R,1.5240X1.5240*%
%ADD30C,1.5240*%
%ADD31C,1.7032*%
%ADD32R,1.7032X1.7032*%
%ADD33C,1.4532*%
%ADD34R,1.4532X1.4532*%
%ADD35R,1.5240X1.5240*%
%ADD36C,2.2352*%
%ADD37R,2.2352X2.2352*%
%ADD38R,1.7032X1.7032*%
%ADD39C,1.4732*%
%ADD40R,1.4532X1.4532*%
D18*
X1185440Y932180D02*
D03*
Y919480D02*
D03*
Y906780D02*
D03*
Y894080D02*
D03*
Y881380D02*
D03*
Y868680D02*
D03*
Y855980D02*
D03*
Y843280D02*
D03*
X1234440Y932180D02*
D03*
Y919480D02*
D03*
Y906780D02*
D03*
Y894080D02*
D03*
Y881380D02*
D03*
Y868680D02*
D03*
Y855980D02*
D03*
Y843280D02*
D03*
X741680Y853440D02*
D03*
Y866140D02*
D03*
Y878840D02*
D03*
Y891540D02*
D03*
Y904240D02*
D03*
Y916940D02*
D03*
Y929640D02*
D03*
Y942340D02*
D03*
X692680Y853440D02*
D03*
Y866140D02*
D03*
Y878840D02*
D03*
Y891540D02*
D03*
Y904240D02*
D03*
Y916940D02*
D03*
Y929640D02*
D03*
Y942340D02*
D03*
X344540Y868210D02*
D03*
Y880910D02*
D03*
Y893610D02*
D03*
Y906310D02*
D03*
Y919010D02*
D03*
Y931710D02*
D03*
Y944410D02*
D03*
Y957110D02*
D03*
X295540Y868210D02*
D03*
Y880910D02*
D03*
Y893610D02*
D03*
Y906310D02*
D03*
Y919010D02*
D03*
Y931710D02*
D03*
Y944410D02*
D03*
Y957110D02*
D03*
D19*
X1435800Y883920D02*
D03*
X1320800D02*
D03*
X931260Y889000D02*
D03*
X816260D02*
D03*
X535020Y894080D02*
D03*
X420020D02*
D03*
D20*
X1612900Y1244600D02*
D03*
X215900Y311150D02*
D03*
X1136650Y666750D02*
D03*
X768350D02*
D03*
X215900Y1206500D02*
D03*
X1612900Y336550D02*
D03*
D21*
X695960Y533320D02*
D03*
X635960Y513320D02*
D03*
X575960Y533320D02*
D03*
X695960Y655320D02*
D03*
X1395080Y645240D02*
D03*
X1275080Y523240D02*
D03*
X1335080Y503240D02*
D03*
X1395080Y523240D02*
D03*
X1021080Y655320D02*
D03*
X901080Y533320D02*
D03*
X961080Y513320D02*
D03*
X1021080Y533320D02*
D03*
D22*
X1295400Y772160D02*
D03*
X1320800D02*
D03*
X1344930Y773430D02*
D03*
X822960Y772160D02*
D03*
X848360D02*
D03*
X872490Y773430D02*
D03*
X416560Y797560D02*
D03*
X441960D02*
D03*
X466090Y798830D02*
D03*
X381000Y797560D02*
D03*
X330200D02*
D03*
X355600D02*
D03*
X762000Y772160D02*
D03*
X736600D02*
D03*
X787400D02*
D03*
X1254760D02*
D03*
X1203960D02*
D03*
X1229360D02*
D03*
D23*
X1126490Y888746D02*
D03*
Y863346D02*
D03*
X1127760Y839216D02*
D03*
X640080Y894080D02*
D03*
Y868680D02*
D03*
X641350Y844550D02*
D03*
X238760Y914400D02*
D03*
Y889000D02*
D03*
X240030Y864870D02*
D03*
X431800Y1010920D02*
D03*
Y1036320D02*
D03*
Y985520D02*
D03*
X802640Y1005840D02*
D03*
Y1031240D02*
D03*
Y980440D02*
D03*
X762000Y523240D02*
D03*
Y574040D02*
D03*
Y548640D02*
D03*
X1310640Y975360D02*
D03*
Y1026160D02*
D03*
Y1000760D02*
D03*
X1076960Y556260D02*
D03*
Y581660D02*
D03*
Y530860D02*
D03*
X1442720Y558800D02*
D03*
Y584200D02*
D03*
Y533400D02*
D03*
D24*
X1508600Y782320D02*
D03*
X1229520Y1026160D02*
D03*
X1315560Y1076960D02*
D03*
X1422400Y782320D02*
D03*
X1000760Y802640D02*
D03*
X919800Y777240D02*
D03*
X843280Y1076960D02*
D03*
X604360Y797560D02*
D03*
X518320Y787400D02*
D03*
X731680Y1041400D02*
D03*
X497680Y1071880D02*
D03*
X365920Y1046480D02*
D03*
D25*
X1488600Y782320D02*
D03*
X1249520Y1026160D02*
D03*
X1295560Y1076960D02*
D03*
X1442400Y782320D02*
D03*
X980760Y802640D02*
D03*
X939800Y777240D02*
D03*
X823280Y1076960D02*
D03*
X584360Y797560D02*
D03*
X538320Y787400D02*
D03*
X751680Y1041400D02*
D03*
X477680Y1071880D02*
D03*
X385920Y1046480D02*
D03*
D26*
X1076960Y848360D02*
D03*
X1087920Y1209040D02*
D03*
X1309840Y1173480D02*
D03*
X1209840Y1209040D02*
D03*
X1574800Y833920D02*
D03*
X1493520Y466560D02*
D03*
X1558760Y1046480D02*
D03*
Y1010920D02*
D03*
X1488440Y1197280D02*
D03*
X1534160D02*
D03*
X1076960Y471640D02*
D03*
X1227760Y965200D02*
D03*
X746760Y461480D02*
D03*
X314160Y1016000D02*
D03*
X700240Y980440D02*
D03*
X995680Y849160D02*
D03*
X1036320Y949160D02*
D03*
X1503680Y833920D02*
D03*
X1539240Y933920D02*
D03*
D27*
X1076960Y748360D02*
D03*
X1574800Y933920D02*
D03*
X1493520Y366560D02*
D03*
X1488440Y1097280D02*
D03*
X1534160D02*
D03*
X1076960Y371640D02*
D03*
X746760Y361480D02*
D03*
X995680Y949160D02*
D03*
X1036320Y849160D02*
D03*
X1503680Y933920D02*
D03*
X1539240Y833920D02*
D03*
D28*
X1187920Y1209040D02*
D03*
X1209840Y1173480D02*
D03*
X1309840Y1209040D02*
D03*
X1458760Y1046480D02*
D03*
Y1010920D02*
D03*
X1127760Y965200D02*
D03*
X214160Y1016000D02*
D03*
X600240Y980440D02*
D03*
D29*
X522440Y421640D02*
D03*
X521640Y365760D02*
D03*
X1447000Y711200D02*
D03*
X933920Y721360D02*
D03*
X552920Y726440D02*
D03*
D30*
X422440Y421640D02*
D03*
X421640Y365760D02*
D03*
X1442720Y366560D02*
D03*
X1341120D02*
D03*
X1249680D02*
D03*
X1168400Y365760D02*
D03*
X1000760Y366560D02*
D03*
X1347000Y711200D02*
D03*
X924560Y366560D02*
D03*
X685800Y361480D02*
D03*
X833920Y721360D02*
D03*
X452920Y726440D02*
D03*
D31*
X355600Y421640D02*
D03*
Y365760D02*
D03*
X1440180Y1074420D02*
D03*
Y1099820D02*
D03*
Y1125220D02*
D03*
Y1150620D02*
D03*
X1363980Y1074420D02*
D03*
Y1099820D02*
D03*
Y1125220D02*
D03*
X1574800Y769620D02*
D03*
Y706120D02*
D03*
Y652780D02*
D03*
Y472440D02*
D03*
Y533400D02*
D03*
Y589280D02*
D03*
Y421640D02*
D03*
X1351280Y335280D02*
D03*
X355600Y701040D02*
D03*
Y645160D02*
D03*
Y589280D02*
D03*
Y528320D02*
D03*
Y472440D02*
D03*
X279400Y421640D02*
D03*
Y365760D02*
D03*
X208280Y594360D02*
D03*
X279400D02*
D03*
Y538480D02*
D03*
X208280Y421640D02*
D03*
X1584960Y1173480D02*
D03*
X1549400Y330200D02*
D03*
X782320Y335280D02*
D03*
X1264920D02*
D03*
X1172718Y333756D02*
D03*
X1452880Y335280D02*
D03*
X1036320D02*
D03*
X929640D02*
D03*
X716280D02*
D03*
X279400Y701040D02*
D03*
X208280D02*
D03*
X279400Y645160D02*
D03*
Y482600D02*
D03*
X208280Y360680D02*
D03*
Y482600D02*
D03*
Y645160D02*
D03*
Y538480D02*
D03*
X1584960Y1041400D02*
D03*
D32*
X381000Y421640D02*
D03*
Y365760D02*
D03*
X1363980Y1150620D02*
D03*
X1549400Y769620D02*
D03*
Y706120D02*
D03*
Y652780D02*
D03*
Y472440D02*
D03*
Y533400D02*
D03*
Y589280D02*
D03*
Y421640D02*
D03*
X1325880Y335280D02*
D03*
X381000Y701040D02*
D03*
Y645160D02*
D03*
Y589280D02*
D03*
Y528320D02*
D03*
Y472440D02*
D03*
X304800Y421640D02*
D03*
Y365760D02*
D03*
X233680Y594360D02*
D03*
X304800D02*
D03*
Y538480D02*
D03*
X233680Y421640D02*
D03*
X807720Y335280D02*
D03*
X1239520D02*
D03*
X1147318Y333756D02*
D03*
X1427480Y335280D02*
D03*
X1010920D02*
D03*
X904240D02*
D03*
X690880D02*
D03*
X304800Y701040D02*
D03*
X233680D02*
D03*
X304800Y645160D02*
D03*
Y482600D02*
D03*
X233680Y360680D02*
D03*
Y482600D02*
D03*
Y645160D02*
D03*
Y538480D02*
D03*
D33*
X1336040Y1125420D02*
D03*
X1163320Y993340D02*
D03*
X1442720Y1176220D02*
D03*
X1227020Y1082040D02*
D03*
X609600Y1043740D02*
D03*
X1137920Y804980D02*
D03*
X1127760Y993340D02*
D03*
X1511100Y716280D02*
D03*
X1143000Y924560D02*
D03*
X1264920Y812800D02*
D03*
X1003100Y746760D02*
D03*
X650240Y777640D02*
D03*
X248920Y810460D02*
D03*
X241100Y1051560D02*
D03*
Y1082040D02*
D03*
X261420Y949960D02*
D03*
X650240Y1043740D02*
D03*
X751840Y1092200D02*
D03*
X652580Y939800D02*
D03*
X772160Y822960D02*
D03*
X611940Y726440D02*
D03*
X381400Y1102360D02*
D03*
X350920Y838200D02*
D03*
D34*
X1336040Y1150420D02*
D03*
X1163320Y1018340D02*
D03*
X1442720Y1201220D02*
D03*
X609600Y1018740D02*
D03*
X1137920Y779980D02*
D03*
X1127760Y1018340D02*
D03*
X650240Y802640D02*
D03*
X248920Y835460D02*
D03*
X650240Y1018740D02*
D03*
D35*
X1442720Y466560D02*
D03*
X1341120D02*
D03*
X1249680D02*
D03*
X1168400Y465760D02*
D03*
X1000760Y466560D02*
D03*
X924560D02*
D03*
X685800Y461480D02*
D03*
D36*
X833120Y1178560D02*
D03*
X894080Y1173480D02*
D03*
D37*
X782320Y1178560D02*
D03*
X944880Y1173480D02*
D03*
D38*
X1584960Y1148080D02*
D03*
X1549400Y355600D02*
D03*
X1584960Y1066800D02*
D03*
D39*
X722630Y1179576D02*
D03*
X697230D02*
D03*
X1270000Y654050D02*
D03*
X1327150D02*
D03*
X1270000Y615950D02*
D03*
X1327150D02*
D03*
X1270000Y571500D02*
D03*
X1327150D02*
D03*
X635000Y577850D02*
D03*
X577850D02*
D03*
X635000Y622300D02*
D03*
X577850D02*
D03*
X635000Y660400D02*
D03*
X577850D02*
D03*
X952500Y603250D02*
D03*
X901700D02*
D03*
Y641350D02*
D03*
X952500D02*
D03*
X953008Y675132D02*
D03*
X902462Y672846D02*
D03*
X1183640Y812800D02*
D03*
X1207008Y949706D02*
D03*
X1156970Y846836D02*
D03*
X1157224Y868680D02*
D03*
X1209040Y873760D02*
D03*
X665480Y863600D02*
D03*
Y883920D02*
D03*
X1259840Y838200D02*
D03*
X716280Y883920D02*
D03*
X726440Y838200D02*
D03*
X1163320Y939800D02*
D03*
X675640Y955040D02*
D03*
X279400Y970280D02*
D03*
X269240Y883920D02*
D03*
Y904240D02*
D03*
X325120Y848360D02*
D03*
X294640Y838200D02*
D03*
X320040Y904240D02*
D03*
D40*
X1252020Y1082040D02*
D03*
X1486100Y716280D02*
D03*
X1118000Y924560D02*
D03*
X1239920Y812800D02*
D03*
X978100Y746760D02*
D03*
X216100Y1051560D02*
D03*
Y1082040D02*
D03*
X236420Y949960D02*
D03*
X776840Y1092200D02*
D03*
X627580Y939800D02*
D03*
X747160Y822960D02*
D03*
X586940Y726440D02*
D03*
X406400Y1102360D02*
D03*
X375920Y838200D02*
D03*
M02*
