M48
;Layer_Color=9474304
;FILE_FORMAT=4:3
METRIC,LZ
;TYPE=PLATED
T1F00S00C0.700
T2F00S00C0.711
T3F00S00C0.750
T4F00S00C0.900
T5F00S00C1.016
T6F00S00C1.143
T8F00S00C1.524
T9F00S00C2.540
%
T01
X014224Y0078232
X014424
X014886
X015086
X009398Y0077724
X009198
X0053832Y007874
X0051832
X0038592Y0104648
X0036592
X0047768Y0107188
X0049768
X0073168Y010414
X0075168
X0060436Y0079756
X0058436
X0098076Y0080264
X0100076
X0084328Y0107696
X0082328
X0122952Y0102616
X0124952
X0129556Y0107696
X0131556
T02
X0127Y005715
Y0061595
Y0065405
X0132715
Y0061595
Y005715
X009525Y0060325
Y0064135
X0095301Y0067513
X0090246Y0067285
X009017Y0064135
Y0060325
X00635Y006223
Y006604
X0057785
Y006223
Y0057785
X00635
X0032512Y0084836
X0029464Y008382
X0026924Y0088392
Y0090424
X0032004
X002794Y0097028
X0067564Y0095504
X0066548Y0088392
Y008636
X0071628Y0088392
X0072644Y008382
X0115697Y0084684
X0115722Y0086868
X0116332Y009398
X0118364Y008128
X0120904Y0087376
X0120701Y0094971
X0125984Y008382
T03
X0074676Y0036148
X0107696Y0037164
X0149352Y0036656
Y0046656
X014861Y0071628
X015111
X0113792Y0077998
X0107696Y0074836
X010031Y0074676
X009781
X0107696Y0047164
X0074676Y0046148
X0061194Y0072644
X0058694
X0065024Y0077764
X0037592Y008382
X0035092
X0024892Y0083546
Y0081046
X0026142Y0094996
X0023642
X0021416Y01016
X002161Y0105156
X002411
Y0108204
X002161
X0031416Y01016
X003814Y0110236
X004064
X006096Y0104374
Y0101874
X0065024
Y0104374
X0065258Y009398
X0062758
X0060024Y0098044
X0070024
X0075184Y010922
X0077684
X0077216Y0082296
X0074716
X0065024Y0080264
X0099568Y0084916
X0103632
X0107696Y0084836
X0113792Y0080498
X01143Y0092456
X01118
X0112776Y009652
Y0099334
Y0101834
X0116332
Y0099334
X0103632Y0094916
X0099568
X0122776Y009652
X0122702Y0108204
X0125202
X0133604Y0112542
Y0115042
X0130984Y0117348
X0120984
X0144272Y0117622
X0148844Y0109728
X0153416
X0155876Y0104648
Y0101092
X015748Y0093392
X0153924
X0150368
Y0083392
X0153924
X015748
X0145876Y0101092
Y0104648
X0126492Y008128
X0123992
X0120984Y0120904
X0130984
X0144272Y0120122
X0148844Y0119728
X0153416
X0118792Y0120904
X0108792
T04
X0136398Y0107442
Y0109982
Y0112522
Y0115062
X0144018
Y0112522
Y0109982
Y0107442
T05
X0020828Y0036068
X0023368
X002794Y0036576
X003048
X003556
X00381
X0042164
X0052164
X006858Y0036148
X0069088Y0033528
X0071628
X0078232
X0080772
X0090424
X0092964
X0092456Y0036656
X0100076
X0101092Y0033528
X0103632
X0114732Y0033376
X0117272
X011684Y0036576
X0124968Y0036656
X0123952Y0033528
X0126492
X0132588
X0135128
X0134112Y0036656
X0144272
X0145288Y0033528
X0142748
X015494Y003302
Y003556
Y0042164
X015748
Y0047244
X015494
Y005334
X015748
Y0058928
X015494
Y0065278
X015748
Y0070612
X015494
Y0076962
X015748
X01447Y007112
X01347
X0134493Y0077343
X013208Y0077216
X012954
X0125476
X0122936
X0120396
X0124968Y0046656
X0134112
X0144272
Y005334
Y005588
Y005842
X0107696Y0058166
Y0055626
Y0053086
X0100076Y0046656
X0092456
X011684Y0046576
X0093392Y0072136
X0083392
X0082296Y0077216
X0084836
X0087249Y0077343
X007874Y0077216
X00762
X007366
X00762Y0057404
Y0054864
Y0052324
X006858Y0046148
X0052244Y0042164
X0042244
X0045292Y0072644
X0055292
X00381Y0070104
X003556
X003048
X002794
X0023368
X0020828
Y0064516
X0023368
X002794
X003048
X003556
X00381
Y0058928
X003556
X003048Y0059436
X002794
X0023368
X0020828
Y0053848
X0023368
X002794
X003048
Y004826
X002794
X0023368
X0020828
Y0042164
X0023368
X002794
X003048
X003556
X00381
Y0047244
X003556
Y0052832
X00381
Y0079756
X003556
X003302
X0024003Y0086487
X0023876Y00889
Y009144
X004318Y0098552
Y0101092
Y0103632
X0044196Y0079756
X0041656
X0046609Y0079883
X0064135Y0084455
X0064008Y0086868
Y0089408
X0069723Y0117958
X0072263
X0080264Y0103124
Y0100584
Y0098044
X0112649Y0088875
Y0086335
X0112776Y0083922
X0131064Y0097536
Y0100076
Y0102616
X0158496Y010414
Y010668
Y0114808
Y0117348
T06
X0127508Y0052324
X0133508Y0050324
X0139508Y0052324
Y0064524
X0102108Y0065532
Y0053332
X0096108Y0051332
X0090108Y0053332
X0069596
X0063596Y0051332
X0057596Y0053332
X0069596Y0065532
T08
X0083312Y0117856
X0089408Y0117348
T09
X002159Y0031115
X016129Y0033655
X0113665Y0066675
X0076835
X016129Y012446
X002159Y012065
M30
