G04*
G04 #@! TF.GenerationSoftware,Altium Limited,Altium Designer,23.1.1 (15)*
G04*
G04 Layer_Physical_Order=1*
G04 Layer_Color=255*
%FSLAX44Y44*%
%MOMM*%
G71*
G04*
G04 #@! TF.SameCoordinates,B2619DF1-9EDC-4D65-B863-11D422F83FB1*
G04*
G04*
G04 #@! TF.FilePolarity,Positive*
G04*
G01*
G75*
%ADD15C,0.2540*%
%ADD16O,2.5000X0.7000*%
%ADD17R,3.5000X6.0000*%
%ADD24R,1.2000X1.2000*%
%ADD25C,1.2000*%
%ADD26C,1.2500*%
%ADD27R,1.2500X1.2500*%
%ADD28R,1.2500X1.2500*%
%ADD29R,1.5240X1.5240*%
%ADD30C,1.5240*%
%ADD35R,1.5240X1.5240*%
%ADD41C,5.0800*%
%ADD42C,1.9050*%
%ADD43O,1.5240X2.2860*%
%ADD44O,2.2860X1.5240*%
%ADD45C,1.5000*%
%ADD46R,1.5000X1.5000*%
%ADD47C,2.0320*%
%ADD48R,2.0320X2.0320*%
%ADD49R,1.5000X1.5000*%
%ADD50C,1.2700*%
G36*
X1615440Y1272831D02*
X1615099Y1272540D01*
X1614170D01*
Y1244600D01*
Y1216660D01*
X1615099D01*
X1615440Y1216369D01*
Y364781D01*
X1615099Y364490D01*
X1614170D01*
Y336550D01*
Y308610D01*
X1615099D01*
X1615440Y308319D01*
Y284480D01*
X1620520Y279400D01*
X1615440Y274320D01*
X107580D01*
X106685Y275220D01*
X111760Y1280160D01*
X116840Y1285240D01*
X1615440D01*
Y1272831D01*
D02*
G37*
%LPC*%
G36*
X1046480Y1252270D02*
X810310D01*
X809319Y1252073D01*
X809015Y1251870D01*
X808711Y1252073D01*
X807720Y1252270D01*
X248920D01*
X247929Y1252073D01*
X247089Y1251511D01*
X228954Y1233376D01*
X228825Y1233184D01*
X228659Y1233024D01*
X228573Y1232826D01*
X228436Y1232602D01*
X228393Y1232536D01*
X227476Y1232206D01*
X227229Y1232177D01*
X227017Y1232194D01*
X226625Y1232393D01*
X222443Y1233752D01*
X218099Y1234440D01*
X217170D01*
Y1206500D01*
X215900D01*
Y1205230D01*
X187960D01*
Y1204301D01*
X188648Y1199957D01*
X190007Y1195775D01*
X190206Y1195383D01*
X190223Y1195172D01*
X190194Y1194924D01*
X189864Y1194007D01*
X189799Y1193964D01*
X189574Y1193827D01*
X189376Y1193741D01*
X189216Y1193574D01*
X189024Y1193446D01*
X165809Y1170231D01*
X165247Y1169391D01*
X165050Y1168400D01*
Y1102360D01*
X165247Y1101369D01*
X165809Y1100529D01*
X166649Y1099967D01*
X167640Y1099770D01*
X258007D01*
X319913Y1037864D01*
X319572Y1024286D01*
X318465Y1023665D01*
X317553Y1024191D01*
X315317Y1024790D01*
X313003D01*
X310767Y1024191D01*
X308763Y1023034D01*
X307126Y1021397D01*
X305969Y1019393D01*
X305370Y1017157D01*
Y1014843D01*
X305969Y1012607D01*
X307126Y1010603D01*
X308763Y1008966D01*
X310275Y1008093D01*
Y961684D01*
X309005Y961299D01*
X308895Y961465D01*
X306897Y962800D01*
X304540Y963268D01*
X286757D01*
X286390Y963786D01*
X286185Y964493D01*
X286514Y964821D01*
X287684Y966849D01*
X288290Y969110D01*
Y971450D01*
X287684Y973711D01*
X286514Y975739D01*
X284859Y977394D01*
X282831Y978564D01*
X280570Y979170D01*
X278230D01*
X275969Y978564D01*
X273941Y977394D01*
X272286Y975739D01*
X271116Y973711D01*
X270510Y971450D01*
Y969110D01*
X271116Y966849D01*
X272286Y964821D01*
X273941Y963166D01*
X275969Y961996D01*
X276401Y961880D01*
X276653Y961503D01*
X280492Y957664D01*
X280382Y957110D01*
X280850Y954753D01*
X282185Y952755D01*
X284183Y951420D01*
X284249Y951407D01*
Y950113D01*
X284183Y950099D01*
X282185Y948765D01*
X280850Y946767D01*
X280382Y944410D01*
X280850Y942053D01*
X282185Y940055D01*
X284183Y938720D01*
X284249Y938707D01*
Y937413D01*
X284183Y937400D01*
X282185Y936065D01*
X280775Y936098D01*
X269758Y947116D01*
X270210Y948803D01*
Y951117D01*
X269611Y953353D01*
X268454Y955357D01*
X266817Y956994D01*
X264813Y958151D01*
X262577Y958750D01*
X260263D01*
X258027Y958151D01*
X256023Y956994D01*
X254386Y955357D01*
X253229Y953353D01*
X252630Y951117D01*
Y948803D01*
X253229Y946567D01*
X254386Y944563D01*
X256023Y942926D01*
X258027Y941769D01*
X260263Y941170D01*
X262577D01*
X264264Y941622D01*
X276923Y928963D01*
X278183Y928121D01*
X279670Y927825D01*
X281871D01*
X282185Y927355D01*
X284183Y926020D01*
X284249Y926007D01*
Y924713D01*
X284183Y924699D01*
X282185Y923365D01*
X281871Y922895D01*
X253592D01*
X252106Y922599D01*
X250845Y921757D01*
X250678Y921590D01*
X249816Y921646D01*
X247694Y923275D01*
X245222Y924298D01*
X242570Y924648D01*
X234950D01*
X232298Y924298D01*
X229826Y923275D01*
X227704Y921646D01*
X226075Y919524D01*
X225051Y917052D01*
X224702Y914400D01*
X225051Y911748D01*
X226075Y909276D01*
X227704Y907154D01*
X229826Y905525D01*
X232298Y904501D01*
X234950Y904152D01*
X242570D01*
X245222Y904501D01*
X247694Y905525D01*
X249816Y907154D01*
X251445Y909276D01*
X252468Y911748D01*
X252566Y912490D01*
X255201Y915125D01*
X281871D01*
X282185Y914655D01*
X284183Y913320D01*
X284249Y913307D01*
Y912013D01*
X284183Y912000D01*
X282185Y910665D01*
X280850Y908667D01*
X280382Y906310D01*
X280850Y903953D01*
X282185Y901955D01*
X284183Y900620D01*
X284249Y900607D01*
Y899313D01*
X284183Y899299D01*
X282185Y897965D01*
X281871Y897495D01*
X279148D01*
X276906Y899737D01*
X277524Y900809D01*
X278103Y902970D01*
X270510D01*
Y895146D01*
X271941Y893715D01*
X271283Y892576D01*
X270410Y892810D01*
X268070D01*
X265809Y892204D01*
X263781Y891034D01*
X262126Y889379D01*
X260956Y887351D01*
X260350Y885090D01*
Y882750D01*
X260956Y880489D01*
X262126Y878461D01*
X263781Y876806D01*
X265809Y875636D01*
X268070Y875030D01*
X270410D01*
X272671Y875636D01*
X274699Y876806D01*
X275466Y877573D01*
X275843Y877321D01*
X277330Y877025D01*
X281871D01*
X282185Y876555D01*
X284183Y875220D01*
X284249Y875207D01*
Y873913D01*
X284183Y873900D01*
X282185Y872565D01*
X281871Y872095D01*
X251103D01*
X251086Y872116D01*
X248964Y873745D01*
X246492Y874769D01*
X243840Y875118D01*
X236220D01*
X233568Y874769D01*
X231096Y873745D01*
X228974Y872116D01*
X227345Y869994D01*
X226897Y868911D01*
X225627Y869164D01*
Y873167D01*
X231777Y879317D01*
X232298Y879101D01*
X234950Y878752D01*
X242570D01*
X245222Y879101D01*
X247694Y880125D01*
X249816Y881754D01*
X251445Y883876D01*
X252468Y886348D01*
X252818Y889000D01*
X252468Y891652D01*
X251445Y894124D01*
X249816Y896246D01*
X247694Y897875D01*
X245222Y898898D01*
X242570Y899248D01*
X234950D01*
X232298Y898898D01*
X229826Y897875D01*
X227704Y896246D01*
X226075Y894124D01*
X225051Y891652D01*
X224702Y889000D01*
X225051Y886348D01*
X225862Y884390D01*
X218995Y877523D01*
X218153Y876263D01*
X217857Y874776D01*
Y855726D01*
X218153Y854239D01*
X218995Y852979D01*
X227123Y844851D01*
X228383Y844009D01*
X229870Y843713D01*
X240130D01*
Y826670D01*
X257710D01*
Y843713D01*
X283633D01*
X286220Y841126D01*
X285750Y839370D01*
Y837030D01*
X286356Y834769D01*
X287526Y832741D01*
X289181Y831086D01*
X291209Y829916D01*
X293470Y829310D01*
X295810D01*
X298071Y829916D01*
X300099Y831086D01*
X301754Y832741D01*
X302924Y834769D01*
X303530Y837030D01*
Y839370D01*
X302924Y841631D01*
X301754Y843659D01*
X300099Y845314D01*
X298071Y846484D01*
X295810Y847090D01*
X293470D01*
X291714Y846620D01*
X287989Y850345D01*
X286729Y851187D01*
X285242Y851483D01*
X231479D01*
X225627Y857335D01*
Y860576D01*
X226897Y860829D01*
X227345Y859746D01*
X228974Y857624D01*
X231096Y855995D01*
X233568Y854971D01*
X236220Y854622D01*
X243840D01*
X246492Y854971D01*
X248964Y855995D01*
X251086Y857624D01*
X252715Y859746D01*
X253738Y862218D01*
X254016Y864325D01*
X281871D01*
X282185Y863855D01*
X284183Y862520D01*
X286540Y862052D01*
X304540D01*
X306897Y862520D01*
X308895Y863855D01*
X310230Y865853D01*
X310698Y868210D01*
X310304Y870191D01*
X329702Y889588D01*
X331018Y889506D01*
X331185Y889255D01*
X333183Y887920D01*
X333249Y887907D01*
Y886613D01*
X333183Y886600D01*
X331185Y885265D01*
X329850Y883267D01*
X329382Y880910D01*
X329850Y878553D01*
X331185Y876555D01*
X333183Y875220D01*
X333249Y875207D01*
Y873913D01*
X333183Y873900D01*
X331185Y872565D01*
X329850Y870567D01*
X329634Y869480D01*
X344540D01*
Y868210D01*
X345810D01*
Y862052D01*
X353540D01*
X355825Y862506D01*
X356048Y862511D01*
X357095Y861861D01*
Y846147D01*
X355825Y845518D01*
X354313Y846391D01*
X352077Y846990D01*
X349763D01*
X347527Y846391D01*
X345523Y845234D01*
X343886Y843597D01*
X342729Y841593D01*
X342130Y839357D01*
Y837043D01*
X342729Y834807D01*
X343886Y832803D01*
X345523Y831166D01*
X347527Y830009D01*
X349763Y829410D01*
X350950D01*
X351476Y828140D01*
X334091Y810755D01*
X332852Y811268D01*
X330200Y811618D01*
X327548Y811268D01*
X325076Y810245D01*
X322954Y808616D01*
X321325Y806494D01*
X320302Y804022D01*
X319952Y801370D01*
Y793750D01*
X320302Y791098D01*
X321325Y788626D01*
X322954Y786504D01*
X325076Y784875D01*
X327548Y783851D01*
X330200Y783502D01*
X332852Y783851D01*
X335324Y784875D01*
X336500Y785778D01*
X337770Y785152D01*
Y772160D01*
X337967Y771169D01*
X338529Y770329D01*
X363929Y744929D01*
X364769Y744367D01*
X365760Y744170D01*
X467360D01*
X468351Y744367D01*
X469191Y744929D01*
X488997Y764734D01*
X490170Y764248D01*
Y706120D01*
X490367Y705129D01*
X490929Y704289D01*
X491769Y703727D01*
X492760Y703530D01*
X520650D01*
Y574040D01*
X520847Y573049D01*
X521409Y572209D01*
X551823Y541795D01*
X551889Y540311D01*
X531569Y519991D01*
X531007Y519151D01*
X530810Y518160D01*
Y431800D01*
X517774D01*
X456805Y492769D01*
Y544360D01*
Y600240D01*
Y661200D01*
Y716963D01*
X456842Y716972D01*
X459158Y718310D01*
X461050Y720202D01*
X462388Y722518D01*
X463080Y725102D01*
Y727778D01*
X462388Y730362D01*
X461050Y732678D01*
X459158Y734570D01*
X456842Y735908D01*
X454258Y736600D01*
X451582D01*
X448998Y735908D01*
X446682Y734570D01*
X444790Y732678D01*
X443452Y730362D01*
X443442Y730325D01*
X259080D01*
X257593Y730029D01*
X256333Y729187D01*
X238226Y711080D01*
X223640D01*
Y691000D01*
X243720D01*
Y705586D01*
X260689Y722555D01*
X319162D01*
X319648Y721382D01*
X309346Y711080D01*
X294760D01*
Y691000D01*
X314840D01*
Y705586D01*
X331809Y722555D01*
X395362D01*
X395848Y721382D01*
X385546Y711080D01*
X370960D01*
Y691000D01*
X391040D01*
Y705586D01*
X408009Y722555D01*
X443442D01*
X443452Y722518D01*
X444790Y720202D01*
X446682Y718310D01*
X446965Y718146D01*
Y716619D01*
X404791Y674445D01*
X259080D01*
X257593Y674149D01*
X256333Y673307D01*
X238226Y655200D01*
X223640D01*
Y635120D01*
X243720D01*
Y649706D01*
X260689Y666675D01*
X319162D01*
X319648Y665502D01*
X309346Y655200D01*
X294760D01*
Y635120D01*
X314840D01*
Y649706D01*
X331809Y666675D01*
X395362D01*
X395848Y665502D01*
X385546Y655200D01*
X370960D01*
Y635120D01*
X391040D01*
Y649706D01*
X409147Y667813D01*
X409147Y667813D01*
X447862Y706528D01*
X449035Y706042D01*
Y662809D01*
X399711Y613485D01*
X248920D01*
X247433Y613189D01*
X246173Y612347D01*
X238226Y604400D01*
X223640D01*
Y584320D01*
X243720D01*
Y598906D01*
X250529Y605715D01*
X307524D01*
X308203Y604445D01*
X308172Y604400D01*
X294760D01*
Y584320D01*
X314840D01*
Y598906D01*
X321649Y605715D01*
X390282D01*
X390768Y604542D01*
X385546Y599320D01*
X370960D01*
Y579240D01*
X391040D01*
Y593826D01*
X404067Y606853D01*
X447862Y650648D01*
X449035Y650162D01*
Y601849D01*
X409871Y562685D01*
X254000D01*
X252513Y562389D01*
X251253Y561547D01*
X238226Y548520D01*
X223640D01*
Y528440D01*
X243720D01*
Y543026D01*
X255609Y554915D01*
X314082D01*
X314568Y553742D01*
X309346Y548520D01*
X294760D01*
Y528440D01*
X314840D01*
Y543026D01*
X326729Y554915D01*
X400442D01*
X400928Y553742D01*
X385546Y538360D01*
X370960D01*
Y518280D01*
X391040D01*
Y532866D01*
X414227Y556053D01*
X447862Y589688D01*
X449035Y589202D01*
Y545969D01*
X415351Y512285D01*
X259480D01*
X257993Y511989D01*
X256733Y511147D01*
X238226Y492640D01*
X223640D01*
Y472560D01*
X243720D01*
Y487146D01*
X261089Y504515D01*
X319562D01*
X320048Y503342D01*
X309346Y492640D01*
X294760D01*
Y472560D01*
X314840D01*
Y487146D01*
X332209Y504515D01*
X405922D01*
X406408Y503342D01*
X385546Y482480D01*
X370960D01*
Y467894D01*
X353991Y450925D01*
X259080D01*
X257593Y450629D01*
X256333Y449787D01*
X238226Y431680D01*
X223640D01*
Y411600D01*
X243720D01*
Y426186D01*
X260689Y443155D01*
X319162D01*
X319648Y441982D01*
X309346Y431680D01*
X294760D01*
Y411600D01*
X314840D01*
Y426186D01*
X325142Y436488D01*
X326315Y436002D01*
Y395045D01*
X264160D01*
X262673Y394749D01*
X261413Y393907D01*
X238226Y370720D01*
X223640D01*
Y350640D01*
X243720D01*
Y365226D01*
X265769Y387275D01*
X319162D01*
X319648Y386102D01*
X309346Y375800D01*
X294760D01*
Y355720D01*
X314840D01*
Y370306D01*
X332947Y388413D01*
X333789Y389673D01*
X334085Y391160D01*
Y443155D01*
X355600D01*
X357087Y443451D01*
X358347Y444293D01*
X376454Y462400D01*
X391040D01*
Y476986D01*
X419707Y505653D01*
X447862Y533808D01*
X449035Y533322D01*
Y491160D01*
X449331Y489673D01*
X450173Y488413D01*
X512280Y426306D01*
Y411480D01*
X518555D01*
Y375920D01*
X511480D01*
Y355600D01*
X531800D01*
Y375920D01*
X526325D01*
Y411480D01*
X530810D01*
Y401320D01*
X531007Y400329D01*
X531569Y399489D01*
X577289Y353769D01*
X578129Y353207D01*
X579120Y353010D01*
X676193D01*
X676525Y353076D01*
X676863Y353098D01*
X677017Y353174D01*
X677184Y353207D01*
X677466Y353396D01*
X677770Y353545D01*
X678639Y353686D01*
X679172Y353613D01*
X679404Y353507D01*
X679562Y353350D01*
X681878Y352012D01*
X684462Y351320D01*
X687138D01*
X689722Y352012D01*
X692038Y353350D01*
X692196Y353507D01*
X692429Y353613D01*
X692961Y353686D01*
X693830Y353545D01*
X694134Y353396D01*
X694416Y353207D01*
X694583Y353174D01*
X694737Y353098D01*
X695075Y353076D01*
X695407Y353010D01*
X706120D01*
X707111Y353207D01*
X707951Y353769D01*
X728271Y374089D01*
X728833Y374929D01*
X729030Y375920D01*
Y492760D01*
X728833Y493751D01*
X728271Y494591D01*
X701461Y521401D01*
X701627Y522660D01*
X703368Y523666D01*
X705614Y525912D01*
X707203Y528663D01*
X708025Y531732D01*
Y534908D01*
X708778Y535890D01*
X752850D01*
X753100Y535940D01*
X753355D01*
X753591Y536038D01*
X753841Y536087D01*
X754053Y536229D01*
X754289Y536327D01*
X754470Y536507D01*
X754681Y536649D01*
X754823Y536861D01*
X755004Y537041D01*
X755101Y537277D01*
X755243Y537489D01*
X755293Y537739D01*
X755390Y537975D01*
X755543Y538741D01*
X758190Y538392D01*
X765810D01*
X768457Y538741D01*
X768610Y537975D01*
X768707Y537739D01*
X768757Y537489D01*
X768899Y537277D01*
X768996Y537041D01*
X769177Y536861D01*
X769318Y536649D01*
X769530Y536507D01*
X769666Y536372D01*
X769570Y535890D01*
Y533823D01*
X768801Y533308D01*
X768300Y533160D01*
X765810Y533488D01*
X758190D01*
X755538Y533139D01*
X753066Y532115D01*
X750944Y530486D01*
X749315Y528364D01*
X748291Y525892D01*
X747942Y523240D01*
X748291Y520588D01*
X749315Y518116D01*
X750944Y515994D01*
X753066Y514365D01*
X755538Y513341D01*
X758190Y512992D01*
X765810D01*
X768300Y513320D01*
X768801Y513172D01*
X769570Y512657D01*
Y396240D01*
X769767Y395249D01*
X770329Y394409D01*
X800809Y363929D01*
X801649Y363367D01*
X802640Y363170D01*
X914400D01*
X914922Y363274D01*
X915092Y362638D01*
X916430Y360322D01*
X918322Y358430D01*
X920638Y357092D01*
X923222Y356400D01*
X925898D01*
X928482Y357092D01*
X930798Y358430D01*
X932690Y360322D01*
X934028Y362638D01*
X934198Y363274D01*
X934720Y363170D01*
X990600D01*
X991122Y363274D01*
X991292Y362638D01*
X992630Y360322D01*
X994522Y358430D01*
X996838Y357092D01*
X999422Y356400D01*
X1002098D01*
X1004682Y357092D01*
X1006998Y358430D01*
X1008890Y360322D01*
X1010228Y362638D01*
X1010398Y363274D01*
X1010920Y363170D01*
X1056640D01*
X1057631Y363367D01*
X1058471Y363929D01*
X1063551Y369009D01*
X1064113Y369849D01*
X1064310Y370840D01*
Y513080D01*
X1064113Y514071D01*
X1063551Y514911D01*
X1043746Y534717D01*
X1044232Y535890D01*
X1063093D01*
X1063799Y534834D01*
X1063251Y533512D01*
X1062902Y530860D01*
X1063251Y528208D01*
X1064275Y525736D01*
X1065904Y523614D01*
X1068026Y521985D01*
X1070498Y520961D01*
X1073150Y520612D01*
X1080770D01*
X1083422Y520961D01*
X1085894Y521985D01*
X1088016Y523614D01*
X1089645Y525736D01*
X1090668Y528208D01*
X1091018Y530860D01*
X1090668Y533512D01*
X1090121Y534834D01*
X1090826Y535890D01*
X1114768D01*
X1115254Y534717D01*
X1105609Y525071D01*
X1105047Y524231D01*
X1104850Y523240D01*
Y401320D01*
X1105047Y400329D01*
X1105609Y399489D01*
X1125929Y379169D01*
X1126769Y378607D01*
X1127760Y378410D01*
X1457960D01*
X1458951Y378607D01*
X1459791Y379169D01*
X1480111Y399489D01*
X1480673Y400329D01*
X1480870Y401320D01*
Y487680D01*
X1480673Y488671D01*
X1480111Y489511D01*
X1447609Y522013D01*
X1448064Y523354D01*
X1449182Y523502D01*
X1451654Y524525D01*
X1453776Y526154D01*
X1455405Y528276D01*
X1456429Y530748D01*
X1456778Y533400D01*
X1456575Y534935D01*
X1457413Y535890D01*
X1463040D01*
X1464031Y536087D01*
X1464871Y536649D01*
X1480111Y551889D01*
X1480673Y552729D01*
X1480870Y553720D01*
Y650240D01*
X1480673Y651231D01*
X1480111Y652071D01*
X1450146Y682037D01*
X1450632Y683210D01*
X1518920D01*
X1519911Y683407D01*
X1520751Y683969D01*
X1535991Y699209D01*
X1536553Y700049D01*
X1536750Y701040D01*
Y771087D01*
X1538187Y772524D01*
X1539360Y772038D01*
Y770890D01*
X1559440D01*
Y779660D01*
X1560681Y779730D01*
X1569691D01*
X1570032Y778460D01*
X1568635Y777654D01*
X1566766Y775785D01*
X1565444Y773495D01*
X1564760Y770942D01*
Y770890D01*
X1584840D01*
Y770942D01*
X1584156Y773495D01*
X1582834Y775785D01*
X1580965Y777654D01*
X1579568Y778460D01*
X1579908Y779730D01*
X1584960D01*
X1585951Y779927D01*
X1586791Y780489D01*
X1596951Y790649D01*
X1597513Y791489D01*
X1597710Y792480D01*
Y985520D01*
X1597513Y986511D01*
X1596951Y987351D01*
X1596111Y987913D01*
X1595120Y988110D01*
X1376786D01*
X1375795Y987913D01*
X1375491Y987710D01*
X1375188Y987913D01*
X1374196Y988110D01*
X1359129D01*
X1358595Y989374D01*
X1358753Y989609D01*
X1358797Y989832D01*
X1358888Y990040D01*
X1358895Y990323D01*
X1358950Y990600D01*
Y1064461D01*
X1359847Y1064979D01*
X1360220Y1065033D01*
X1362658Y1064380D01*
X1362710D01*
Y1074420D01*
Y1084460D01*
X1362658D01*
X1360105Y1083776D01*
X1357815Y1082454D01*
X1355946Y1080585D01*
X1354624Y1078295D01*
X1353940Y1075742D01*
Y1074678D01*
X1352670Y1074153D01*
X1287071Y1139751D01*
X1286231Y1140313D01*
X1285240Y1140510D01*
X1074470D01*
Y1224280D01*
X1074273Y1225271D01*
X1073711Y1226111D01*
X1048311Y1251511D01*
X1047471Y1252073D01*
X1046480Y1252270D01*
D02*
G37*
G36*
X1611630Y1272540D02*
X1610701D01*
X1606357Y1271852D01*
X1602175Y1270493D01*
X1598256Y1268496D01*
X1594698Y1265911D01*
X1591589Y1262802D01*
X1589004Y1259244D01*
X1587007Y1255325D01*
X1585648Y1251143D01*
X1584960Y1246799D01*
Y1245870D01*
X1611630D01*
Y1272540D01*
D02*
G37*
G36*
Y1243330D02*
X1584960D01*
Y1242401D01*
X1585648Y1238057D01*
X1587007Y1233875D01*
X1589004Y1229956D01*
X1591589Y1226398D01*
X1594698Y1223289D01*
X1598256Y1220704D01*
X1602175Y1218707D01*
X1606357Y1217348D01*
X1610701Y1216660D01*
X1611630D01*
Y1243330D01*
D02*
G37*
G36*
X1318630Y1217830D02*
X1311110D01*
Y1210310D01*
X1318630D01*
Y1217830D01*
D02*
G37*
G36*
X1308570D02*
X1301050D01*
Y1210310D01*
X1308570D01*
Y1217830D01*
D02*
G37*
G36*
X214630Y1234440D02*
X213701D01*
X209357Y1233752D01*
X205175Y1232393D01*
X201256Y1230396D01*
X197698Y1227811D01*
X194589Y1224702D01*
X192004Y1221144D01*
X190007Y1217225D01*
X188648Y1213043D01*
X187960Y1208699D01*
Y1207770D01*
X214630D01*
Y1234440D01*
D02*
G37*
G36*
X1451510Y1210010D02*
X1443990D01*
Y1202490D01*
X1451510D01*
Y1210010D01*
D02*
G37*
G36*
X1441450D02*
X1433930D01*
Y1202490D01*
X1441450D01*
Y1210010D01*
D02*
G37*
G36*
X1318630Y1207770D02*
X1311110D01*
Y1200250D01*
X1318630D01*
Y1207770D01*
D02*
G37*
G36*
X1308570D02*
X1301050D01*
Y1200250D01*
X1308570D01*
Y1207770D01*
D02*
G37*
G36*
X1210997Y1217830D02*
X1208683D01*
X1206447Y1217231D01*
X1204443Y1216074D01*
X1202806Y1214437D01*
X1201649Y1212433D01*
X1201050Y1210197D01*
Y1207883D01*
X1201649Y1205647D01*
X1202806Y1203643D01*
X1204443Y1202006D01*
X1206447Y1200849D01*
X1208683Y1200250D01*
X1210997D01*
X1213233Y1200849D01*
X1215237Y1202006D01*
X1216874Y1203643D01*
X1218031Y1205647D01*
X1218630Y1207883D01*
Y1210197D01*
X1218031Y1212433D01*
X1216874Y1214437D01*
X1215237Y1216074D01*
X1213233Y1217231D01*
X1210997Y1217830D01*
D02*
G37*
G36*
X1196710D02*
X1179130D01*
Y1200250D01*
X1196710D01*
Y1217830D01*
D02*
G37*
G36*
X1089077D02*
X1086763D01*
X1084527Y1217231D01*
X1082523Y1216074D01*
X1080886Y1214437D01*
X1079729Y1212433D01*
X1079130Y1210197D01*
Y1207883D01*
X1079729Y1205647D01*
X1080886Y1203643D01*
X1082523Y1202006D01*
X1084527Y1200849D01*
X1086763Y1200250D01*
X1089077D01*
X1091313Y1200849D01*
X1093317Y1202006D01*
X1094954Y1203643D01*
X1096111Y1205647D01*
X1096710Y1207883D01*
Y1210197D01*
X1096111Y1212433D01*
X1094954Y1214437D01*
X1093317Y1216074D01*
X1091313Y1217231D01*
X1089077Y1217830D01*
D02*
G37*
G36*
X1451510Y1199950D02*
X1443990D01*
Y1192430D01*
X1451510D01*
Y1199950D01*
D02*
G37*
G36*
X1441450D02*
X1433930D01*
Y1192430D01*
X1441450D01*
Y1199950D01*
D02*
G37*
G36*
X1535317Y1206070D02*
X1533003D01*
X1530767Y1205471D01*
X1528763Y1204314D01*
X1527126Y1202677D01*
X1525969Y1200673D01*
X1525370Y1198437D01*
Y1196123D01*
X1525969Y1193887D01*
X1527126Y1191883D01*
X1528763Y1190246D01*
X1530767Y1189089D01*
X1533003Y1188490D01*
X1535317D01*
X1537553Y1189089D01*
X1539557Y1190246D01*
X1541194Y1191883D01*
X1542351Y1193887D01*
X1542950Y1196123D01*
Y1198437D01*
X1542351Y1200673D01*
X1541194Y1202677D01*
X1539557Y1204314D01*
X1537553Y1205471D01*
X1535317Y1206070D01*
D02*
G37*
G36*
X1489597D02*
X1487283D01*
X1485047Y1205471D01*
X1483043Y1204314D01*
X1481406Y1202677D01*
X1480249Y1200673D01*
X1479650Y1198437D01*
Y1196123D01*
X1480249Y1193887D01*
X1481406Y1191883D01*
X1483043Y1190246D01*
X1485047Y1189089D01*
X1487283Y1188490D01*
X1489597D01*
X1491833Y1189089D01*
X1493837Y1190246D01*
X1495474Y1191883D01*
X1496631Y1193887D01*
X1497230Y1196123D01*
Y1198437D01*
X1496631Y1200673D01*
X1495474Y1202677D01*
X1493837Y1204314D01*
X1491833Y1205471D01*
X1489597Y1206070D01*
D02*
G37*
G36*
X1443877Y1185010D02*
X1441563D01*
X1439327Y1184411D01*
X1437323Y1183254D01*
X1435686Y1181617D01*
X1434529Y1179613D01*
X1433930Y1177377D01*
Y1175063D01*
X1434529Y1172827D01*
X1435686Y1170823D01*
X1437323Y1169186D01*
X1439327Y1168029D01*
X1441563Y1167430D01*
X1443877D01*
X1446113Y1168029D01*
X1448117Y1169186D01*
X1449754Y1170823D01*
X1450911Y1172827D01*
X1451510Y1175063D01*
Y1177377D01*
X1450911Y1179613D01*
X1449754Y1181617D01*
X1448117Y1183254D01*
X1446113Y1184411D01*
X1443877Y1185010D01*
D02*
G37*
G36*
X1310997Y1182270D02*
X1308683D01*
X1306447Y1181671D01*
X1304443Y1180514D01*
X1302806Y1178877D01*
X1301649Y1176873D01*
X1301050Y1174637D01*
Y1172323D01*
X1301649Y1170087D01*
X1302806Y1168083D01*
X1304443Y1166446D01*
X1306447Y1165289D01*
X1308683Y1164690D01*
X1310997D01*
X1313233Y1165289D01*
X1315237Y1166446D01*
X1316874Y1168083D01*
X1318031Y1170087D01*
X1318630Y1172323D01*
Y1174637D01*
X1318031Y1176873D01*
X1316874Y1178877D01*
X1315237Y1180514D01*
X1313233Y1181671D01*
X1310997Y1182270D01*
D02*
G37*
G36*
X1218630D02*
X1201050D01*
Y1164690D01*
X1218630D01*
Y1182270D01*
D02*
G37*
G36*
X1586282Y1183520D02*
X1583638D01*
X1581085Y1182836D01*
X1578795Y1181514D01*
X1576926Y1179645D01*
X1575604Y1177355D01*
X1574920Y1174802D01*
Y1172158D01*
X1575604Y1169605D01*
X1576926Y1167315D01*
X1578795Y1165446D01*
X1581085Y1164124D01*
X1583638Y1163440D01*
X1586282D01*
X1588835Y1164124D01*
X1591125Y1165446D01*
X1592994Y1167315D01*
X1594316Y1169605D01*
X1595000Y1172158D01*
Y1174802D01*
X1594316Y1177355D01*
X1592994Y1179645D01*
X1591125Y1181514D01*
X1588835Y1182836D01*
X1586282Y1183520D01*
D02*
G37*
G36*
X1344830Y1159210D02*
X1337310D01*
Y1151690D01*
X1344830D01*
Y1159210D01*
D02*
G37*
G36*
X1334770D02*
X1327250D01*
Y1151690D01*
X1334770D01*
Y1159210D01*
D02*
G37*
G36*
X1344830Y1149150D02*
X1337310D01*
Y1141630D01*
X1344830D01*
Y1149150D01*
D02*
G37*
G36*
X1334770D02*
X1327250D01*
Y1141630D01*
X1334770D01*
Y1149150D01*
D02*
G37*
G36*
X1441502Y1160660D02*
X1438858D01*
X1436305Y1159976D01*
X1434015Y1158654D01*
X1432146Y1156785D01*
X1430824Y1154495D01*
X1430140Y1151942D01*
Y1149298D01*
X1430824Y1146745D01*
X1432146Y1144455D01*
X1434015Y1142586D01*
X1436305Y1141264D01*
X1438858Y1140580D01*
X1441502D01*
X1444055Y1141264D01*
X1446345Y1142586D01*
X1448214Y1144455D01*
X1449536Y1146745D01*
X1450220Y1149298D01*
Y1151942D01*
X1449536Y1154495D01*
X1448214Y1156785D01*
X1446345Y1158654D01*
X1444055Y1159976D01*
X1441502Y1160660D01*
D02*
G37*
G36*
X1374020D02*
X1353940D01*
Y1140580D01*
X1374020D01*
Y1160660D01*
D02*
G37*
G36*
X1595000Y1158120D02*
X1574920D01*
Y1138040D01*
X1595000D01*
Y1158120D01*
D02*
G37*
G36*
X1337197Y1134210D02*
X1334883D01*
X1332647Y1133611D01*
X1330643Y1132454D01*
X1329006Y1130817D01*
X1327849Y1128813D01*
X1327250Y1126577D01*
Y1124263D01*
X1327849Y1122027D01*
X1329006Y1120023D01*
X1330643Y1118386D01*
X1332647Y1117229D01*
X1334883Y1116630D01*
X1337197D01*
X1339433Y1117229D01*
X1341437Y1118386D01*
X1343074Y1120023D01*
X1344231Y1122027D01*
X1344830Y1124263D01*
Y1126577D01*
X1344231Y1128813D01*
X1343074Y1130817D01*
X1341437Y1132454D01*
X1339433Y1133611D01*
X1337197Y1134210D01*
D02*
G37*
G36*
X1441502Y1135260D02*
X1438858D01*
X1436305Y1134576D01*
X1434015Y1133254D01*
X1432146Y1131385D01*
X1430824Y1129095D01*
X1430140Y1126542D01*
Y1123898D01*
X1430824Y1121345D01*
X1432146Y1119055D01*
X1434015Y1117186D01*
X1436305Y1115864D01*
X1438858Y1115180D01*
X1441502D01*
X1444055Y1115864D01*
X1446345Y1117186D01*
X1448214Y1119055D01*
X1449536Y1121345D01*
X1450220Y1123898D01*
Y1126542D01*
X1449536Y1129095D01*
X1448214Y1131385D01*
X1446345Y1133254D01*
X1444055Y1134576D01*
X1441502Y1135260D01*
D02*
G37*
G36*
X1365302D02*
X1362658D01*
X1360105Y1134576D01*
X1357815Y1133254D01*
X1355946Y1131385D01*
X1354624Y1129095D01*
X1353940Y1126542D01*
Y1123898D01*
X1354624Y1121345D01*
X1355946Y1119055D01*
X1357815Y1117186D01*
X1360105Y1115864D01*
X1362658Y1115180D01*
X1365302D01*
X1367855Y1115864D01*
X1370145Y1117186D01*
X1372014Y1119055D01*
X1373336Y1121345D01*
X1374020Y1123898D01*
Y1126542D01*
X1373336Y1129095D01*
X1372014Y1131385D01*
X1370145Y1133254D01*
X1367855Y1134576D01*
X1365302Y1135260D01*
D02*
G37*
G36*
Y1109860D02*
X1365250D01*
Y1101090D01*
X1374020D01*
Y1101142D01*
X1373336Y1103695D01*
X1372014Y1105985D01*
X1370145Y1107854D01*
X1367855Y1109176D01*
X1365302Y1109860D01*
D02*
G37*
G36*
X1362710D02*
X1362658D01*
X1360105Y1109176D01*
X1357815Y1107854D01*
X1355946Y1105985D01*
X1354624Y1103695D01*
X1353940Y1101142D01*
Y1101090D01*
X1362710D01*
Y1109860D01*
D02*
G37*
G36*
X1441502D02*
X1438858D01*
X1436305Y1109176D01*
X1434015Y1107854D01*
X1432146Y1105985D01*
X1430824Y1103695D01*
X1430140Y1101142D01*
Y1098498D01*
X1430824Y1095945D01*
X1432146Y1093655D01*
X1434015Y1091786D01*
X1436305Y1090464D01*
X1438858Y1089780D01*
X1441502D01*
X1444055Y1090464D01*
X1446345Y1091786D01*
X1448214Y1093655D01*
X1449536Y1095945D01*
X1450220Y1098498D01*
Y1101142D01*
X1449536Y1103695D01*
X1448214Y1105985D01*
X1446345Y1107854D01*
X1444055Y1109176D01*
X1441502Y1109860D01*
D02*
G37*
G36*
X1374020Y1098550D02*
X1365250D01*
Y1089780D01*
X1365302D01*
X1367855Y1090464D01*
X1370145Y1091786D01*
X1372014Y1093655D01*
X1373336Y1095945D01*
X1374020Y1098498D01*
Y1098550D01*
D02*
G37*
G36*
X1362710D02*
X1353940D01*
Y1098498D01*
X1354624Y1095945D01*
X1355946Y1093655D01*
X1357815Y1091786D01*
X1360105Y1090464D01*
X1362658Y1089780D01*
X1362710D01*
Y1098550D01*
D02*
G37*
G36*
X1542950Y1106070D02*
X1525370D01*
Y1088490D01*
X1542950D01*
Y1106070D01*
D02*
G37*
G36*
X1497230D02*
X1479650D01*
Y1088490D01*
X1497230D01*
Y1106070D01*
D02*
G37*
G36*
X242370Y1090800D02*
Y1083310D01*
X249860D01*
X249291Y1085433D01*
X248134Y1087437D01*
X246497Y1089074D01*
X244493Y1090231D01*
X242370Y1090800D01*
D02*
G37*
G36*
X239830D02*
X237707Y1090231D01*
X235703Y1089074D01*
X234066Y1087437D01*
X232909Y1085433D01*
X232340Y1083310D01*
X239830D01*
Y1090800D01*
D02*
G37*
G36*
X1365302Y1084460D02*
X1365250D01*
Y1075690D01*
X1374020D01*
Y1075742D01*
X1373336Y1078295D01*
X1372014Y1080585D01*
X1370145Y1082454D01*
X1367855Y1083776D01*
X1365302Y1084460D01*
D02*
G37*
G36*
X249860Y1080770D02*
X242370D01*
Y1073280D01*
X244493Y1073849D01*
X246497Y1075006D01*
X248134Y1076643D01*
X249291Y1078647D01*
X249860Y1080770D01*
D02*
G37*
G36*
X239830D02*
X232340D01*
X232909Y1078647D01*
X234066Y1076643D01*
X235703Y1075006D01*
X237707Y1073849D01*
X239830Y1073280D01*
Y1080770D01*
D02*
G37*
G36*
X1441502Y1084460D02*
X1438858D01*
X1436305Y1083776D01*
X1434015Y1082454D01*
X1432146Y1080585D01*
X1430824Y1078295D01*
X1430140Y1075742D01*
Y1073098D01*
X1430824Y1070545D01*
X1432146Y1068255D01*
X1434015Y1066386D01*
X1436305Y1065064D01*
X1438858Y1064380D01*
X1441502D01*
X1444055Y1065064D01*
X1446345Y1066386D01*
X1448214Y1068255D01*
X1449536Y1070545D01*
X1450220Y1073098D01*
Y1075742D01*
X1449536Y1078295D01*
X1448214Y1080585D01*
X1446345Y1082454D01*
X1444055Y1083776D01*
X1441502Y1084460D01*
D02*
G37*
G36*
X1374020Y1073150D02*
X1365250D01*
Y1064380D01*
X1365302D01*
X1367855Y1065064D01*
X1370145Y1066386D01*
X1372014Y1068255D01*
X1373336Y1070545D01*
X1374020Y1073098D01*
Y1073150D01*
D02*
G37*
G36*
X1595000Y1076840D02*
X1574920D01*
Y1056760D01*
X1595000D01*
Y1076840D01*
D02*
G37*
G36*
X242370Y1060320D02*
Y1052830D01*
X249860D01*
X249291Y1054953D01*
X248134Y1056957D01*
X246497Y1058594D01*
X244493Y1059751D01*
X242370Y1060320D01*
D02*
G37*
G36*
X239830D02*
X237707Y1059751D01*
X235703Y1058594D01*
X234066Y1056957D01*
X232909Y1054953D01*
X232340Y1052830D01*
X239830D01*
Y1060320D01*
D02*
G37*
G36*
X249860Y1050290D02*
X242370D01*
Y1042800D01*
X244493Y1043369D01*
X246497Y1044526D01*
X248134Y1046163D01*
X249291Y1048167D01*
X249860Y1050290D01*
D02*
G37*
G36*
X239830D02*
X232340D01*
X232909Y1048167D01*
X234066Y1046163D01*
X235703Y1044526D01*
X237707Y1043369D01*
X239830Y1042800D01*
Y1050290D01*
D02*
G37*
G36*
X1559917Y1055270D02*
X1557603D01*
X1555367Y1054671D01*
X1553363Y1053514D01*
X1551726Y1051877D01*
X1550569Y1049873D01*
X1549970Y1047637D01*
Y1045323D01*
X1550569Y1043087D01*
X1551726Y1041083D01*
X1553363Y1039446D01*
X1555367Y1038289D01*
X1557603Y1037690D01*
X1559917D01*
X1562153Y1038289D01*
X1564157Y1039446D01*
X1565794Y1041083D01*
X1566951Y1043087D01*
X1567550Y1045323D01*
Y1047637D01*
X1566951Y1049873D01*
X1565794Y1051877D01*
X1564157Y1053514D01*
X1562153Y1054671D01*
X1559917Y1055270D01*
D02*
G37*
G36*
X1467550D02*
X1449970D01*
Y1037690D01*
X1467550D01*
Y1055270D01*
D02*
G37*
G36*
X1586282Y1051440D02*
X1583638D01*
X1581085Y1050756D01*
X1578795Y1049434D01*
X1576926Y1047565D01*
X1575604Y1045275D01*
X1574920Y1042722D01*
Y1040078D01*
X1575604Y1037525D01*
X1576926Y1035235D01*
X1578795Y1033366D01*
X1581085Y1032044D01*
X1583638Y1031360D01*
X1586282D01*
X1588835Y1032044D01*
X1591125Y1033366D01*
X1592994Y1035235D01*
X1594316Y1037525D01*
X1595000Y1040078D01*
Y1042722D01*
X1594316Y1045275D01*
X1592994Y1047565D01*
X1591125Y1049434D01*
X1588835Y1050756D01*
X1586282Y1051440D01*
D02*
G37*
G36*
X224890Y1090830D02*
X207310D01*
Y1073250D01*
X212215D01*
Y1060350D01*
X207310D01*
Y1042770D01*
X210275D01*
Y1024790D01*
X205370D01*
Y1007210D01*
X222950D01*
Y1024790D01*
X218045D01*
Y1042770D01*
X224890D01*
Y1060350D01*
X219985D01*
Y1073250D01*
X224890D01*
Y1090830D01*
D02*
G37*
G36*
X1559917Y1019710D02*
X1557603D01*
X1555367Y1019111D01*
X1553363Y1017954D01*
X1551726Y1016317D01*
X1550569Y1014313D01*
X1549970Y1012077D01*
Y1009763D01*
X1550569Y1007527D01*
X1551726Y1005523D01*
X1553363Y1003886D01*
X1555367Y1002729D01*
X1557603Y1002130D01*
X1559917D01*
X1562153Y1002729D01*
X1564157Y1003886D01*
X1565794Y1005523D01*
X1566951Y1007527D01*
X1567550Y1009763D01*
Y1012077D01*
X1566951Y1014313D01*
X1565794Y1016317D01*
X1564157Y1017954D01*
X1562153Y1019111D01*
X1559917Y1019710D01*
D02*
G37*
G36*
X1467550D02*
X1449970D01*
Y1002130D01*
X1467550D01*
Y1019710D01*
D02*
G37*
G36*
X245210Y958750D02*
X237690D01*
Y951230D01*
X245210D01*
Y958750D01*
D02*
G37*
G36*
X235150D02*
X227630D01*
Y951230D01*
X235150D01*
Y958750D01*
D02*
G37*
G36*
X245210Y948690D02*
X237690D01*
Y941170D01*
X245210D01*
Y948690D01*
D02*
G37*
G36*
X235150D02*
X227630D01*
Y941170D01*
X235150D01*
Y948690D01*
D02*
G37*
G36*
X270510Y913103D02*
Y905510D01*
X278103D01*
X277524Y907671D01*
X276354Y909699D01*
X274699Y911354D01*
X272671Y912524D01*
X270510Y913103D01*
D02*
G37*
G36*
X267970D02*
X265809Y912524D01*
X263781Y911354D01*
X262126Y909699D01*
X260956Y907671D01*
X260377Y905510D01*
X267970D01*
Y913103D01*
D02*
G37*
G36*
Y902970D02*
X260377D01*
X260956Y900809D01*
X262126Y898781D01*
X263781Y897126D01*
X265809Y895956D01*
X267970Y895377D01*
Y902970D01*
D02*
G37*
G36*
X343270Y866940D02*
X329634D01*
X329850Y865853D01*
X331026Y864094D01*
Y862509D01*
X326390Y857873D01*
Y849630D01*
X333983D01*
X333404Y851791D01*
X332632Y853128D01*
X337658Y858153D01*
X338500Y859413D01*
X338795Y860900D01*
Y862052D01*
X343270D01*
Y866940D01*
D02*
G37*
G36*
X323850Y857223D02*
X321689Y856644D01*
X319661Y855474D01*
X318006Y853819D01*
X316836Y851791D01*
X316257Y849630D01*
X323850D01*
Y857223D01*
D02*
G37*
G36*
X333983Y847090D02*
X326390D01*
Y839497D01*
X328551Y840076D01*
X330579Y841246D01*
X332234Y842901D01*
X333404Y844929D01*
X333983Y847090D01*
D02*
G37*
G36*
X323850D02*
X316257D01*
X316836Y844929D01*
X318006Y842901D01*
X319661Y841246D01*
X321689Y840076D01*
X323850Y839497D01*
Y847090D01*
D02*
G37*
G36*
X250190Y819220D02*
Y811730D01*
X257680D01*
X257111Y813853D01*
X255954Y815857D01*
X254317Y817494D01*
X252313Y818651D01*
X250190Y819220D01*
D02*
G37*
G36*
X247650D02*
X245527Y818651D01*
X243523Y817494D01*
X241886Y815857D01*
X240729Y813853D01*
X240160Y811730D01*
X247650D01*
Y819220D01*
D02*
G37*
G36*
X257680Y809190D02*
X250190D01*
Y801700D01*
X252313Y802269D01*
X254317Y803426D01*
X255954Y805063D01*
X257111Y807067D01*
X257680Y809190D01*
D02*
G37*
G36*
X247650D02*
X240160D01*
X240729Y807067D01*
X241886Y805063D01*
X243523Y803426D01*
X245527Y802269D01*
X247650Y801700D01*
Y809190D01*
D02*
G37*
G36*
X1584840Y768350D02*
X1576070D01*
Y759580D01*
X1576122D01*
X1578675Y760264D01*
X1580965Y761586D01*
X1582834Y763455D01*
X1584156Y765745D01*
X1584840Y768298D01*
Y768350D01*
D02*
G37*
G36*
X1573530D02*
X1564760D01*
Y768298D01*
X1565444Y765745D01*
X1566766Y763455D01*
X1568635Y761586D01*
X1570925Y760264D01*
X1573478Y759580D01*
X1573530D01*
Y768350D01*
D02*
G37*
G36*
X1559440D02*
X1550670D01*
Y759580D01*
X1559440D01*
Y768350D01*
D02*
G37*
G36*
X1548130D02*
X1539360D01*
Y759580D01*
X1548130D01*
Y768350D01*
D02*
G37*
G36*
X1576122Y716160D02*
X1576070D01*
Y707390D01*
X1584840D01*
Y707442D01*
X1584156Y709995D01*
X1582834Y712285D01*
X1580965Y714154D01*
X1578675Y715476D01*
X1576122Y716160D01*
D02*
G37*
G36*
X1573530D02*
X1573478D01*
X1570925Y715476D01*
X1568635Y714154D01*
X1566766Y712285D01*
X1565444Y709995D01*
X1564760Y707442D01*
Y707390D01*
X1573530D01*
Y716160D01*
D02*
G37*
G36*
X1559440D02*
X1550670D01*
Y707390D01*
X1559440D01*
Y716160D01*
D02*
G37*
G36*
X1548130D02*
X1539360D01*
Y707390D01*
X1548130D01*
Y716160D01*
D02*
G37*
G36*
X280722Y711080D02*
X280670D01*
Y702310D01*
X289440D01*
Y702362D01*
X288756Y704915D01*
X287434Y707205D01*
X285565Y709074D01*
X283275Y710396D01*
X280722Y711080D01*
D02*
G37*
G36*
X209602D02*
X209550D01*
Y702310D01*
X218320D01*
Y702362D01*
X217636Y704915D01*
X216314Y707205D01*
X214445Y709074D01*
X212155Y710396D01*
X209602Y711080D01*
D02*
G37*
G36*
X356922D02*
X356870D01*
Y702310D01*
X365640D01*
Y702362D01*
X364956Y704915D01*
X363634Y707205D01*
X361765Y709074D01*
X359475Y710396D01*
X356922Y711080D01*
D02*
G37*
G36*
X278130D02*
X278078D01*
X275525Y710396D01*
X273235Y709074D01*
X271366Y707205D01*
X270044Y704915D01*
X269360Y702362D01*
Y702310D01*
X278130D01*
Y711080D01*
D02*
G37*
G36*
X207010D02*
X206958D01*
X204405Y710396D01*
X202115Y709074D01*
X200246Y707205D01*
X198924Y704915D01*
X198240Y702362D01*
Y702310D01*
X207010D01*
Y711080D01*
D02*
G37*
G36*
X354330D02*
X354278D01*
X351725Y710396D01*
X349435Y709074D01*
X347566Y707205D01*
X346244Y704915D01*
X345560Y702362D01*
Y702310D01*
X354330D01*
Y711080D01*
D02*
G37*
G36*
X1584840Y704850D02*
X1576070D01*
Y696080D01*
X1576122D01*
X1578675Y696764D01*
X1580965Y698086D01*
X1582834Y699955D01*
X1584156Y702245D01*
X1584840Y704798D01*
Y704850D01*
D02*
G37*
G36*
X1573530D02*
X1564760D01*
Y704798D01*
X1565444Y702245D01*
X1566766Y699955D01*
X1568635Y698086D01*
X1570925Y696764D01*
X1573478Y696080D01*
X1573530D01*
Y704850D01*
D02*
G37*
G36*
X1559440D02*
X1550670D01*
Y696080D01*
X1559440D01*
Y704850D01*
D02*
G37*
G36*
X1548130D02*
X1539360D01*
Y696080D01*
X1548130D01*
Y704850D01*
D02*
G37*
G36*
X365640Y699770D02*
X356870D01*
Y691000D01*
X356922D01*
X359475Y691684D01*
X361765Y693006D01*
X363634Y694875D01*
X364956Y697165D01*
X365640Y699718D01*
Y699770D01*
D02*
G37*
G36*
X354330D02*
X345560D01*
Y699718D01*
X346244Y697165D01*
X347566Y694875D01*
X349435Y693006D01*
X351725Y691684D01*
X354278Y691000D01*
X354330D01*
Y699770D01*
D02*
G37*
G36*
X289440D02*
X280670D01*
Y691000D01*
X280722D01*
X283275Y691684D01*
X285565Y693006D01*
X287434Y694875D01*
X288756Y697165D01*
X289440Y699718D01*
Y699770D01*
D02*
G37*
G36*
X278130D02*
X269360D01*
Y699718D01*
X270044Y697165D01*
X271366Y694875D01*
X273235Y693006D01*
X275525Y691684D01*
X278078Y691000D01*
X278130D01*
Y699770D01*
D02*
G37*
G36*
X218320D02*
X209550D01*
Y691000D01*
X209602D01*
X212155Y691684D01*
X214445Y693006D01*
X216314Y694875D01*
X217636Y697165D01*
X218320Y699718D01*
Y699770D01*
D02*
G37*
G36*
X207010D02*
X198240D01*
Y699718D01*
X198924Y697165D01*
X200246Y694875D01*
X202115Y693006D01*
X204405Y691684D01*
X206958Y691000D01*
X207010D01*
Y699770D01*
D02*
G37*
G36*
X1576122Y662820D02*
X1576070D01*
Y654050D01*
X1584840D01*
Y654102D01*
X1584156Y656655D01*
X1582834Y658945D01*
X1580965Y660814D01*
X1578675Y662136D01*
X1576122Y662820D01*
D02*
G37*
G36*
X1573530D02*
X1573478D01*
X1570925Y662136D01*
X1568635Y660814D01*
X1566766Y658945D01*
X1565444Y656655D01*
X1564760Y654102D01*
Y654050D01*
X1573530D01*
Y662820D01*
D02*
G37*
G36*
X1559440D02*
X1550670D01*
Y654050D01*
X1559440D01*
Y662820D01*
D02*
G37*
G36*
X1548130D02*
X1539360D01*
Y654050D01*
X1548130D01*
Y662820D01*
D02*
G37*
G36*
X280722Y655200D02*
X280670D01*
Y646430D01*
X289440D01*
Y646482D01*
X288756Y649035D01*
X287434Y651325D01*
X285565Y653194D01*
X283275Y654516D01*
X280722Y655200D01*
D02*
G37*
G36*
X209602D02*
X209550D01*
Y646430D01*
X218320D01*
Y646482D01*
X217636Y649035D01*
X216314Y651325D01*
X214445Y653194D01*
X212155Y654516D01*
X209602Y655200D01*
D02*
G37*
G36*
X356922D02*
X356870D01*
Y646430D01*
X365640D01*
Y646482D01*
X364956Y649035D01*
X363634Y651325D01*
X361765Y653194D01*
X359475Y654516D01*
X356922Y655200D01*
D02*
G37*
G36*
X278130D02*
X278078D01*
X275525Y654516D01*
X273235Y653194D01*
X271366Y651325D01*
X270044Y649035D01*
X269360Y646482D01*
Y646430D01*
X278130D01*
Y655200D01*
D02*
G37*
G36*
X207010D02*
X206958D01*
X204405Y654516D01*
X202115Y653194D01*
X200246Y651325D01*
X198924Y649035D01*
X198240Y646482D01*
Y646430D01*
X207010D01*
Y655200D01*
D02*
G37*
G36*
X354330D02*
X354278D01*
X351725Y654516D01*
X349435Y653194D01*
X347566Y651325D01*
X346244Y649035D01*
X345560Y646482D01*
Y646430D01*
X354330D01*
Y655200D01*
D02*
G37*
G36*
X1584840Y651510D02*
X1576070D01*
Y642740D01*
X1576122D01*
X1578675Y643424D01*
X1580965Y644746D01*
X1582834Y646615D01*
X1584156Y648905D01*
X1584840Y651458D01*
Y651510D01*
D02*
G37*
G36*
X1573530D02*
X1564760D01*
Y651458D01*
X1565444Y648905D01*
X1566766Y646615D01*
X1568635Y644746D01*
X1570925Y643424D01*
X1573478Y642740D01*
X1573530D01*
Y651510D01*
D02*
G37*
G36*
X1559440D02*
X1550670D01*
Y642740D01*
X1559440D01*
Y651510D01*
D02*
G37*
G36*
X1548130D02*
X1539360D01*
Y642740D01*
X1548130D01*
Y651510D01*
D02*
G37*
G36*
X365640Y643890D02*
X356870D01*
Y635120D01*
X356922D01*
X359475Y635804D01*
X361765Y637126D01*
X363634Y638995D01*
X364956Y641285D01*
X365640Y643838D01*
Y643890D01*
D02*
G37*
G36*
X354330D02*
X345560D01*
Y643838D01*
X346244Y641285D01*
X347566Y638995D01*
X349435Y637126D01*
X351725Y635804D01*
X354278Y635120D01*
X354330D01*
Y643890D01*
D02*
G37*
G36*
X289440D02*
X280670D01*
Y635120D01*
X280722D01*
X283275Y635804D01*
X285565Y637126D01*
X287434Y638995D01*
X288756Y641285D01*
X289440Y643838D01*
Y643890D01*
D02*
G37*
G36*
X278130D02*
X269360D01*
Y643838D01*
X270044Y641285D01*
X271366Y638995D01*
X273235Y637126D01*
X275525Y635804D01*
X278078Y635120D01*
X278130D01*
Y643890D01*
D02*
G37*
G36*
X218320D02*
X209550D01*
Y635120D01*
X209602D01*
X212155Y635804D01*
X214445Y637126D01*
X216314Y638995D01*
X217636Y641285D01*
X218320Y643838D01*
Y643890D01*
D02*
G37*
G36*
X207010D02*
X198240D01*
Y643838D01*
X198924Y641285D01*
X200246Y638995D01*
X202115Y637126D01*
X204405Y635804D01*
X206958Y635120D01*
X207010D01*
Y643890D01*
D02*
G37*
G36*
X280722Y604400D02*
X280670D01*
Y595630D01*
X289440D01*
Y595682D01*
X288756Y598235D01*
X287434Y600525D01*
X285565Y602394D01*
X283275Y603716D01*
X280722Y604400D01*
D02*
G37*
G36*
X209602D02*
X209550D01*
Y595630D01*
X218320D01*
Y595682D01*
X217636Y598235D01*
X216314Y600525D01*
X214445Y602394D01*
X212155Y603716D01*
X209602Y604400D01*
D02*
G37*
G36*
X278130D02*
X278078D01*
X275525Y603716D01*
X273235Y602394D01*
X271366Y600525D01*
X270044Y598235D01*
X269360Y595682D01*
Y595630D01*
X278130D01*
Y604400D01*
D02*
G37*
G36*
X207010D02*
X206958D01*
X204405Y603716D01*
X202115Y602394D01*
X200246Y600525D01*
X198924Y598235D01*
X198240Y595682D01*
Y595630D01*
X207010D01*
Y604400D01*
D02*
G37*
G36*
X356922Y599320D02*
X356870D01*
Y590550D01*
X365640D01*
Y590602D01*
X364956Y593155D01*
X363634Y595445D01*
X361765Y597314D01*
X359475Y598636D01*
X356922Y599320D01*
D02*
G37*
G36*
X1576122D02*
X1576070D01*
Y590550D01*
X1584840D01*
Y590602D01*
X1584156Y593155D01*
X1582834Y595445D01*
X1580965Y597314D01*
X1578675Y598636D01*
X1576122Y599320D01*
D02*
G37*
G36*
X1573530D02*
X1573478D01*
X1570925Y598636D01*
X1568635Y597314D01*
X1566766Y595445D01*
X1565444Y593155D01*
X1564760Y590602D01*
Y590550D01*
X1573530D01*
Y599320D01*
D02*
G37*
G36*
X354330D02*
X354278D01*
X351725Y598636D01*
X349435Y597314D01*
X347566Y595445D01*
X346244Y593155D01*
X345560Y590602D01*
Y590550D01*
X354330D01*
Y599320D01*
D02*
G37*
G36*
X289440Y593090D02*
X280670D01*
Y584320D01*
X280722D01*
X283275Y585004D01*
X285565Y586326D01*
X287434Y588195D01*
X288756Y590485D01*
X289440Y593038D01*
Y593090D01*
D02*
G37*
G36*
X278130D02*
X269360D01*
Y593038D01*
X270044Y590485D01*
X271366Y588195D01*
X273235Y586326D01*
X275525Y585004D01*
X278078Y584320D01*
X278130D01*
Y593090D01*
D02*
G37*
G36*
X218320D02*
X209550D01*
Y584320D01*
X209602D01*
X212155Y585004D01*
X214445Y586326D01*
X216314Y588195D01*
X217636Y590485D01*
X218320Y593038D01*
Y593090D01*
D02*
G37*
G36*
X207010D02*
X198240D01*
Y593038D01*
X198924Y590485D01*
X200246Y588195D01*
X202115Y586326D01*
X204405Y585004D01*
X206958Y584320D01*
X207010D01*
Y593090D01*
D02*
G37*
G36*
X1584840Y588010D02*
X1576070D01*
Y579240D01*
X1576122D01*
X1578675Y579924D01*
X1580965Y581246D01*
X1582834Y583115D01*
X1584156Y585405D01*
X1584840Y587958D01*
Y588010D01*
D02*
G37*
G36*
X1573530D02*
X1564760D01*
Y587958D01*
X1565444Y585405D01*
X1566766Y583115D01*
X1568635Y581246D01*
X1570925Y579924D01*
X1573478Y579240D01*
X1573530D01*
Y588010D01*
D02*
G37*
G36*
X1559440Y599320D02*
X1539360D01*
Y579240D01*
X1559440D01*
Y599320D01*
D02*
G37*
G36*
X365640Y588010D02*
X356870D01*
Y579240D01*
X356922D01*
X359475Y579924D01*
X361765Y581246D01*
X363634Y583115D01*
X364956Y585405D01*
X365640Y587958D01*
Y588010D01*
D02*
G37*
G36*
X354330D02*
X345560D01*
Y587958D01*
X346244Y585405D01*
X347566Y583115D01*
X349435Y581246D01*
X351725Y579924D01*
X354278Y579240D01*
X354330D01*
Y588010D01*
D02*
G37*
G36*
X280722Y548520D02*
X280670D01*
Y539750D01*
X289440D01*
Y539802D01*
X288756Y542355D01*
X287434Y544645D01*
X285565Y546514D01*
X283275Y547836D01*
X280722Y548520D01*
D02*
G37*
G36*
X209602D02*
X209550D01*
Y539750D01*
X218320D01*
Y539802D01*
X217636Y542355D01*
X216314Y544645D01*
X214445Y546514D01*
X212155Y547836D01*
X209602Y548520D01*
D02*
G37*
G36*
X278130D02*
X278078D01*
X275525Y547836D01*
X273235Y546514D01*
X271366Y544645D01*
X270044Y542355D01*
X269360Y539802D01*
Y539750D01*
X278130D01*
Y548520D01*
D02*
G37*
G36*
X207010D02*
X206958D01*
X204405Y547836D01*
X202115Y546514D01*
X200246Y544645D01*
X198924Y542355D01*
X198240Y539802D01*
Y539750D01*
X207010D01*
Y548520D01*
D02*
G37*
G36*
X1576122Y543440D02*
X1576070D01*
Y534670D01*
X1584840D01*
Y534722D01*
X1584156Y537275D01*
X1582834Y539565D01*
X1580965Y541434D01*
X1578675Y542756D01*
X1576122Y543440D01*
D02*
G37*
G36*
X1573530D02*
X1573478D01*
X1570925Y542756D01*
X1568635Y541434D01*
X1566766Y539565D01*
X1565444Y537275D01*
X1564760Y534722D01*
Y534670D01*
X1573530D01*
Y543440D01*
D02*
G37*
G36*
X356922Y538360D02*
X356870D01*
Y529590D01*
X365640D01*
Y529642D01*
X364956Y532195D01*
X363634Y534485D01*
X361765Y536354D01*
X359475Y537676D01*
X356922Y538360D01*
D02*
G37*
G36*
X354330D02*
X354278D01*
X351725Y537676D01*
X349435Y536354D01*
X347566Y534485D01*
X346244Y532195D01*
X345560Y529642D01*
Y529590D01*
X354330D01*
Y538360D01*
D02*
G37*
G36*
X289440Y537210D02*
X280670D01*
Y528440D01*
X280722D01*
X283275Y529124D01*
X285565Y530446D01*
X287434Y532315D01*
X288756Y534605D01*
X289440Y537158D01*
Y537210D01*
D02*
G37*
G36*
X278130D02*
X269360D01*
Y537158D01*
X270044Y534605D01*
X271366Y532315D01*
X273235Y530446D01*
X275525Y529124D01*
X278078Y528440D01*
X278130D01*
Y537210D01*
D02*
G37*
G36*
X218320D02*
X209550D01*
Y528440D01*
X209602D01*
X212155Y529124D01*
X214445Y530446D01*
X216314Y532315D01*
X217636Y534605D01*
X218320Y537158D01*
Y537210D01*
D02*
G37*
G36*
X207010D02*
X198240D01*
Y537158D01*
X198924Y534605D01*
X200246Y532315D01*
X202115Y530446D01*
X204405Y529124D01*
X206958Y528440D01*
X207010D01*
Y537210D01*
D02*
G37*
G36*
X1584840Y532130D02*
X1576070D01*
Y523360D01*
X1576122D01*
X1578675Y524044D01*
X1580965Y525366D01*
X1582834Y527235D01*
X1584156Y529525D01*
X1584840Y532078D01*
Y532130D01*
D02*
G37*
G36*
X1573530D02*
X1564760D01*
Y532078D01*
X1565444Y529525D01*
X1566766Y527235D01*
X1568635Y525366D01*
X1570925Y524044D01*
X1573478Y523360D01*
X1573530D01*
Y532130D01*
D02*
G37*
G36*
X1559440Y543440D02*
X1539360D01*
Y523360D01*
X1559440D01*
Y543440D01*
D02*
G37*
G36*
X365640Y527050D02*
X356870D01*
Y518280D01*
X356922D01*
X359475Y518964D01*
X361765Y520286D01*
X363634Y522155D01*
X364956Y524445D01*
X365640Y526998D01*
Y527050D01*
D02*
G37*
G36*
X354330D02*
X345560D01*
Y526998D01*
X346244Y524445D01*
X347566Y522155D01*
X349435Y520286D01*
X351725Y518964D01*
X354278Y518280D01*
X354330D01*
Y527050D01*
D02*
G37*
G36*
X280722Y492640D02*
X280670D01*
Y483870D01*
X289440D01*
Y483922D01*
X288756Y486475D01*
X287434Y488765D01*
X285565Y490634D01*
X283275Y491956D01*
X280722Y492640D01*
D02*
G37*
G36*
X209602D02*
X209550D01*
Y483870D01*
X218320D01*
Y483922D01*
X217636Y486475D01*
X216314Y488765D01*
X214445Y490634D01*
X212155Y491956D01*
X209602Y492640D01*
D02*
G37*
G36*
X278130D02*
X278078D01*
X275525Y491956D01*
X273235Y490634D01*
X271366Y488765D01*
X270044Y486475D01*
X269360Y483922D01*
Y483870D01*
X278130D01*
Y492640D01*
D02*
G37*
G36*
X207010D02*
X206958D01*
X204405Y491956D01*
X202115Y490634D01*
X200246Y488765D01*
X198924Y486475D01*
X198240Y483922D01*
Y483870D01*
X207010D01*
Y492640D01*
D02*
G37*
G36*
X356922Y482480D02*
X356870D01*
Y473710D01*
X365640D01*
Y473762D01*
X364956Y476315D01*
X363634Y478605D01*
X361765Y480474D01*
X359475Y481796D01*
X356922Y482480D01*
D02*
G37*
G36*
X1576122D02*
X1576070D01*
Y473710D01*
X1584840D01*
Y473762D01*
X1584156Y476315D01*
X1582834Y478605D01*
X1580965Y480474D01*
X1578675Y481796D01*
X1576122Y482480D01*
D02*
G37*
G36*
X1573530D02*
X1573478D01*
X1570925Y481796D01*
X1568635Y480474D01*
X1566766Y478605D01*
X1565444Y476315D01*
X1564760Y473762D01*
Y473710D01*
X1573530D01*
Y482480D01*
D02*
G37*
G36*
X354330D02*
X354278D01*
X351725Y481796D01*
X349435Y480474D01*
X347566Y478605D01*
X346244Y476315D01*
X345560Y473762D01*
Y473710D01*
X354330D01*
Y482480D01*
D02*
G37*
G36*
X289440Y481330D02*
X280670D01*
Y472560D01*
X280722D01*
X283275Y473244D01*
X285565Y474566D01*
X287434Y476435D01*
X288756Y478725D01*
X289440Y481278D01*
Y481330D01*
D02*
G37*
G36*
X278130D02*
X269360D01*
Y481278D01*
X270044Y478725D01*
X271366Y476435D01*
X273235Y474566D01*
X275525Y473244D01*
X278078Y472560D01*
X278130D01*
Y481330D01*
D02*
G37*
G36*
X218320D02*
X209550D01*
Y472560D01*
X209602D01*
X212155Y473244D01*
X214445Y474566D01*
X216314Y476435D01*
X217636Y478725D01*
X218320Y481278D01*
Y481330D01*
D02*
G37*
G36*
X207010D02*
X198240D01*
Y481278D01*
X198924Y478725D01*
X200246Y476435D01*
X202115Y474566D01*
X204405Y473244D01*
X206958Y472560D01*
X207010D01*
Y481330D01*
D02*
G37*
G36*
X1078117Y480430D02*
X1075803D01*
X1073567Y479831D01*
X1071563Y478674D01*
X1069926Y477037D01*
X1068769Y475033D01*
X1068170Y472797D01*
Y470483D01*
X1068769Y468247D01*
X1069926Y466243D01*
X1071563Y464606D01*
X1073567Y463449D01*
X1075803Y462850D01*
X1078117D01*
X1080353Y463449D01*
X1082357Y464606D01*
X1083994Y466243D01*
X1085151Y468247D01*
X1085750Y470483D01*
Y472797D01*
X1085151Y475033D01*
X1083994Y477037D01*
X1082357Y478674D01*
X1080353Y479831D01*
X1078117Y480430D01*
D02*
G37*
G36*
X1584840Y471170D02*
X1576070D01*
Y462400D01*
X1576122D01*
X1578675Y463084D01*
X1580965Y464406D01*
X1582834Y466275D01*
X1584156Y468565D01*
X1584840Y471118D01*
Y471170D01*
D02*
G37*
G36*
X1573530D02*
X1564760D01*
Y471118D01*
X1565444Y468565D01*
X1566766Y466275D01*
X1568635Y464406D01*
X1570925Y463084D01*
X1573478Y462400D01*
X1573530D01*
Y471170D01*
D02*
G37*
G36*
X1559440Y482480D02*
X1539360D01*
Y462400D01*
X1559440D01*
Y482480D01*
D02*
G37*
G36*
X365640Y471170D02*
X356870D01*
Y462400D01*
X356922D01*
X359475Y463084D01*
X361765Y464406D01*
X363634Y466275D01*
X364956Y468565D01*
X365640Y471118D01*
Y471170D01*
D02*
G37*
G36*
X354330D02*
X345560D01*
Y471118D01*
X346244Y468565D01*
X347566Y466275D01*
X349435Y464406D01*
X351725Y463084D01*
X354278Y462400D01*
X354330D01*
Y471170D01*
D02*
G37*
G36*
X1494677Y475350D02*
X1492363D01*
X1490127Y474751D01*
X1488123Y473594D01*
X1486486Y471957D01*
X1485329Y469953D01*
X1484730Y467717D01*
Y465403D01*
X1485329Y463167D01*
X1486486Y461163D01*
X1488123Y459526D01*
X1490127Y458369D01*
X1492363Y457770D01*
X1494677D01*
X1496913Y458369D01*
X1498917Y459526D01*
X1500554Y461163D01*
X1501711Y463167D01*
X1502310Y465403D01*
Y467717D01*
X1501711Y469953D01*
X1500554Y471957D01*
X1498917Y473594D01*
X1496913Y474751D01*
X1494677Y475350D01*
D02*
G37*
G36*
X747917Y470270D02*
X745603D01*
X743367Y469671D01*
X741363Y468514D01*
X739726Y466877D01*
X738569Y464873D01*
X737970Y462637D01*
Y460323D01*
X738569Y458087D01*
X739726Y456083D01*
X741363Y454446D01*
X743367Y453289D01*
X745603Y452690D01*
X747917D01*
X750153Y453289D01*
X752157Y454446D01*
X753794Y456083D01*
X754951Y458087D01*
X755550Y460323D01*
Y462637D01*
X754951Y464873D01*
X753794Y466877D01*
X752157Y468514D01*
X750153Y469671D01*
X747917Y470270D01*
D02*
G37*
G36*
X423778Y431800D02*
X421102D01*
X418518Y431108D01*
X416202Y429770D01*
X414310Y427878D01*
X412972Y425562D01*
X412962Y425525D01*
X391040D01*
Y431680D01*
X370960D01*
Y411600D01*
X391040D01*
Y417755D01*
X412962D01*
X412972Y417718D01*
X414310Y415402D01*
X416202Y413510D01*
X418518Y412172D01*
X421102Y411480D01*
X423778D01*
X426362Y412172D01*
X428678Y413510D01*
X430570Y415402D01*
X431908Y417718D01*
X432600Y420302D01*
Y422978D01*
X431908Y425562D01*
X430570Y427878D01*
X428678Y429770D01*
X426362Y431108D01*
X423778Y431800D01*
D02*
G37*
G36*
X209602Y431680D02*
X209550D01*
Y422910D01*
X218320D01*
Y422962D01*
X217636Y425515D01*
X216314Y427805D01*
X214445Y429674D01*
X212155Y430996D01*
X209602Y431680D01*
D02*
G37*
G36*
X280722D02*
X280670D01*
Y422910D01*
X289440D01*
Y422962D01*
X288756Y425515D01*
X287434Y427805D01*
X285565Y429674D01*
X283275Y430996D01*
X280722Y431680D01*
D02*
G37*
G36*
X356922D02*
X356870D01*
Y422910D01*
X365640D01*
Y422962D01*
X364956Y425515D01*
X363634Y427805D01*
X361765Y429674D01*
X359475Y430996D01*
X356922Y431680D01*
D02*
G37*
G36*
X1576122D02*
X1576070D01*
Y422910D01*
X1584840D01*
Y422962D01*
X1584156Y425515D01*
X1582834Y427805D01*
X1580965Y429674D01*
X1578675Y430996D01*
X1576122Y431680D01*
D02*
G37*
G36*
X1573530D02*
X1573478D01*
X1570925Y430996D01*
X1568635Y429674D01*
X1566766Y427805D01*
X1565444Y425515D01*
X1564760Y422962D01*
Y422910D01*
X1573530D01*
Y431680D01*
D02*
G37*
G36*
X278130D02*
X278078D01*
X275525Y430996D01*
X273235Y429674D01*
X271366Y427805D01*
X270044Y425515D01*
X269360Y422962D01*
Y422910D01*
X278130D01*
Y431680D01*
D02*
G37*
G36*
X207010D02*
X206958D01*
X204405Y430996D01*
X202115Y429674D01*
X200246Y427805D01*
X198924Y425515D01*
X198240Y422962D01*
Y422910D01*
X207010D01*
Y431680D01*
D02*
G37*
G36*
X354330D02*
X354278D01*
X351725Y430996D01*
X349435Y429674D01*
X347566Y427805D01*
X346244Y425515D01*
X345560Y422962D01*
Y422910D01*
X354330D01*
Y431680D01*
D02*
G37*
G36*
X1584840Y420370D02*
X1576070D01*
Y411600D01*
X1576122D01*
X1578675Y412284D01*
X1580965Y413606D01*
X1582834Y415475D01*
X1584156Y417765D01*
X1584840Y420318D01*
Y420370D01*
D02*
G37*
G36*
X1573530D02*
X1564760D01*
Y420318D01*
X1565444Y417765D01*
X1566766Y415475D01*
X1568635Y413606D01*
X1570925Y412284D01*
X1573478Y411600D01*
X1573530D01*
Y420370D01*
D02*
G37*
G36*
X1559440Y431680D02*
X1539360D01*
Y411600D01*
X1559440D01*
Y431680D01*
D02*
G37*
G36*
X365640Y420370D02*
X356870D01*
Y411600D01*
X356922D01*
X359475Y412284D01*
X361765Y413606D01*
X363634Y415475D01*
X364956Y417765D01*
X365640Y420318D01*
Y420370D01*
D02*
G37*
G36*
X354330D02*
X345560D01*
Y420318D01*
X346244Y417765D01*
X347566Y415475D01*
X349435Y413606D01*
X351725Y412284D01*
X354278Y411600D01*
X354330D01*
Y420370D01*
D02*
G37*
G36*
X289440D02*
X280670D01*
Y411600D01*
X280722D01*
X283275Y412284D01*
X285565Y413606D01*
X287434Y415475D01*
X288756Y417765D01*
X289440Y420318D01*
Y420370D01*
D02*
G37*
G36*
X278130D02*
X269360D01*
Y420318D01*
X270044Y417765D01*
X271366Y415475D01*
X273235Y413606D01*
X275525Y412284D01*
X278078Y411600D01*
X278130D01*
Y420370D01*
D02*
G37*
G36*
X218320D02*
X209550D01*
Y411600D01*
X209602D01*
X212155Y412284D01*
X214445Y413606D01*
X216314Y415475D01*
X217636Y417765D01*
X218320Y420318D01*
Y420370D01*
D02*
G37*
G36*
X207010D02*
X198240D01*
Y420318D01*
X198924Y417765D01*
X200246Y415475D01*
X202115Y413606D01*
X204405Y412284D01*
X206958Y411600D01*
X207010D01*
Y420370D01*
D02*
G37*
G36*
X1085750Y380430D02*
X1078230D01*
Y372910D01*
X1085750D01*
Y380430D01*
D02*
G37*
G36*
X1075690D02*
X1068170D01*
Y372910D01*
X1075690D01*
Y380430D01*
D02*
G37*
G36*
X422978Y375920D02*
X420302D01*
X417718Y375228D01*
X415402Y373890D01*
X413510Y371998D01*
X412172Y369682D01*
X412163Y369645D01*
X391040D01*
Y375800D01*
X370960D01*
Y355720D01*
X391040D01*
Y361875D01*
X412163D01*
X412172Y361838D01*
X413510Y359522D01*
X415402Y357630D01*
X417718Y356292D01*
X420302Y355600D01*
X422978D01*
X425562Y356292D01*
X427878Y357630D01*
X429770Y359522D01*
X431108Y361838D01*
X431800Y364422D01*
Y367098D01*
X431108Y369682D01*
X429770Y371998D01*
X427878Y373890D01*
X425562Y375228D01*
X422978Y375920D01*
D02*
G37*
G36*
X1502310Y375350D02*
X1494790D01*
Y367830D01*
X1502310D01*
Y375350D01*
D02*
G37*
G36*
X1492250D02*
X1484730D01*
Y367830D01*
X1492250D01*
Y375350D01*
D02*
G37*
G36*
X280722Y375800D02*
X280670D01*
Y367030D01*
X289440D01*
Y367082D01*
X288756Y369635D01*
X287434Y371925D01*
X285565Y373794D01*
X283275Y375116D01*
X280722Y375800D01*
D02*
G37*
G36*
X356922D02*
X356870D01*
Y367030D01*
X365640D01*
Y367082D01*
X364956Y369635D01*
X363634Y371925D01*
X361765Y373794D01*
X359475Y375116D01*
X356922Y375800D01*
D02*
G37*
G36*
X278130D02*
X278078D01*
X275525Y375116D01*
X273235Y373794D01*
X271366Y371925D01*
X270044Y369635D01*
X269360Y367082D01*
Y367030D01*
X278130D01*
Y375800D01*
D02*
G37*
G36*
X354330D02*
X354278D01*
X351725Y375116D01*
X349435Y373794D01*
X347566Y371925D01*
X346244Y369635D01*
X345560Y367082D01*
Y367030D01*
X354330D01*
Y375800D01*
D02*
G37*
G36*
X1085750Y370370D02*
X1078230D01*
Y362850D01*
X1085750D01*
Y370370D01*
D02*
G37*
G36*
X1075690D02*
X1068170D01*
Y362850D01*
X1075690D01*
Y370370D01*
D02*
G37*
G36*
X755550Y370270D02*
X748030D01*
Y362750D01*
X755550D01*
Y370270D01*
D02*
G37*
G36*
X745490D02*
X737970D01*
Y362750D01*
X745490D01*
Y370270D01*
D02*
G37*
G36*
X209602Y370720D02*
X209550D01*
Y361950D01*
X218320D01*
Y362002D01*
X217636Y364555D01*
X216314Y366845D01*
X214445Y368714D01*
X212155Y370036D01*
X209602Y370720D01*
D02*
G37*
G36*
X207010D02*
X206958D01*
X204405Y370036D01*
X202115Y368714D01*
X200246Y366845D01*
X198924Y364555D01*
X198240Y362002D01*
Y361950D01*
X207010D01*
Y370720D01*
D02*
G37*
G36*
X1502310Y365290D02*
X1494790D01*
Y357770D01*
X1502310D01*
Y365290D01*
D02*
G37*
G36*
X1492250D02*
X1484730D01*
Y357770D01*
X1492250D01*
Y365290D01*
D02*
G37*
G36*
X1444058Y376720D02*
X1441382D01*
X1438798Y376028D01*
X1436482Y374690D01*
X1434590Y372798D01*
X1433252Y370482D01*
X1432560Y367898D01*
Y365222D01*
X1433252Y362638D01*
X1434590Y360322D01*
X1436482Y358430D01*
X1438798Y357092D01*
X1441382Y356400D01*
X1444058D01*
X1446642Y357092D01*
X1448958Y358430D01*
X1450850Y360322D01*
X1452188Y362638D01*
X1452880Y365222D01*
Y367898D01*
X1452188Y370482D01*
X1450850Y372798D01*
X1448958Y374690D01*
X1446642Y376028D01*
X1444058Y376720D01*
D02*
G37*
G36*
X1342458D02*
X1339782D01*
X1337198Y376028D01*
X1334882Y374690D01*
X1332990Y372798D01*
X1331652Y370482D01*
X1330960Y367898D01*
Y365222D01*
X1331652Y362638D01*
X1332990Y360322D01*
X1334882Y358430D01*
X1337198Y357092D01*
X1339782Y356400D01*
X1342458D01*
X1345042Y357092D01*
X1347358Y358430D01*
X1349250Y360322D01*
X1350588Y362638D01*
X1351280Y365222D01*
Y367898D01*
X1350588Y370482D01*
X1349250Y372798D01*
X1347358Y374690D01*
X1345042Y376028D01*
X1342458Y376720D01*
D02*
G37*
G36*
X1251018D02*
X1248342D01*
X1245758Y376028D01*
X1243442Y374690D01*
X1241550Y372798D01*
X1240212Y370482D01*
X1239520Y367898D01*
Y365222D01*
X1240212Y362638D01*
X1241550Y360322D01*
X1243442Y358430D01*
X1245758Y357092D01*
X1248342Y356400D01*
X1251018D01*
X1253602Y357092D01*
X1255918Y358430D01*
X1257810Y360322D01*
X1259148Y362638D01*
X1259840Y365222D01*
Y367898D01*
X1259148Y370482D01*
X1257810Y372798D01*
X1255918Y374690D01*
X1253602Y376028D01*
X1251018Y376720D01*
D02*
G37*
G36*
X365640Y364490D02*
X356870D01*
Y355720D01*
X356922D01*
X359475Y356404D01*
X361765Y357726D01*
X363634Y359595D01*
X364956Y361885D01*
X365640Y364438D01*
Y364490D01*
D02*
G37*
G36*
X354330D02*
X345560D01*
Y364438D01*
X346244Y361885D01*
X347566Y359595D01*
X349435Y357726D01*
X351725Y356404D01*
X354278Y355720D01*
X354330D01*
Y364490D01*
D02*
G37*
G36*
X289440D02*
X280670D01*
Y355720D01*
X280722D01*
X283275Y356404D01*
X285565Y357726D01*
X287434Y359595D01*
X288756Y361885D01*
X289440Y364438D01*
Y364490D01*
D02*
G37*
G36*
X278130D02*
X269360D01*
Y364438D01*
X270044Y361885D01*
X271366Y359595D01*
X273235Y357726D01*
X275525Y356404D01*
X278078Y355720D01*
X278130D01*
Y364490D01*
D02*
G37*
G36*
X1169738Y375920D02*
X1167062D01*
X1164478Y375228D01*
X1162162Y373890D01*
X1160270Y371998D01*
X1158932Y369682D01*
X1158240Y367098D01*
Y364422D01*
X1158932Y361838D01*
X1160270Y359522D01*
X1162162Y357630D01*
X1164478Y356292D01*
X1167062Y355600D01*
X1169738D01*
X1172322Y356292D01*
X1174638Y357630D01*
X1176530Y359522D01*
X1177868Y361838D01*
X1178560Y364422D01*
Y367098D01*
X1177868Y369682D01*
X1176530Y371998D01*
X1174638Y373890D01*
X1172322Y375228D01*
X1169738Y375920D01*
D02*
G37*
G36*
X755550Y360210D02*
X748030D01*
Y352690D01*
X755550D01*
Y360210D01*
D02*
G37*
G36*
X745490D02*
X737970D01*
Y352690D01*
X745490D01*
Y360210D01*
D02*
G37*
G36*
X218320Y359410D02*
X209550D01*
Y350640D01*
X209602D01*
X212155Y351324D01*
X214445Y352646D01*
X216314Y354515D01*
X217636Y356805D01*
X218320Y359358D01*
Y359410D01*
D02*
G37*
G36*
X207010D02*
X198240D01*
Y359358D01*
X198924Y356805D01*
X200246Y354515D01*
X202115Y352646D01*
X204405Y351324D01*
X206958Y350640D01*
X207010D01*
Y359410D01*
D02*
G37*
G36*
X1559440Y365640D02*
X1539360D01*
Y345560D01*
X1559440D01*
Y365640D01*
D02*
G37*
G36*
X1611630Y364490D02*
X1610701D01*
X1606357Y363802D01*
X1602175Y362443D01*
X1598256Y360446D01*
X1594698Y357861D01*
X1591589Y354752D01*
X1589004Y351194D01*
X1587007Y347275D01*
X1585648Y343093D01*
X1584960Y338749D01*
Y337820D01*
X1611630D01*
Y364490D01*
D02*
G37*
G36*
X1454202Y345320D02*
X1454150D01*
Y336550D01*
X1462920D01*
Y336602D01*
X1462236Y339155D01*
X1460914Y341445D01*
X1459045Y343314D01*
X1456755Y344636D01*
X1454202Y345320D01*
D02*
G37*
G36*
X1451610D02*
X1451558D01*
X1449005Y344636D01*
X1446715Y343314D01*
X1444846Y341445D01*
X1443524Y339155D01*
X1442840Y336602D01*
Y336550D01*
X1451610D01*
Y345320D01*
D02*
G37*
G36*
X1352602D02*
X1352550D01*
Y336550D01*
X1361320D01*
Y336602D01*
X1360636Y339155D01*
X1359314Y341445D01*
X1357445Y343314D01*
X1355155Y344636D01*
X1352602Y345320D01*
D02*
G37*
G36*
X1350010D02*
X1349958D01*
X1347405Y344636D01*
X1345115Y343314D01*
X1343246Y341445D01*
X1341924Y339155D01*
X1341240Y336602D01*
Y336550D01*
X1350010D01*
Y345320D01*
D02*
G37*
G36*
X1266242D02*
X1266190D01*
Y336550D01*
X1274960D01*
Y336602D01*
X1274276Y339155D01*
X1272954Y341445D01*
X1271085Y343314D01*
X1268795Y344636D01*
X1266242Y345320D01*
D02*
G37*
G36*
X1263650D02*
X1263598D01*
X1261045Y344636D01*
X1258755Y343314D01*
X1256886Y341445D01*
X1255564Y339155D01*
X1254880Y336602D01*
Y336550D01*
X1263650D01*
Y345320D01*
D02*
G37*
G36*
X1037642D02*
X1037590D01*
Y336550D01*
X1046360D01*
Y336602D01*
X1045676Y339155D01*
X1044354Y341445D01*
X1042485Y343314D01*
X1040195Y344636D01*
X1037642Y345320D01*
D02*
G37*
G36*
X1035050D02*
X1034998D01*
X1032445Y344636D01*
X1030155Y343314D01*
X1028286Y341445D01*
X1026964Y339155D01*
X1026280Y336602D01*
Y336550D01*
X1035050D01*
Y345320D01*
D02*
G37*
G36*
X930962D02*
X930910D01*
Y336550D01*
X939680D01*
Y336602D01*
X938996Y339155D01*
X937674Y341445D01*
X935805Y343314D01*
X933515Y344636D01*
X930962Y345320D01*
D02*
G37*
G36*
X928370D02*
X928318D01*
X925765Y344636D01*
X923475Y343314D01*
X921606Y341445D01*
X920284Y339155D01*
X919600Y336602D01*
Y336550D01*
X928370D01*
Y345320D01*
D02*
G37*
G36*
X717602D02*
X717550D01*
Y336550D01*
X726320D01*
Y336602D01*
X725636Y339155D01*
X724314Y341445D01*
X722445Y343314D01*
X720155Y344636D01*
X717602Y345320D01*
D02*
G37*
G36*
X715010D02*
X714958D01*
X712405Y344636D01*
X710115Y343314D01*
X708246Y341445D01*
X706924Y339155D01*
X706240Y336602D01*
Y336550D01*
X715010D01*
Y345320D01*
D02*
G37*
G36*
X1174040Y343796D02*
X1173988D01*
Y335026D01*
X1182758D01*
Y335078D01*
X1182074Y337631D01*
X1180752Y339921D01*
X1178883Y341790D01*
X1176593Y343112D01*
X1174040Y343796D01*
D02*
G37*
G36*
X1171448D02*
X1171396D01*
X1168843Y343112D01*
X1166553Y341790D01*
X1164684Y339921D01*
X1163362Y337631D01*
X1162678Y335078D01*
Y335026D01*
X1171448D01*
Y343796D01*
D02*
G37*
G36*
X1462920Y334010D02*
X1454150D01*
Y325240D01*
X1454202D01*
X1456755Y325924D01*
X1459045Y327246D01*
X1460914Y329115D01*
X1462236Y331405D01*
X1462920Y333958D01*
Y334010D01*
D02*
G37*
G36*
X1451610D02*
X1442840D01*
Y333958D01*
X1443524Y331405D01*
X1444846Y329115D01*
X1446715Y327246D01*
X1449005Y325924D01*
X1451558Y325240D01*
X1451610D01*
Y334010D01*
D02*
G37*
G36*
X1437520Y345320D02*
X1417440D01*
Y325240D01*
X1437520D01*
Y345320D01*
D02*
G37*
G36*
X1361320Y334010D02*
X1352550D01*
Y325240D01*
X1352602D01*
X1355155Y325924D01*
X1357445Y327246D01*
X1359314Y329115D01*
X1360636Y331405D01*
X1361320Y333958D01*
Y334010D01*
D02*
G37*
G36*
X1350010D02*
X1341240D01*
Y333958D01*
X1341924Y331405D01*
X1343246Y329115D01*
X1345115Y327246D01*
X1347405Y325924D01*
X1349958Y325240D01*
X1350010D01*
Y334010D01*
D02*
G37*
G36*
X1335920Y345320D02*
X1315840D01*
Y325240D01*
X1335920D01*
Y345320D01*
D02*
G37*
G36*
X1274960Y334010D02*
X1266190D01*
Y325240D01*
X1266242D01*
X1268795Y325924D01*
X1271085Y327246D01*
X1272954Y329115D01*
X1274276Y331405D01*
X1274960Y333958D01*
Y334010D01*
D02*
G37*
G36*
X1263650D02*
X1254880D01*
Y333958D01*
X1255564Y331405D01*
X1256886Y329115D01*
X1258755Y327246D01*
X1261045Y325924D01*
X1263598Y325240D01*
X1263650D01*
Y334010D01*
D02*
G37*
G36*
X1249560Y345320D02*
X1229480D01*
Y325240D01*
X1249560D01*
Y345320D01*
D02*
G37*
G36*
X1046360Y334010D02*
X1037590D01*
Y325240D01*
X1037642D01*
X1040195Y325924D01*
X1042485Y327246D01*
X1044354Y329115D01*
X1045676Y331405D01*
X1046360Y333958D01*
Y334010D01*
D02*
G37*
G36*
X1035050D02*
X1026280D01*
Y333958D01*
X1026964Y331405D01*
X1028286Y329115D01*
X1030155Y327246D01*
X1032445Y325924D01*
X1034998Y325240D01*
X1035050D01*
Y334010D01*
D02*
G37*
G36*
X1020960Y345320D02*
X1000880D01*
Y325240D01*
X1020960D01*
Y345320D01*
D02*
G37*
G36*
X939680Y334010D02*
X930910D01*
Y325240D01*
X930962D01*
X933515Y325924D01*
X935805Y327246D01*
X937674Y329115D01*
X938996Y331405D01*
X939680Y333958D01*
Y334010D01*
D02*
G37*
G36*
X928370D02*
X919600D01*
Y333958D01*
X920284Y331405D01*
X921606Y329115D01*
X923475Y327246D01*
X925765Y325924D01*
X928318Y325240D01*
X928370D01*
Y334010D01*
D02*
G37*
G36*
X914280Y345320D02*
X894200D01*
Y325240D01*
X914280D01*
Y345320D01*
D02*
G37*
G36*
X817760D02*
X797680D01*
Y325240D01*
X817760D01*
Y345320D01*
D02*
G37*
G36*
X783642D02*
X780998D01*
X778445Y344636D01*
X776155Y343314D01*
X774286Y341445D01*
X772964Y339155D01*
X772280Y336602D01*
Y333958D01*
X772964Y331405D01*
X774286Y329115D01*
X776155Y327246D01*
X778445Y325924D01*
X780998Y325240D01*
X783642D01*
X786195Y325924D01*
X788485Y327246D01*
X790354Y329115D01*
X791676Y331405D01*
X792360Y333958D01*
Y336602D01*
X791676Y339155D01*
X790354Y341445D01*
X788485Y343314D01*
X786195Y344636D01*
X783642Y345320D01*
D02*
G37*
G36*
X726320Y334010D02*
X717550D01*
Y325240D01*
X717602D01*
X720155Y325924D01*
X722445Y327246D01*
X724314Y329115D01*
X725636Y331405D01*
X726320Y333958D01*
Y334010D01*
D02*
G37*
G36*
X715010D02*
X706240D01*
Y333958D01*
X706924Y331405D01*
X708246Y329115D01*
X710115Y327246D01*
X712405Y325924D01*
X714958Y325240D01*
X715010D01*
Y334010D01*
D02*
G37*
G36*
X700920Y345320D02*
X680840D01*
Y325240D01*
X700920D01*
Y345320D01*
D02*
G37*
G36*
X1182758Y332486D02*
X1173988D01*
Y323716D01*
X1174040D01*
X1176593Y324400D01*
X1178883Y325722D01*
X1180752Y327591D01*
X1182074Y329881D01*
X1182758Y332434D01*
Y332486D01*
D02*
G37*
G36*
X1171448D02*
X1162678D01*
Y332434D01*
X1163362Y329881D01*
X1164684Y327591D01*
X1166553Y325722D01*
X1168843Y324400D01*
X1171396Y323716D01*
X1171448D01*
Y332486D01*
D02*
G37*
G36*
X1157358Y343796D02*
X1137278D01*
Y323716D01*
X1157358D01*
Y343796D01*
D02*
G37*
G36*
X1550722Y340240D02*
X1548078D01*
X1545525Y339556D01*
X1543235Y338234D01*
X1541366Y336365D01*
X1540044Y334075D01*
X1539360Y331522D01*
Y328878D01*
X1540044Y326325D01*
X1541366Y324035D01*
X1543235Y322166D01*
X1545525Y320844D01*
X1548078Y320160D01*
X1550722D01*
X1553275Y320844D01*
X1555565Y322166D01*
X1557434Y324035D01*
X1558756Y326325D01*
X1559440Y328878D01*
Y331522D01*
X1558756Y334075D01*
X1557434Y336365D01*
X1555565Y338234D01*
X1553275Y339556D01*
X1550722Y340240D01*
D02*
G37*
G36*
X218099Y339090D02*
X217170D01*
Y312420D01*
X243840D01*
Y313349D01*
X243152Y317693D01*
X241793Y321875D01*
X239796Y325794D01*
X237211Y329352D01*
X234102Y332461D01*
X230544Y335046D01*
X226625Y337043D01*
X222443Y338402D01*
X218099Y339090D01*
D02*
G37*
G36*
X214630D02*
X213701D01*
X209357Y338402D01*
X205175Y337043D01*
X201256Y335046D01*
X197698Y332461D01*
X194589Y329352D01*
X192004Y325794D01*
X190007Y321875D01*
X188648Y317693D01*
X187960Y313349D01*
Y312420D01*
X214630D01*
Y339090D01*
D02*
G37*
G36*
X1611630Y335280D02*
X1584960D01*
Y334351D01*
X1585648Y330007D01*
X1587007Y325825D01*
X1589004Y321906D01*
X1591589Y318348D01*
X1594698Y315239D01*
X1598256Y312654D01*
X1602175Y310657D01*
X1606357Y309298D01*
X1610701Y308610D01*
X1611630D01*
Y335280D01*
D02*
G37*
G36*
X243840Y309880D02*
X217170D01*
Y283210D01*
X218099D01*
X222443Y283898D01*
X226625Y285257D01*
X230544Y287254D01*
X234102Y289839D01*
X237211Y292948D01*
X239796Y296506D01*
X241793Y300425D01*
X243152Y304607D01*
X243840Y308951D01*
Y309880D01*
D02*
G37*
G36*
X214630D02*
X187960D01*
Y308951D01*
X188648Y304607D01*
X190007Y300425D01*
X192004Y296506D01*
X194589Y292948D01*
X197698Y289839D01*
X201256Y287254D01*
X205175Y285257D01*
X209357Y283898D01*
X213701Y283210D01*
X214630D01*
Y309880D01*
D02*
G37*
%LPD*%
G36*
X807720Y1178560D02*
X848360Y1137920D01*
X1285240D01*
X1356360Y1066800D01*
Y990600D01*
X1354617Y988110D01*
X1319790D01*
X1319540Y988060D01*
X1319285D01*
X1319049Y987962D01*
X1318799Y987913D01*
X1318587Y987771D01*
X1318351Y987673D01*
X1318170Y987493D01*
X1317959Y987351D01*
X1317817Y987139D01*
X1317636Y986959D01*
X1317539Y986723D01*
X1317397Y986511D01*
X1317347Y986261D01*
X1317250Y986025D01*
X1317097Y985259D01*
X1314450Y985608D01*
X1306830D01*
X1304183Y985259D01*
X1304030Y986025D01*
X1303933Y986261D01*
X1303883Y986511D01*
X1303741Y986723D01*
X1303644Y986959D01*
X1303463Y987139D01*
X1303322Y987351D01*
X1303109Y987493D01*
X1302929Y987673D01*
X1302693Y987771D01*
X1302481Y987913D01*
X1302231Y987962D01*
X1301996Y988060D01*
X1301741D01*
X1301490Y988110D01*
X1259840D01*
X1258849Y987913D01*
X1258009Y987351D01*
X1257447Y986511D01*
X1257250Y985520D01*
Y925633D01*
X1250843Y919225D01*
X1250270Y919342D01*
X1249549Y919728D01*
X1249130Y921837D01*
X1247795Y923835D01*
X1245797Y925170D01*
X1245731Y925183D01*
Y926477D01*
X1245797Y926490D01*
X1247795Y927825D01*
X1249130Y929823D01*
X1249346Y930910D01*
X1234440D01*
X1219534D01*
X1219750Y929823D01*
X1221085Y927825D01*
X1223083Y926490D01*
X1223149Y926477D01*
Y925183D01*
X1223083Y925170D01*
X1221085Y923835D01*
X1219750Y921837D01*
X1219534Y920750D01*
X1234440D01*
Y918210D01*
X1219534D01*
X1219750Y917123D01*
X1220722Y915670D01*
X1220059Y914400D01*
X1210893D01*
Y941684D01*
X1212467Y942592D01*
X1214122Y944247D01*
X1215292Y946275D01*
X1215898Y948536D01*
Y950876D01*
X1215292Y953137D01*
X1214122Y955165D01*
X1212467Y956820D01*
X1210439Y957990D01*
X1208684Y958460D01*
X1208211Y959784D01*
X1209743Y961315D01*
X1219853D01*
X1220726Y959803D01*
X1222363Y958166D01*
X1224367Y957009D01*
X1226603Y956410D01*
X1228917D01*
X1231153Y957009D01*
X1233157Y958166D01*
X1234794Y959803D01*
X1235951Y961807D01*
X1236550Y964043D01*
Y966357D01*
X1235951Y968593D01*
X1234794Y970597D01*
X1233157Y972234D01*
X1231153Y973391D01*
X1228917Y973990D01*
X1226603D01*
X1224367Y973391D01*
X1222363Y972234D01*
X1220726Y970597D01*
X1219853Y969085D01*
X1208134D01*
X1206647Y968789D01*
X1205387Y967947D01*
X1194101Y956661D01*
X1193259Y955401D01*
X1192963Y953914D01*
Y944092D01*
X1193259Y942605D01*
X1194101Y941345D01*
X1196154Y939292D01*
X1195528Y938122D01*
X1194440Y938338D01*
X1176440D01*
X1174083Y937869D01*
X1173155Y937249D01*
X1172052Y938040D01*
X1172210Y938630D01*
Y940970D01*
X1171604Y943231D01*
X1170434Y945259D01*
X1168779Y946914D01*
X1166751Y948084D01*
X1164490Y948690D01*
X1162150D01*
X1159889Y948084D01*
X1157861Y946914D01*
X1156206Y945259D01*
X1155036Y943231D01*
X1154430Y940970D01*
Y938630D01*
X1155036Y936369D01*
X1156206Y934341D01*
X1157861Y932686D01*
X1159889Y931516D01*
X1161448Y931098D01*
X1163113Y929433D01*
X1164373Y928591D01*
X1165860Y928295D01*
X1171771D01*
X1172085Y927825D01*
X1174083Y926490D01*
X1174149Y926477D01*
Y925183D01*
X1174083Y925170D01*
X1172085Y923835D01*
X1170750Y921837D01*
X1170282Y919480D01*
X1170750Y917123D01*
X1171721Y915670D01*
X1171059Y914400D01*
X1158654D01*
X1151338Y921716D01*
X1151790Y923403D01*
Y925717D01*
X1151191Y927953D01*
X1150034Y929957D01*
X1148397Y931594D01*
X1146393Y932751D01*
X1144157Y933350D01*
X1141843D01*
X1139607Y932751D01*
X1137603Y931594D01*
X1135966Y929957D01*
X1134809Y927953D01*
X1134210Y925717D01*
Y923403D01*
X1134809Y921167D01*
X1135966Y919163D01*
X1137603Y917526D01*
X1139607Y916369D01*
X1141843Y915770D01*
X1144157D01*
X1145350Y916090D01*
X1145743Y915670D01*
X1145193Y914400D01*
X1111537D01*
X1111488Y914500D01*
X1112279Y915770D01*
X1126790D01*
Y933350D01*
X1109210D01*
Y917952D01*
X1108037Y917466D01*
X1073711Y951791D01*
X1072871Y952353D01*
X1071880Y952550D01*
X1045110D01*
X1044542Y952437D01*
X1044511Y952553D01*
X1043354Y954557D01*
X1041717Y956194D01*
X1039713Y957351D01*
X1037477Y957950D01*
X1035163D01*
X1032927Y957351D01*
X1030923Y956194D01*
X1029286Y954557D01*
X1028129Y952553D01*
X1028098Y952437D01*
X1027530Y952550D01*
X1004470D01*
Y957950D01*
X986890D01*
Y952550D01*
X881430D01*
Y995680D01*
X881233Y996671D01*
X880671Y997511D01*
X879831Y998073D01*
X878840Y998270D01*
X815048D01*
X814422Y999540D01*
X815325Y1000716D01*
X816348Y1003188D01*
X816531Y1004570D01*
X788749D01*
X788932Y1003188D01*
X789955Y1000716D01*
X790858Y999540D01*
X790232Y998270D01*
X762000D01*
X761009Y998073D01*
X760169Y997511D01*
X759607Y996671D01*
X759410Y995680D01*
Y930713D01*
X758083Y929385D01*
X757510Y929502D01*
X756789Y929888D01*
X756370Y931997D01*
X755035Y933995D01*
X753037Y935330D01*
X752971Y935343D01*
Y936637D01*
X753037Y936650D01*
X755035Y937985D01*
X756370Y939983D01*
X756586Y941070D01*
X741680D01*
X726774D01*
X726990Y939983D01*
X728325Y937985D01*
X730323Y936650D01*
X730389Y936637D01*
Y935343D01*
X730323Y935330D01*
X728325Y933995D01*
X726990Y931997D01*
X726774Y930910D01*
X741680D01*
Y928370D01*
X726774D01*
X726990Y927283D01*
X728325Y925285D01*
X730323Y923951D01*
X730389Y923937D01*
Y922643D01*
X730323Y922629D01*
X728325Y921295D01*
X726990Y919297D01*
X726522Y916940D01*
X726774Y915670D01*
X725732Y914400D01*
X723292D01*
X720523Y917169D01*
Y973751D01*
X771760Y1024988D01*
X790821D01*
X791584Y1023994D01*
X793706Y1022365D01*
X796178Y1021341D01*
X798830Y1020992D01*
X806450D01*
X809102Y1021341D01*
X811574Y1022365D01*
X813696Y1023994D01*
X815325Y1026116D01*
X816348Y1028588D01*
X816698Y1031240D01*
X816348Y1033892D01*
X815325Y1036364D01*
X813696Y1038486D01*
X811574Y1040115D01*
X809102Y1041139D01*
X806450Y1041488D01*
X798830D01*
X796178Y1041139D01*
X793706Y1040115D01*
X791584Y1038486D01*
X789955Y1036364D01*
X788932Y1033892D01*
X788782Y1032757D01*
X770151D01*
X768664Y1032462D01*
X767404Y1031620D01*
X713891Y978107D01*
X713049Y976847D01*
X712753Y975360D01*
Y975080D01*
X711580Y974594D01*
X708578Y977596D01*
X709030Y979283D01*
Y981597D01*
X708431Y983833D01*
X707274Y985837D01*
X705637Y987474D01*
X703633Y988631D01*
X701397Y989230D01*
X699083D01*
X696847Y988631D01*
X694843Y987474D01*
X693206Y985837D01*
X692049Y983833D01*
X691450Y981597D01*
Y979283D01*
X692049Y977047D01*
X693206Y975043D01*
X694843Y973406D01*
X696847Y972249D01*
X699083Y971650D01*
X701397D01*
X703084Y972102D01*
X707315Y967871D01*
Y946965D01*
X706100Y946597D01*
X706035Y946695D01*
X704037Y948029D01*
X701680Y948498D01*
X683680D01*
X683414Y948445D01*
X682661Y949489D01*
X682754Y949581D01*
X683924Y951609D01*
X684530Y953870D01*
Y956210D01*
X683924Y958471D01*
X682754Y960499D01*
X681099Y962154D01*
X679071Y963324D01*
X676810Y963930D01*
X674470D01*
X672209Y963324D01*
X670181Y962154D01*
X668526Y960499D01*
X667356Y958471D01*
X666750Y956210D01*
Y953870D01*
X667356Y951609D01*
X668526Y949581D01*
X670181Y947926D01*
X672209Y946756D01*
X674342Y946184D01*
X677632Y942894D01*
X677522Y942340D01*
X677990Y939983D01*
X679325Y937985D01*
X681323Y936650D01*
X681389Y936637D01*
Y935343D01*
X681323Y935330D01*
X679325Y933995D01*
X677990Y931997D01*
X677522Y929640D01*
X677990Y927283D01*
X679325Y925285D01*
X681323Y923951D01*
X681389Y923937D01*
Y922643D01*
X681323Y922629D01*
X679325Y921295D01*
X679011Y920825D01*
X677049D01*
X660918Y936956D01*
X661370Y938643D01*
Y940957D01*
X660771Y943193D01*
X659614Y945197D01*
X657977Y946834D01*
X655973Y947991D01*
X653737Y948590D01*
X651423D01*
X649187Y947991D01*
X647183Y946834D01*
X645546Y945197D01*
X644389Y943193D01*
X643790Y940957D01*
Y938643D01*
X644389Y936407D01*
X645546Y934403D01*
X647183Y932766D01*
X649187Y931609D01*
X651423Y931010D01*
X653737D01*
X655424Y931462D01*
X671313Y915573D01*
X670827Y914400D01*
X555060D01*
Y926620D01*
X514980D01*
Y914400D01*
X495350D01*
Y990600D01*
X495153Y991591D01*
X494591Y992431D01*
X484431Y1002591D01*
X483591Y1003153D01*
X482600Y1003350D01*
X444208D01*
X443582Y1004620D01*
X444485Y1005796D01*
X445508Y1008268D01*
X445690Y1009650D01*
X417910D01*
X418092Y1008268D01*
X419115Y1005796D01*
X420018Y1004620D01*
X419392Y1003350D01*
X360680D01*
X359689Y1003153D01*
X358849Y1002591D01*
X358287Y1001751D01*
X358090Y1000760D01*
Y962861D01*
X356820Y962182D01*
X355897Y962800D01*
X353540Y963268D01*
X345810D01*
Y957110D01*
X344540D01*
Y955840D01*
X329634D01*
X329850Y954753D01*
X331185Y952755D01*
X333183Y951420D01*
X333249Y951407D01*
Y950113D01*
X333183Y950099D01*
X331185Y948765D01*
X329850Y946767D01*
X329634Y945680D01*
X344540D01*
Y943140D01*
X329634D01*
X329850Y942053D01*
X331185Y940055D01*
X333183Y938720D01*
X333249Y938707D01*
Y937413D01*
X333183Y937400D01*
X331185Y936065D01*
X329850Y934067D01*
X329506Y932334D01*
X328148Y931895D01*
X324977Y935067D01*
Y984963D01*
X372449Y1032435D01*
X418602D01*
X419115Y1031196D01*
X420744Y1029074D01*
X422866Y1027445D01*
X425338Y1026422D01*
X427990Y1026072D01*
X435610D01*
X438262Y1026422D01*
X440734Y1027445D01*
X442856Y1029074D01*
X444485Y1031196D01*
X445508Y1033668D01*
X445858Y1036320D01*
X445508Y1038972D01*
X444485Y1041444D01*
X442856Y1043566D01*
X440734Y1045195D01*
X438262Y1046218D01*
X435610Y1046568D01*
X427990D01*
X425338Y1046218D01*
X422866Y1045195D01*
X420744Y1043566D01*
X419115Y1041444D01*
X418602Y1040205D01*
X393337D01*
X392891Y1041475D01*
X393878Y1043184D01*
X394421Y1045210D01*
X377419D01*
X377962Y1043184D01*
X378949Y1041475D01*
X378503Y1040205D01*
X374460D01*
Y1055020D01*
X357380D01*
Y1037940D01*
X365307D01*
X365793Y1036767D01*
X322570Y993544D01*
X321403Y994044D01*
X321847Y1011735D01*
X322351Y1012607D01*
X322950Y1014843D01*
Y1017157D01*
X322351Y1019393D01*
X322053Y1019909D01*
X322530Y1038910D01*
X259080Y1102360D01*
X167640D01*
Y1168400D01*
X190855Y1191615D01*
X192378Y1191341D01*
X194589Y1188298D01*
X197698Y1185189D01*
X201256Y1182604D01*
X205175Y1180607D01*
X209357Y1179248D01*
X213701Y1178560D01*
X218099D01*
X222443Y1179248D01*
X226625Y1180607D01*
X230544Y1182604D01*
X234102Y1185189D01*
X237211Y1188298D01*
X239796Y1191856D01*
X241793Y1195775D01*
X243152Y1199957D01*
X243840Y1204301D01*
Y1208699D01*
X243152Y1213043D01*
X241793Y1217225D01*
X239796Y1221144D01*
X237211Y1224702D01*
X234102Y1227811D01*
X231059Y1230022D01*
X230785Y1231545D01*
X248920Y1249680D01*
X807720D01*
Y1178560D01*
D02*
G37*
G36*
X1071880Y1224280D02*
Y1140510D01*
X849433D01*
X810310Y1179633D01*
Y1249680D01*
X1046480D01*
X1071880Y1224280D01*
D02*
G37*
G36*
X492760Y990600D02*
Y772160D01*
X467360Y746760D01*
X365760D01*
X340360Y772160D01*
Y793084D01*
X340448Y793750D01*
Y801370D01*
X340360Y802036D01*
Y806036D01*
X363727Y829403D01*
X364569Y830663D01*
X364865Y832150D01*
Y837305D01*
X365760Y838200D01*
Y874848D01*
X359698Y880910D01*
X359230Y883267D01*
X357895Y885265D01*
X355897Y886600D01*
X355831Y886613D01*
Y887907D01*
X355897Y887920D01*
X357895Y889255D01*
X359230Y891253D01*
X359698Y893610D01*
X359230Y895967D01*
X357895Y897965D01*
X355897Y899299D01*
X355831Y899313D01*
Y900607D01*
X355897Y900620D01*
X357895Y901955D01*
X359230Y903953D01*
X359698Y906310D01*
X359230Y908667D01*
X357895Y910665D01*
X355897Y912000D01*
X355831Y912013D01*
Y913307D01*
X355897Y913320D01*
X357895Y914655D01*
X359230Y916653D01*
X359698Y919010D01*
X359230Y921367D01*
X357895Y923365D01*
X355897Y924699D01*
X355831Y924713D01*
Y926007D01*
X355897Y926020D01*
X357895Y927355D01*
X359230Y929353D01*
X359446Y930440D01*
X344540D01*
Y932980D01*
X359446D01*
X359230Y934067D01*
X357895Y936065D01*
X355897Y937400D01*
X355831Y937413D01*
Y938707D01*
X355897Y938720D01*
X357895Y940055D01*
X359230Y942053D01*
X359571Y943771D01*
X360680Y944880D01*
Y1000760D01*
X427324D01*
X427990Y1000672D01*
X435610D01*
X436276Y1000760D01*
X482600D01*
X492760Y990600D01*
D02*
G37*
G36*
X878840Y952370D02*
X878753Y952353D01*
X878746Y952348D01*
X878737Y952346D01*
X878327Y952067D01*
X877913Y951791D01*
X877908Y951784D01*
X877900Y951779D01*
X877009Y950874D01*
X877004Y950867D01*
X876996Y950862D01*
X876725Y950444D01*
X876453Y950030D01*
X876451Y950022D01*
X876446Y950014D01*
X876356Y949525D01*
X876263Y949038D01*
X876265Y949029D01*
X876263Y949020D01*
X878497Y786891D01*
X877235Y786272D01*
X875142Y787139D01*
X872490Y787488D01*
X869838Y787139D01*
X867366Y786115D01*
X865244Y784486D01*
X863615Y782364D01*
X862591Y779892D01*
X862242Y777240D01*
Y769620D01*
X862591Y766968D01*
X863615Y764496D01*
X865244Y762374D01*
X867366Y760745D01*
X869838Y759722D01*
X872490Y759372D01*
X874708Y759664D01*
X875302Y758462D01*
X868680Y751840D01*
X746760Y751840D01*
Y767684D01*
X746848Y768350D01*
Y775970D01*
X746760Y776636D01*
Y781906D01*
X760737Y795883D01*
X761579Y797143D01*
X761875Y798630D01*
Y862530D01*
X761579Y864017D01*
X760737Y865277D01*
X757906Y868108D01*
X756920Y868767D01*
Y899160D01*
X762000Y904240D01*
X756920Y909320D01*
X753949D01*
X753037Y909930D01*
X752971Y909943D01*
Y911237D01*
X753037Y911251D01*
X755035Y912585D01*
X756370Y914583D01*
X756586Y915670D01*
X741680D01*
Y918210D01*
X756586D01*
X756370Y919297D01*
X755035Y921295D01*
X753037Y922629D01*
X752971Y922643D01*
Y923937D01*
X753037Y923951D01*
X755035Y925285D01*
X757645D01*
X762000Y929640D01*
Y995680D01*
X798164D01*
X798830Y995592D01*
X806450D01*
X807116Y995680D01*
X878840D01*
Y952370D01*
D02*
G37*
G36*
X1374196Y756920D02*
X1330960D01*
X1321549D01*
X1321466Y758190D01*
X1323452Y758452D01*
X1325924Y759475D01*
X1328046Y761104D01*
X1329675Y763226D01*
X1330699Y765698D01*
X1331048Y768350D01*
Y770890D01*
X1320800D01*
X1310552D01*
Y768350D01*
X1310901Y765698D01*
X1311925Y763226D01*
X1313554Y761104D01*
X1315676Y759475D01*
X1318148Y758452D01*
X1320134Y758190D01*
X1320051Y756920D01*
X1296149D01*
X1296066Y758190D01*
X1298052Y758452D01*
X1300524Y759475D01*
X1302646Y761104D01*
X1304275Y763226D01*
X1305298Y765698D01*
X1305648Y768350D01*
Y775970D01*
X1305298Y778622D01*
X1304275Y781094D01*
X1302646Y783216D01*
X1300524Y784845D01*
X1298052Y785869D01*
X1295400Y786218D01*
X1292748Y785869D01*
X1290276Y784845D01*
X1288154Y783216D01*
X1286525Y781094D01*
X1285502Y778622D01*
X1285152Y775970D01*
Y768350D01*
X1285502Y765698D01*
X1286525Y763226D01*
X1288154Y761104D01*
X1290276Y759475D01*
X1292748Y758452D01*
X1294734Y758190D01*
X1294651Y756920D01*
X1255509Y756920D01*
X1255426Y758190D01*
X1257412Y758452D01*
X1259884Y759475D01*
X1262006Y761104D01*
X1263635Y763226D01*
X1264659Y765698D01*
X1265008Y768350D01*
Y775970D01*
X1264659Y778622D01*
X1263635Y781094D01*
X1262006Y783216D01*
X1259884Y784845D01*
X1257412Y785869D01*
X1254760Y786218D01*
X1252108Y785869D01*
X1249636Y784845D01*
X1247514Y783216D01*
X1245885Y781094D01*
X1244862Y778622D01*
X1244512Y775970D01*
Y768350D01*
X1244862Y765698D01*
X1245885Y763226D01*
X1247514Y761104D01*
X1249636Y759475D01*
X1252108Y758452D01*
X1254094Y758190D01*
X1254011Y756920D01*
X1230109D01*
X1230026Y758190D01*
X1232012Y758452D01*
X1234484Y759475D01*
X1236606Y761104D01*
X1238235Y763226D01*
X1239258Y765698D01*
X1239608Y768350D01*
Y770890D01*
X1229360D01*
Y772160D01*
X1228090D01*
Y786050D01*
X1226708Y785869D01*
X1224236Y784845D01*
X1222114Y783216D01*
X1220485Y781094D01*
X1220470Y781057D01*
X1219200Y781310D01*
Y827626D01*
X1220877Y829303D01*
X1221719Y830563D01*
X1222015Y832050D01*
Y836949D01*
X1223285Y837550D01*
X1225440Y837122D01*
X1243440D01*
X1245797Y837590D01*
X1247795Y838925D01*
X1248109Y839395D01*
X1250402D01*
X1250950Y838847D01*
Y837030D01*
X1251556Y834769D01*
X1252726Y832741D01*
X1254381Y831086D01*
X1256409Y829916D01*
X1258670Y829310D01*
X1261010D01*
X1263271Y829916D01*
X1265299Y831086D01*
X1266954Y832741D01*
X1268124Y834769D01*
X1268730Y837030D01*
Y839370D01*
X1268124Y841631D01*
X1266954Y843659D01*
X1265299Y845314D01*
X1263271Y846484D01*
X1261010Y847090D01*
X1258670D01*
X1256409Y846484D01*
X1255072Y845713D01*
X1254758Y846027D01*
X1253497Y846869D01*
X1252011Y847165D01*
X1248109D01*
X1247795Y847635D01*
X1245797Y848969D01*
X1245731Y848983D01*
Y850277D01*
X1245797Y850291D01*
X1247795Y851625D01*
X1249130Y853623D01*
X1249598Y855980D01*
X1249130Y858337D01*
X1247795Y860335D01*
X1245797Y861669D01*
X1245731Y861683D01*
Y862977D01*
X1245797Y862990D01*
X1247795Y864325D01*
X1249130Y866323D01*
X1249598Y868680D01*
X1249130Y871037D01*
X1247795Y873035D01*
X1245797Y874370D01*
X1245731Y874383D01*
Y875677D01*
X1245797Y875691D01*
X1247795Y877025D01*
X1249130Y879023D01*
X1249598Y881380D01*
X1249130Y883737D01*
X1247795Y885735D01*
X1245797Y887069D01*
X1245731Y887083D01*
Y888377D01*
X1245797Y888391D01*
X1247795Y889725D01*
X1249130Y891723D01*
X1249598Y894080D01*
X1249130Y896437D01*
X1247795Y898435D01*
X1245797Y899770D01*
X1245731Y899783D01*
Y901077D01*
X1245797Y901090D01*
X1247795Y902425D01*
X1249130Y904423D01*
X1249346Y905510D01*
X1234440D01*
Y908050D01*
X1249346D01*
X1249130Y909137D01*
X1247795Y911135D01*
X1245797Y912469D01*
X1245731Y912483D01*
Y913777D01*
X1245797Y913791D01*
X1247795Y915125D01*
X1250405D01*
X1259840Y924560D01*
Y985520D01*
X1301490D01*
X1301743Y984250D01*
X1301706Y984235D01*
X1299584Y982606D01*
X1297955Y980484D01*
X1296931Y978012D01*
X1296750Y976630D01*
X1324530D01*
X1324348Y978012D01*
X1323325Y980484D01*
X1321696Y982606D01*
X1319574Y984235D01*
X1319537Y984250D01*
X1319790Y985520D01*
X1374196D01*
Y756920D01*
D02*
G37*
G36*
X1107440Y914400D02*
Y859696D01*
X1103931Y856187D01*
X1103089Y854927D01*
X1102793Y853440D01*
Y825246D01*
X1103089Y823759D01*
X1103931Y822499D01*
X1107440Y818990D01*
Y731520D01*
X1082040Y706120D01*
X882200D01*
X881394Y764568D01*
X882389Y766968D01*
X882738Y769620D01*
Y777240D01*
X882389Y779892D01*
X881365Y782364D01*
X881145Y782650D01*
X878852Y949056D01*
X879744Y949960D01*
X986890D01*
Y940370D01*
X1004470D01*
Y949960D01*
X1027530D01*
Y948003D01*
X1028129Y945767D01*
X1029286Y943763D01*
X1030923Y942126D01*
X1032927Y940969D01*
X1035163Y940370D01*
X1037477D01*
X1039713Y940969D01*
X1041717Y942126D01*
X1043354Y943763D01*
X1044511Y945767D01*
X1045110Y948003D01*
Y949960D01*
X1071880D01*
X1107440Y914400D01*
D02*
G37*
G36*
X1158033Y904033D02*
X1159293Y903191D01*
X1160780Y902895D01*
X1171771D01*
X1172085Y902425D01*
X1174083Y901090D01*
X1174149Y901077D01*
Y899783D01*
X1174083Y899770D01*
X1172085Y898435D01*
X1171771Y897965D01*
X1139071D01*
X1137584Y897669D01*
X1136396Y896875D01*
X1135424Y897621D01*
X1132952Y898644D01*
X1130300Y898994D01*
X1122680D01*
X1120028Y898644D01*
X1117556Y897621D01*
X1115434Y895992D01*
X1113805Y893870D01*
X1112782Y891398D01*
X1112432Y888746D01*
X1112782Y886094D01*
X1113805Y883622D01*
X1115434Y881500D01*
X1117556Y879871D01*
X1120028Y878848D01*
X1122680Y878498D01*
X1130300D01*
X1132952Y878848D01*
X1135424Y879871D01*
X1137546Y881500D01*
X1139175Y883622D01*
X1140199Y886094D01*
X1140548Y888746D01*
X1140515Y888994D01*
X1141585Y890195D01*
X1171771D01*
X1172085Y889725D01*
X1174083Y888391D01*
X1174149Y888377D01*
Y887083D01*
X1174083Y887069D01*
X1172085Y885735D01*
X1170750Y883737D01*
X1170282Y881380D01*
X1170750Y879023D01*
X1172085Y877025D01*
X1174083Y875691D01*
X1174149Y875677D01*
Y874383D01*
X1174083Y874370D01*
X1172085Y873035D01*
X1171771Y872565D01*
X1165247D01*
X1164338Y874139D01*
X1162683Y875794D01*
X1160655Y876964D01*
X1158494Y877543D01*
Y868680D01*
Y859817D01*
X1160655Y860396D01*
X1162683Y861566D01*
X1164338Y863221D01*
X1165247Y864795D01*
X1171771D01*
X1172085Y864325D01*
X1174083Y862990D01*
X1174149Y862977D01*
Y861683D01*
X1174083Y861669D01*
X1172085Y860335D01*
X1170750Y858337D01*
X1170282Y855980D01*
X1170392Y855426D01*
X1166119Y851153D01*
X1164657Y851301D01*
X1164084Y852295D01*
X1162429Y853950D01*
X1160401Y855120D01*
X1158140Y855726D01*
X1155800D01*
X1153539Y855120D01*
X1151511Y853950D01*
X1149856Y852295D01*
X1148686Y850267D01*
X1148080Y848006D01*
Y845666D01*
X1148686Y843405D01*
X1149856Y841377D01*
X1151511Y839722D01*
X1153539Y838552D01*
X1155800Y837946D01*
X1158140D01*
X1160401Y838552D01*
X1162429Y839722D01*
X1164084Y841377D01*
X1164993Y842951D01*
X1167296D01*
X1168783Y843247D01*
X1169056Y843429D01*
X1169251Y843406D01*
X1170380Y842787D01*
X1170750Y840923D01*
X1172085Y838925D01*
X1174083Y837590D01*
X1176440Y837122D01*
X1193306D01*
X1193832Y835852D01*
X1190159Y832179D01*
X1140577D01*
X1139792Y833242D01*
X1140445Y834092D01*
X1141469Y836564D01*
X1141818Y839216D01*
X1141469Y841868D01*
X1140445Y844340D01*
X1138816Y846462D01*
X1136694Y848091D01*
X1134222Y849115D01*
X1131570Y849464D01*
X1123950D01*
X1121298Y849115D01*
X1118826Y848091D01*
X1116704Y846462D01*
X1115075Y844340D01*
X1114052Y841868D01*
X1113702Y839216D01*
X1114052Y836564D01*
X1115075Y834092D01*
X1116704Y831970D01*
X1118826Y830341D01*
X1121298Y829317D01*
X1123950Y828968D01*
X1131570D01*
X1132421Y829080D01*
X1132460Y829022D01*
X1135935Y825547D01*
X1137195Y824705D01*
X1138682Y824409D01*
X1191768D01*
X1193255Y824705D01*
X1194515Y825547D01*
X1212041Y843073D01*
X1212883Y844333D01*
X1212975Y844798D01*
X1214245Y844673D01*
Y833659D01*
X1201213Y820627D01*
X1200371Y819367D01*
X1200075Y817880D01*
Y785358D01*
X1198836Y784845D01*
X1196714Y783216D01*
X1195085Y781094D01*
X1194062Y778622D01*
X1193712Y775970D01*
Y768350D01*
X1194062Y765698D01*
X1195085Y763226D01*
X1196714Y761104D01*
X1197224Y760712D01*
X1196816Y759510D01*
X1132840D01*
X1131849Y759313D01*
X1131009Y758751D01*
X1111203Y738945D01*
X1110030Y739432D01*
Y814741D01*
X1111203Y815227D01*
X1111805Y814625D01*
X1113065Y813783D01*
X1114552Y813487D01*
X1132535D01*
X1132876Y812217D01*
X1132523Y812014D01*
X1130886Y810377D01*
X1129729Y808373D01*
X1129130Y806137D01*
Y803823D01*
X1129729Y801587D01*
X1130886Y799583D01*
X1132523Y797946D01*
X1134527Y796789D01*
X1136763Y796190D01*
X1139077D01*
X1141313Y796789D01*
X1143317Y797946D01*
X1144954Y799583D01*
X1146111Y801587D01*
X1146710Y803823D01*
Y806137D01*
X1146111Y808373D01*
X1144954Y810377D01*
X1143317Y812014D01*
X1142964Y812217D01*
X1143305Y813487D01*
X1174710D01*
X1174750Y813447D01*
Y811630D01*
X1175356Y809369D01*
X1176526Y807341D01*
X1178181Y805686D01*
X1180209Y804516D01*
X1182470Y803910D01*
X1184810D01*
X1187071Y804516D01*
X1189099Y805686D01*
X1190754Y807341D01*
X1191924Y809369D01*
X1192530Y811630D01*
Y813970D01*
X1191924Y816231D01*
X1190754Y818259D01*
X1189099Y819914D01*
X1187071Y821084D01*
X1184810Y821690D01*
X1182470D01*
X1180209Y821084D01*
X1178820Y820283D01*
X1177805Y820961D01*
X1176319Y821257D01*
X1116161D01*
X1110563Y826855D01*
Y851831D01*
X1114869Y856137D01*
X1115434Y856100D01*
X1117556Y854471D01*
X1120028Y853447D01*
X1122680Y853098D01*
X1130300D01*
X1132952Y853447D01*
X1135424Y854471D01*
X1137546Y856100D01*
X1139175Y858222D01*
X1140199Y860694D01*
X1140548Y863346D01*
X1140199Y865998D01*
X1139175Y868470D01*
X1137546Y870592D01*
X1135424Y872221D01*
X1132952Y873244D01*
X1130300Y873594D01*
X1122680D01*
X1120028Y873244D01*
X1117556Y872221D01*
X1115434Y870592D01*
X1113805Y868470D01*
X1112782Y865998D01*
X1112577Y864445D01*
X1111407Y863663D01*
X1111203Y863459D01*
X1110030Y863945D01*
Y910870D01*
X1110174Y911102D01*
X1110888Y911698D01*
X1111300Y911858D01*
X1111537Y911810D01*
X1145193D01*
X1145669Y911905D01*
X1146146Y911992D01*
X1146163Y912003D01*
X1146184Y912007D01*
X1146588Y912277D01*
X1146995Y912540D01*
X1147007Y912557D01*
X1147025Y912569D01*
X1147294Y912972D01*
X1147296Y912975D01*
X1148757Y913309D01*
X1158033Y904033D01*
D02*
G37*
G36*
X329492Y919564D02*
X329382Y919010D01*
X329850Y916653D01*
X331185Y914655D01*
X333183Y913320D01*
X333249Y913307D01*
Y912013D01*
X333183Y912000D01*
X331185Y910665D01*
X330871Y910195D01*
X326658D01*
X325499Y911354D01*
X323471Y912524D01*
X321210Y913130D01*
X318870D01*
X318296Y912976D01*
X317506Y914079D01*
X317749Y914443D01*
X318045Y915930D01*
Y929216D01*
X319315Y929742D01*
X329492Y919564D01*
D02*
G37*
G36*
X670560Y908125D02*
X654050D01*
X652563Y907829D01*
X651303Y906987D01*
X647782Y903465D01*
X646542Y903979D01*
X643890Y904328D01*
X636270D01*
X633618Y903979D01*
X631146Y902955D01*
X629024Y901326D01*
X627395Y899204D01*
X626371Y896732D01*
X626022Y894080D01*
X626371Y891428D01*
X627395Y888956D01*
X629024Y886834D01*
X631146Y885205D01*
X633618Y884182D01*
X636270Y883832D01*
X643890D01*
X646542Y884182D01*
X649014Y885205D01*
X651136Y886834D01*
X652765Y888956D01*
X653789Y891428D01*
X654138Y894080D01*
X653789Y896732D01*
X653275Y897971D01*
X655659Y900355D01*
X670560D01*
Y892522D01*
X669460Y891887D01*
X668911Y892204D01*
X666650Y892810D01*
X664310D01*
X662049Y892204D01*
X660021Y891034D01*
X658366Y889379D01*
X657196Y887351D01*
X656590Y885090D01*
Y882750D01*
X657196Y880489D01*
X658366Y878461D01*
X660021Y876806D01*
X662049Y875636D01*
X664310Y875030D01*
X666650D01*
X668911Y875636D01*
X669290Y875854D01*
X670560Y875121D01*
Y872202D01*
X669460Y871567D01*
X668911Y871884D01*
X666650Y872490D01*
X664310D01*
X662049Y871884D01*
X660021Y870714D01*
X658366Y869059D01*
X657196Y867031D01*
X656590Y864770D01*
Y862430D01*
X657196Y860169D01*
X658366Y858141D01*
X660021Y856486D01*
X662049Y855316D01*
X664310Y854710D01*
X666650D01*
X668911Y855316D01*
X669460Y855633D01*
X670560Y854998D01*
Y848435D01*
X654548D01*
X654035Y849674D01*
X652406Y851796D01*
X650284Y853425D01*
X647812Y854448D01*
X645160Y854798D01*
X637540D01*
X634888Y854448D01*
X632416Y853425D01*
X630294Y851796D01*
X628665Y849674D01*
X627641Y847202D01*
X627292Y844550D01*
X627641Y841898D01*
X628665Y839426D01*
X630294Y837304D01*
X632416Y835675D01*
X634888Y834651D01*
X637540Y834302D01*
X645160D01*
X647812Y834651D01*
X650284Y835675D01*
X652406Y837304D01*
X654035Y839426D01*
X654548Y840665D01*
X670560D01*
Y826845D01*
X635847D01*
X624661Y838031D01*
Y850307D01*
X633276Y858923D01*
X633618Y858782D01*
X636270Y858432D01*
X643890D01*
X646542Y858782D01*
X649014Y859805D01*
X651136Y861434D01*
X652765Y863556D01*
X653789Y866028D01*
X654138Y868680D01*
X653789Y871332D01*
X652765Y873804D01*
X651136Y875926D01*
X649014Y877555D01*
X646542Y878578D01*
X643890Y878928D01*
X636270D01*
X633618Y878578D01*
X631146Y877555D01*
X629024Y875926D01*
X627395Y873804D01*
X626371Y871332D01*
X626022Y868680D01*
X626371Y866028D01*
X627257Y863891D01*
X618029Y854663D01*
X617187Y853403D01*
X616891Y851916D01*
Y836422D01*
X617187Y834935D01*
X618029Y833675D01*
X631491Y820213D01*
X632751Y819371D01*
X634238Y819075D01*
X670560D01*
Y706120D01*
X492760D01*
Y768497D01*
X494591Y770329D01*
X495153Y771169D01*
X495350Y772160D01*
Y911810D01*
X514980D01*
Y895350D01*
X535020D01*
X555060D01*
Y911810D01*
X670560D01*
Y908125D01*
D02*
G37*
G36*
X724943Y901761D02*
X726204Y900919D01*
X727690Y900623D01*
X727832D01*
X728325Y899885D01*
X730323Y898550D01*
X730389Y898537D01*
Y897243D01*
X730323Y897230D01*
X728325Y895895D01*
X726990Y893897D01*
X726522Y891540D01*
X726632Y890986D01*
X724831Y889185D01*
X723506D01*
X723394Y889379D01*
X721739Y891034D01*
X719711Y892204D01*
X717450Y892810D01*
X715110D01*
X712849Y892204D01*
X710821Y891034D01*
X709166Y889379D01*
X707996Y887351D01*
X707390Y885090D01*
Y883452D01*
X706120Y883067D01*
X706035Y883195D01*
X704037Y884529D01*
X703971Y884543D01*
Y885837D01*
X704037Y885851D01*
X706035Y887185D01*
X707370Y889183D01*
X707838Y891540D01*
X707370Y893897D01*
X707289Y894017D01*
X713947Y900675D01*
X714789Y901936D01*
X715085Y903422D01*
Y909960D01*
X716258Y910446D01*
X724943Y901761D01*
D02*
G37*
G36*
X1215383Y891333D02*
X1216643Y890491D01*
X1218130Y890195D01*
X1220771D01*
X1221085Y889725D01*
X1223083Y888391D01*
X1223149Y888377D01*
Y887083D01*
X1223083Y887069D01*
X1221659Y886118D01*
X1217513D01*
X1216027Y885822D01*
X1214766Y884980D01*
X1211966Y882180D01*
X1210210Y882650D01*
X1207870D01*
X1205609Y882044D01*
X1203581Y880874D01*
X1201926Y879219D01*
X1200756Y877191D01*
X1200150Y874930D01*
Y873292D01*
X1198880Y872907D01*
X1198795Y873035D01*
X1196797Y874370D01*
X1196731Y874383D01*
Y875677D01*
X1196797Y875691D01*
X1198795Y877025D01*
X1200130Y879023D01*
X1200598Y881380D01*
X1200488Y881934D01*
X1204497Y885943D01*
X1205339Y887203D01*
X1205635Y888690D01*
Y899422D01*
X1206808Y899908D01*
X1215383Y891333D01*
D02*
G37*
G36*
X726790Y880188D02*
X726522Y878840D01*
X726632Y878286D01*
X713787Y865441D01*
X712945Y864181D01*
X712649Y862694D01*
Y855811D01*
X708849Y852011D01*
X707678Y852636D01*
X707838Y853440D01*
X707370Y855797D01*
X706035Y857795D01*
X704037Y859129D01*
X703971Y859143D01*
Y860437D01*
X704037Y860451D01*
X706035Y861785D01*
X707370Y863783D01*
X707838Y866140D01*
X707370Y868497D01*
X706035Y870495D01*
X704037Y871830D01*
X703971Y871843D01*
Y873137D01*
X704037Y873150D01*
X706035Y874485D01*
X707370Y876483D01*
X707747Y878380D01*
X709080Y878610D01*
X709166Y878461D01*
X710821Y876806D01*
X712849Y875636D01*
X715110Y875030D01*
X717450D01*
X719711Y875636D01*
X721739Y876806D01*
X723394Y878461D01*
X724564Y880489D01*
X724677Y880910D01*
X725986Y881098D01*
X726790Y880188D01*
D02*
G37*
G36*
X1220319Y878172D02*
X1221085Y877025D01*
X1223083Y875691D01*
X1223149Y875677D01*
Y874383D01*
X1223083Y874370D01*
X1221085Y873035D01*
X1219750Y871037D01*
X1219282Y868680D01*
X1219392Y868126D01*
X1206547Y855281D01*
X1205705Y854021D01*
X1205409Y852534D01*
Y847429D01*
X1201788Y843808D01*
X1200410Y844226D01*
X1200130Y845637D01*
X1198795Y847635D01*
X1196797Y848969D01*
X1196731Y848983D01*
Y850277D01*
X1196797Y850291D01*
X1198795Y851625D01*
X1200130Y853623D01*
X1200598Y855980D01*
X1200130Y858337D01*
X1198795Y860335D01*
X1196797Y861669D01*
X1196731Y861683D01*
Y862977D01*
X1196797Y862990D01*
X1198795Y864325D01*
X1200130Y866323D01*
X1200507Y868220D01*
X1201840Y868450D01*
X1201926Y868301D01*
X1203581Y866646D01*
X1205609Y865476D01*
X1207870Y864870D01*
X1210210D01*
X1212471Y865476D01*
X1214499Y866646D01*
X1216154Y868301D01*
X1217324Y870329D01*
X1217930Y872590D01*
Y874930D01*
X1217460Y876686D01*
X1219024Y878251D01*
X1220319Y878172D01*
D02*
G37*
G36*
X726646Y865516D02*
X726990Y863783D01*
X728325Y861785D01*
X730323Y860451D01*
X730389Y860437D01*
Y859143D01*
X730323Y859129D01*
X728325Y857795D01*
X726990Y855797D01*
X726774Y854710D01*
X741680D01*
Y853440D01*
X742950D01*
Y847282D01*
X750680D01*
X752835Y847710D01*
X754105Y847109D01*
Y831750D01*
X738370D01*
Y826845D01*
X673150D01*
Y840665D01*
X706882D01*
X708369Y840961D01*
X709629Y841803D01*
X719281Y851455D01*
X720123Y852715D01*
X720419Y854202D01*
Y861085D01*
X725288Y865955D01*
X726646Y865516D01*
D02*
G37*
G36*
X738370Y814170D02*
X754105D01*
Y800239D01*
X739594Y785727D01*
X739252Y785869D01*
X736600Y786218D01*
X733948Y785869D01*
X731476Y784845D01*
X729354Y783216D01*
X727725Y781094D01*
X726702Y778622D01*
X726352Y775970D01*
Y768350D01*
X726702Y765698D01*
X727725Y763226D01*
X729354Y761104D01*
X731476Y759475D01*
X733948Y758452D01*
X736600Y758102D01*
X739252Y758452D01*
X741724Y759475D01*
X742900Y760378D01*
X744170Y759752D01*
Y754430D01*
X673150D01*
Y819075D01*
X738370D01*
Y814170D01*
D02*
G37*
G36*
X1216610Y823377D02*
Y781310D01*
X1216660Y781059D01*
Y780805D01*
X1216758Y780569D01*
X1216807Y780319D01*
X1216949Y780107D01*
X1217047Y779871D01*
X1217227Y779691D01*
X1217369Y779479D01*
X1217581Y779337D01*
X1217761Y779156D01*
X1217997Y779059D01*
X1218209Y778917D01*
X1218459Y778867D01*
X1218695Y778770D01*
X1219461Y778617D01*
X1219112Y775970D01*
Y768350D01*
X1219462Y765698D01*
X1220485Y763226D01*
X1222114Y761104D01*
X1222624Y760712D01*
X1222216Y759510D01*
X1211104D01*
X1210696Y760712D01*
X1211206Y761104D01*
X1212835Y763226D01*
X1213858Y765698D01*
X1214208Y768350D01*
Y775970D01*
X1213858Y778622D01*
X1212835Y781094D01*
X1211206Y783216D01*
X1209084Y784845D01*
X1207845Y785358D01*
Y816271D01*
X1215437Y823863D01*
X1216610Y823377D01*
D02*
G37*
G36*
X1227525Y756751D02*
X1227634Y756343D01*
X1227717Y755929D01*
X1227764Y755857D01*
X1227786Y755775D01*
X1228043Y755440D01*
X1228278Y755089D01*
X1228349Y755041D01*
X1228401Y754973D01*
X1228767Y754762D01*
X1229118Y754527D01*
X1229202Y754511D01*
X1229277Y754468D01*
X1229695Y754413D01*
X1230109Y754330D01*
X1254011D01*
X1254425Y754413D01*
X1254760Y754457D01*
X1255095Y754413D01*
X1255509Y754330D01*
X1294651Y754330D01*
X1295065Y754413D01*
X1295400Y754457D01*
X1295735Y754413D01*
X1296149Y754330D01*
X1320051D01*
X1320465Y754413D01*
X1320800Y754457D01*
X1321135Y754413D01*
X1321549Y754330D01*
X1374190D01*
X1478280Y650240D01*
Y553720D01*
X1463040Y538480D01*
X1455423D01*
X1455405Y538524D01*
X1453776Y540646D01*
X1451654Y542275D01*
X1449182Y543298D01*
X1446530Y543648D01*
X1438910D01*
X1436258Y543298D01*
X1433786Y542275D01*
X1431664Y540646D01*
X1430035Y538524D01*
X1430017Y538480D01*
X1087529D01*
X1085894Y539735D01*
X1083422Y540759D01*
X1080770Y541108D01*
X1073150D01*
X1070498Y540759D01*
X1068026Y539735D01*
X1066391Y538480D01*
X1032032D01*
X1030734Y540728D01*
X1028488Y542974D01*
X1025737Y544563D01*
X1022668Y545385D01*
X1019492D01*
X1016423Y544563D01*
X1013672Y542974D01*
X1011426Y540728D01*
X1010128Y538480D01*
X912032D01*
X910734Y540728D01*
X908488Y542974D01*
X905737Y544563D01*
X902668Y545385D01*
X899492D01*
X896423Y544563D01*
X893672Y542974D01*
X891426Y540728D01*
X890128Y538480D01*
X771150D01*
X770897Y539750D01*
X770934Y539765D01*
X773056Y541394D01*
X774685Y543516D01*
X775708Y545988D01*
X775891Y547370D01*
X748110D01*
X748291Y545988D01*
X749315Y543516D01*
X750944Y541394D01*
X753066Y539765D01*
X753103Y539750D01*
X752850Y538480D01*
X706912D01*
X705614Y540728D01*
X703368Y542974D01*
X700617Y544563D01*
X697548Y545385D01*
X694372D01*
X691303Y544563D01*
X688552Y542974D01*
X686306Y540728D01*
X685008Y538480D01*
X586912D01*
X585614Y540728D01*
X583368Y542974D01*
X580617Y544563D01*
X577548Y545385D01*
X574372D01*
X571303Y544563D01*
X568552Y542974D01*
X566306Y540728D01*
X565008Y538480D01*
X558800D01*
X523240Y574040D01*
Y703530D01*
X670560D01*
X671551Y703727D01*
X672391Y704289D01*
X672953Y705129D01*
X673150Y706120D01*
Y751840D01*
X744170D01*
X744367Y750849D01*
X744929Y750009D01*
X745769Y749447D01*
X746760Y749250D01*
X868680Y749250D01*
X869671Y749447D01*
X870511Y750009D01*
X879124Y741396D01*
X879610Y706084D01*
X879712Y705607D01*
X879807Y705129D01*
X879817Y705114D01*
X879821Y705096D01*
X880098Y704694D01*
X880368Y704289D01*
X880384Y704279D01*
X880394Y704264D01*
X880803Y703998D01*
X881209Y703727D01*
X881226Y703724D01*
X881242Y703714D01*
X881721Y703625D01*
X882200Y703530D01*
X1082040D01*
X1083031Y703727D01*
X1083871Y704289D01*
X1109271Y729689D01*
X1109833Y730529D01*
X1110030Y731520D01*
Y734110D01*
X1132840Y756920D01*
X1227514D01*
X1227525Y756751D01*
D02*
G37*
G36*
X1595120Y792480D02*
X1584960Y782320D01*
X1539240D01*
Y777240D01*
X1534160Y772160D01*
Y701040D01*
X1518920Y685800D01*
X1446382D01*
X1376455Y755728D01*
X1376589Y755929D01*
X1376786Y756920D01*
Y985520D01*
X1595120D01*
Y792480D01*
D02*
G37*
G36*
X1061720Y513080D02*
Y370840D01*
X1056640Y365760D01*
X1010920D01*
Y367898D01*
X1010228Y370482D01*
X1008890Y372798D01*
X1006998Y374690D01*
X1004682Y376028D01*
X1002098Y376720D01*
X999422D01*
X996838Y376028D01*
X994522Y374690D01*
X992630Y372798D01*
X991292Y370482D01*
X990600Y367898D01*
Y365760D01*
X934720D01*
Y367898D01*
X934028Y370482D01*
X932690Y372798D01*
X930798Y374690D01*
X928482Y376028D01*
X925898Y376720D01*
X923222D01*
X920638Y376028D01*
X918322Y374690D01*
X916430Y372798D01*
X915092Y370482D01*
X914400Y367898D01*
Y365760D01*
X802640D01*
X772160Y396240D01*
Y515306D01*
X773056Y515994D01*
X774685Y518116D01*
X775708Y520588D01*
X776058Y523240D01*
X775708Y525892D01*
X774685Y528364D01*
X773056Y530486D01*
X772160Y531174D01*
Y535890D01*
X888262D01*
X889015Y534908D01*
Y531732D01*
X889837Y528663D01*
X891426Y525912D01*
X893672Y523666D01*
X896423Y522077D01*
X899492Y521255D01*
X902668D01*
X905737Y522077D01*
X908488Y523666D01*
X910734Y525912D01*
X912323Y528663D01*
X913145Y531732D01*
Y534908D01*
X913898Y535890D01*
X1008262D01*
X1009015Y534908D01*
Y531732D01*
X1009837Y528663D01*
X1011426Y525912D01*
X1013672Y523666D01*
X1016423Y522077D01*
X1019492Y521255D01*
X1022668D01*
X1025737Y522077D01*
X1028488Y523666D01*
X1030734Y525912D01*
X1032323Y528663D01*
X1033145Y531732D01*
Y534908D01*
X1033898Y535890D01*
X1038910D01*
X1061720Y513080D01*
D02*
G37*
G36*
X1428864Y534935D02*
X1428662Y533400D01*
X1429012Y530748D01*
X1430035Y528276D01*
X1431664Y526154D01*
X1433786Y524525D01*
X1436258Y523502D01*
X1438910Y523152D01*
X1442808D01*
X1478280Y487680D01*
Y401320D01*
X1457960Y381000D01*
X1127760D01*
X1107440Y401320D01*
Y523240D01*
X1120090Y535890D01*
X1270769D01*
X1270936Y534620D01*
X1270423Y534483D01*
X1267672Y532894D01*
X1265426Y530648D01*
X1263837Y527897D01*
X1263015Y524828D01*
Y521652D01*
X1263837Y518583D01*
X1265426Y515832D01*
X1267672Y513586D01*
X1270423Y511997D01*
X1273492Y511175D01*
X1276668D01*
X1279737Y511997D01*
X1282488Y513586D01*
X1284734Y515832D01*
X1286323Y518583D01*
X1287145Y521652D01*
Y524828D01*
X1286323Y527897D01*
X1284734Y530648D01*
X1282488Y532894D01*
X1279737Y534483D01*
X1279224Y534620D01*
X1279391Y535890D01*
X1390769D01*
X1390936Y534620D01*
X1390423Y534483D01*
X1387672Y532894D01*
X1385426Y530648D01*
X1383837Y527897D01*
X1383015Y524828D01*
Y521652D01*
X1383837Y518583D01*
X1385426Y515832D01*
X1387672Y513586D01*
X1390423Y511997D01*
X1393492Y511175D01*
X1396668D01*
X1399737Y511997D01*
X1402488Y513586D01*
X1404734Y515832D01*
X1406323Y518583D01*
X1407145Y521652D01*
Y524828D01*
X1406323Y527897D01*
X1404734Y530648D01*
X1402488Y532894D01*
X1399737Y534483D01*
X1399224Y534620D01*
X1399391Y535890D01*
X1428027D01*
X1428864Y534935D01*
D02*
G37*
G36*
X556969Y536649D02*
X557809Y536087D01*
X558800Y535890D01*
X563142D01*
X563895Y534908D01*
Y531732D01*
X564717Y528663D01*
X566306Y525912D01*
X568552Y523666D01*
X571303Y522077D01*
X574372Y521255D01*
X577548D01*
X580617Y522077D01*
X583368Y523666D01*
X585614Y525912D01*
X587203Y528663D01*
X588025Y531732D01*
Y534908D01*
X588778Y535890D01*
X683013D01*
X683895Y534908D01*
Y531732D01*
X684717Y528663D01*
X686306Y525912D01*
X688552Y523666D01*
X691303Y522077D01*
X694372Y521255D01*
X697548D01*
X697861Y521339D01*
X726440Y492760D01*
Y375920D01*
X706120Y355600D01*
X695407D01*
X694772Y356700D01*
X695268Y357558D01*
X695960Y360142D01*
Y362818D01*
X695268Y365402D01*
X693930Y367718D01*
X692038Y369610D01*
X689722Y370948D01*
X687138Y371640D01*
X684462D01*
X681878Y370948D01*
X679562Y369610D01*
X677670Y367718D01*
X676332Y365402D01*
X675640Y362818D01*
Y360142D01*
X676332Y357558D01*
X676828Y356700D01*
X676193Y355600D01*
X579120D01*
X533400Y401320D01*
Y518160D01*
X553720Y538480D01*
X555137D01*
X556969Y536649D01*
D02*
G37*
%LPC*%
G36*
X723900Y1188439D02*
Y1180846D01*
X731493D01*
X730914Y1183007D01*
X729744Y1185035D01*
X728089Y1186690D01*
X726061Y1187860D01*
X723900Y1188439D01*
D02*
G37*
G36*
X721360D02*
X719199Y1187860D01*
X717171Y1186690D01*
X715516Y1185035D01*
X714346Y1183007D01*
X713767Y1180846D01*
X721360D01*
Y1188439D01*
D02*
G37*
G36*
X795020Y1191260D02*
X783590D01*
Y1179830D01*
X795020D01*
Y1191260D01*
D02*
G37*
G36*
X781050D02*
X769620D01*
Y1179830D01*
X781050D01*
Y1191260D01*
D02*
G37*
G36*
X731493Y1178306D02*
X723900D01*
Y1170713D01*
X726061Y1171292D01*
X728089Y1172462D01*
X729744Y1174117D01*
X730914Y1176145D01*
X731493Y1178306D01*
D02*
G37*
G36*
X721360D02*
X713767D01*
X714346Y1176145D01*
X715516Y1174117D01*
X717171Y1172462D01*
X719199Y1171292D01*
X721360Y1170713D01*
Y1178306D01*
D02*
G37*
G36*
X698400Y1188466D02*
X696060D01*
X693799Y1187860D01*
X691771Y1186690D01*
X690116Y1185035D01*
X688946Y1183007D01*
X688340Y1180746D01*
Y1178406D01*
X688946Y1176145D01*
X690116Y1174117D01*
X691771Y1172462D01*
X693799Y1171292D01*
X696060Y1170686D01*
X698400D01*
X700661Y1171292D01*
X702689Y1172462D01*
X704344Y1174117D01*
X705514Y1176145D01*
X706120Y1178406D01*
Y1180746D01*
X705514Y1183007D01*
X704344Y1185035D01*
X702689Y1186690D01*
X700661Y1187860D01*
X698400Y1188466D01*
D02*
G37*
G36*
X795020Y1177290D02*
X783590D01*
Y1165860D01*
X795020D01*
Y1177290D01*
D02*
G37*
G36*
X781050D02*
X769620D01*
Y1165860D01*
X781050D01*
Y1177290D01*
D02*
G37*
G36*
X415190Y1111150D02*
X407670D01*
Y1103630D01*
X415190D01*
Y1111150D01*
D02*
G37*
G36*
X405130D02*
X397610D01*
Y1103630D01*
X405130D01*
Y1111150D01*
D02*
G37*
G36*
X415190Y1101090D02*
X407670D01*
Y1093570D01*
X415190D01*
Y1101090D01*
D02*
G37*
G36*
X405130D02*
X397610D01*
Y1093570D01*
X405130D01*
Y1101090D01*
D02*
G37*
G36*
X382557Y1111150D02*
X380243D01*
X378007Y1110551D01*
X376003Y1109394D01*
X374366Y1107757D01*
X373209Y1105753D01*
X372610Y1103517D01*
Y1101203D01*
X373209Y1098967D01*
X374366Y1096963D01*
X376003Y1095326D01*
X378007Y1094169D01*
X380243Y1093570D01*
X382557D01*
X384793Y1094169D01*
X386797Y1095326D01*
X388434Y1096963D01*
X389591Y1098967D01*
X390190Y1101203D01*
Y1103517D01*
X389591Y1105753D01*
X388434Y1107757D01*
X386797Y1109394D01*
X384793Y1110551D01*
X382557Y1111150D01*
D02*
G37*
G36*
X785630Y1100990D02*
X778110D01*
Y1093470D01*
X785630D01*
Y1100990D01*
D02*
G37*
G36*
X775570D02*
X768050D01*
Y1093470D01*
X775570D01*
Y1100990D01*
D02*
G37*
G36*
X785630Y1090930D02*
X778110D01*
Y1083410D01*
X785630D01*
Y1090930D01*
D02*
G37*
G36*
X775570D02*
X768050D01*
Y1083410D01*
X775570D01*
Y1090930D01*
D02*
G37*
G36*
X752997Y1100990D02*
X750683D01*
X748447Y1100391D01*
X746443Y1099234D01*
X744806Y1097597D01*
X743649Y1095593D01*
X743050Y1093357D01*
Y1091043D01*
X743649Y1088807D01*
X744806Y1086803D01*
X746443Y1085166D01*
X748447Y1084009D01*
X750683Y1083410D01*
X752997D01*
X755233Y1084009D01*
X757237Y1085166D01*
X758874Y1086803D01*
X760031Y1088807D01*
X760630Y1091043D01*
Y1093357D01*
X760031Y1095593D01*
X758874Y1097597D01*
X757237Y1099234D01*
X755233Y1100391D01*
X752997Y1100990D01*
D02*
G37*
G36*
X1260810Y1090830D02*
X1253290D01*
Y1083310D01*
X1260810D01*
Y1090830D01*
D02*
G37*
G36*
X1250750D02*
X1243230D01*
Y1083310D01*
X1250750D01*
Y1090830D01*
D02*
G37*
G36*
X1296830Y1085461D02*
Y1078230D01*
X1304061D01*
X1303518Y1080256D01*
X1302394Y1082204D01*
X1300804Y1083794D01*
X1298856Y1084918D01*
X1296830Y1085461D01*
D02*
G37*
G36*
X824550D02*
Y1078230D01*
X831781D01*
X831238Y1080256D01*
X830114Y1082204D01*
X828524Y1083794D01*
X826576Y1084918D01*
X824550Y1085461D01*
D02*
G37*
G36*
X822010D02*
X819984Y1084918D01*
X818036Y1083794D01*
X816446Y1082204D01*
X815322Y1080256D01*
X814779Y1078230D01*
X822010D01*
Y1085461D01*
D02*
G37*
G36*
X1294290Y1085461D02*
X1292264Y1084918D01*
X1290316Y1083794D01*
X1288726Y1082204D01*
X1287602Y1080256D01*
X1287059Y1078230D01*
X1294290D01*
Y1085461D01*
D02*
G37*
G36*
X1260810Y1080770D02*
X1253290D01*
Y1073250D01*
X1260810D01*
Y1080770D01*
D02*
G37*
G36*
X1250750D02*
X1243230D01*
Y1073250D01*
X1250750D01*
Y1080770D01*
D02*
G37*
G36*
X1228177Y1090830D02*
X1225863D01*
X1223627Y1090231D01*
X1221623Y1089074D01*
X1219986Y1087437D01*
X1218829Y1085433D01*
X1218230Y1083197D01*
Y1080883D01*
X1218829Y1078647D01*
X1219986Y1076643D01*
X1221623Y1075006D01*
X1223627Y1073849D01*
X1225863Y1073250D01*
X1228177D01*
X1230413Y1073849D01*
X1232417Y1075006D01*
X1234054Y1076643D01*
X1235211Y1078647D01*
X1235810Y1080883D01*
Y1083197D01*
X1235211Y1085433D01*
X1234054Y1087437D01*
X1232417Y1089074D01*
X1230413Y1090231D01*
X1228177Y1090830D01*
D02*
G37*
G36*
X478950Y1080381D02*
Y1073150D01*
X486181D01*
X485638Y1075176D01*
X484514Y1077124D01*
X482924Y1078714D01*
X480976Y1079838D01*
X478950Y1080381D01*
D02*
G37*
G36*
X476410Y1080381D02*
X474384Y1079838D01*
X472436Y1078714D01*
X470846Y1077124D01*
X469722Y1075176D01*
X469179Y1073150D01*
X476410D01*
Y1080381D01*
D02*
G37*
G36*
X1304061Y1075690D02*
X1296830D01*
Y1068459D01*
X1298856Y1069002D01*
X1300804Y1070126D01*
X1302394Y1071716D01*
X1303518Y1073664D01*
X1304061Y1075690D01*
D02*
G37*
G36*
X831781D02*
X824550D01*
Y1068459D01*
X826576Y1069002D01*
X828524Y1070126D01*
X830114Y1071716D01*
X831238Y1073664D01*
X831781Y1075690D01*
D02*
G37*
G36*
X822010D02*
X814779D01*
X815322Y1073664D01*
X816446Y1071716D01*
X818036Y1070126D01*
X819984Y1069002D01*
X822010Y1068459D01*
Y1075690D01*
D02*
G37*
G36*
X1294290D02*
X1287059D01*
X1287602Y1073664D01*
X1288726Y1071716D01*
X1290316Y1070126D01*
X1292264Y1069002D01*
X1294290Y1068459D01*
Y1075690D01*
D02*
G37*
G36*
X1324100Y1085500D02*
X1307020D01*
Y1068420D01*
X1324100D01*
Y1085500D01*
D02*
G37*
G36*
X851820D02*
X834740D01*
Y1068420D01*
X851820D01*
Y1085500D01*
D02*
G37*
G36*
X486181Y1070610D02*
X478950D01*
Y1063379D01*
X480976Y1063922D01*
X482924Y1065046D01*
X484514Y1066636D01*
X485638Y1068584D01*
X486181Y1070610D01*
D02*
G37*
G36*
X476410D02*
X469179D01*
X469722Y1068584D01*
X470846Y1066636D01*
X472436Y1065046D01*
X474384Y1063922D01*
X476410Y1063379D01*
Y1070610D01*
D02*
G37*
G36*
X506220Y1080420D02*
X489140D01*
Y1063340D01*
X506220D01*
Y1080420D01*
D02*
G37*
G36*
X387190Y1054981D02*
Y1047750D01*
X394421D01*
X393878Y1049776D01*
X392754Y1051724D01*
X391164Y1053314D01*
X389216Y1054438D01*
X387190Y1054981D01*
D02*
G37*
G36*
X384650D02*
X382624Y1054438D01*
X380676Y1053314D01*
X379086Y1051724D01*
X377962Y1049776D01*
X377419Y1047750D01*
X384650D01*
Y1054981D01*
D02*
G37*
G36*
X752950Y1049901D02*
Y1042670D01*
X760181D01*
X759638Y1044696D01*
X758514Y1046644D01*
X756924Y1048234D01*
X754976Y1049358D01*
X752950Y1049901D01*
D02*
G37*
G36*
X750410D02*
X748384Y1049358D01*
X746436Y1048234D01*
X744846Y1046644D01*
X743722Y1044696D01*
X743179Y1042670D01*
X750410D01*
Y1049901D01*
D02*
G37*
G36*
X651397Y1052530D02*
X649083D01*
X646847Y1051931D01*
X644843Y1050774D01*
X643206Y1049137D01*
X642049Y1047133D01*
X641450Y1044897D01*
Y1042583D01*
X642049Y1040347D01*
X643206Y1038343D01*
X644843Y1036706D01*
X646847Y1035549D01*
X649083Y1034950D01*
X651397D01*
X653633Y1035549D01*
X655637Y1036706D01*
X657274Y1038343D01*
X658431Y1040347D01*
X659030Y1042583D01*
Y1044897D01*
X658431Y1047133D01*
X657274Y1049137D01*
X655637Y1050774D01*
X653633Y1051931D01*
X651397Y1052530D01*
D02*
G37*
G36*
X610757D02*
X608443D01*
X606207Y1051931D01*
X604203Y1050774D01*
X602566Y1049137D01*
X601409Y1047133D01*
X600810Y1044897D01*
Y1042583D01*
X601409Y1040347D01*
X602566Y1038343D01*
X604203Y1036706D01*
X606207Y1035549D01*
X608443Y1034950D01*
X610757D01*
X612993Y1035549D01*
X614997Y1036706D01*
X616634Y1038343D01*
X617791Y1040347D01*
X618390Y1042583D01*
Y1044897D01*
X617791Y1047133D01*
X616634Y1049137D01*
X614997Y1050774D01*
X612993Y1051931D01*
X610757Y1052530D01*
D02*
G37*
G36*
X760181Y1040130D02*
X752950D01*
Y1032899D01*
X754976Y1033442D01*
X756924Y1034566D01*
X758514Y1036156D01*
X759638Y1038104D01*
X760181Y1040130D01*
D02*
G37*
G36*
X750410D02*
X743179D01*
X743722Y1038104D01*
X744846Y1036156D01*
X746436Y1034566D01*
X748384Y1033442D01*
X750410Y1032899D01*
Y1040130D01*
D02*
G37*
G36*
X740220Y1049940D02*
X723140D01*
Y1032860D01*
X740220D01*
Y1049940D01*
D02*
G37*
G36*
X1250790Y1034661D02*
Y1027430D01*
X1258021D01*
X1257478Y1029456D01*
X1256354Y1031404D01*
X1254764Y1032994D01*
X1252816Y1034118D01*
X1250790Y1034661D01*
D02*
G37*
G36*
X1248250D02*
X1246224Y1034118D01*
X1244276Y1032994D01*
X1242686Y1031404D01*
X1241562Y1029456D01*
X1241019Y1027430D01*
X1248250D01*
Y1034661D01*
D02*
G37*
G36*
X1258021Y1024890D02*
X1250790D01*
Y1017659D01*
X1252816Y1018202D01*
X1254764Y1019326D01*
X1256354Y1020916D01*
X1257478Y1022864D01*
X1258021Y1024890D01*
D02*
G37*
G36*
X1248250D02*
X1241019D01*
X1241562Y1022864D01*
X1242686Y1020916D01*
X1244276Y1019326D01*
X1246224Y1018202D01*
X1248250Y1017659D01*
Y1024890D01*
D02*
G37*
G36*
X1238060Y1034700D02*
X1220980D01*
Y1017620D01*
X1238060D01*
Y1034700D01*
D02*
G37*
G36*
X1314450Y1036408D02*
X1306830D01*
X1304178Y1036059D01*
X1301706Y1035035D01*
X1299584Y1033406D01*
X1297955Y1031284D01*
X1296931Y1028812D01*
X1296582Y1026160D01*
X1296931Y1023508D01*
X1297955Y1021036D01*
X1299584Y1018914D01*
X1301706Y1017285D01*
X1304178Y1016262D01*
X1306830Y1015912D01*
X1314450D01*
X1317102Y1016262D01*
X1319574Y1017285D01*
X1321696Y1018914D01*
X1323325Y1021036D01*
X1324348Y1023508D01*
X1324698Y1026160D01*
X1324348Y1028812D01*
X1323325Y1031284D01*
X1321696Y1033406D01*
X1319574Y1035035D01*
X1317102Y1036059D01*
X1314450Y1036408D01*
D02*
G37*
G36*
X435610Y1021168D02*
X433070D01*
Y1012190D01*
X445690D01*
X445508Y1013572D01*
X444485Y1016044D01*
X442856Y1018166D01*
X440734Y1019795D01*
X438262Y1020818D01*
X435610Y1021168D01*
D02*
G37*
G36*
X430530D02*
X427990D01*
X425338Y1020818D01*
X422866Y1019795D01*
X420744Y1018166D01*
X419115Y1016044D01*
X418092Y1013572D01*
X417910Y1012190D01*
X430530D01*
Y1021168D01*
D02*
G37*
G36*
X659030Y1027530D02*
X641450D01*
Y1009950D01*
X659030D01*
Y1027530D01*
D02*
G37*
G36*
X618390D02*
X600810D01*
Y1009950D01*
X618390D01*
Y1027530D01*
D02*
G37*
G36*
X1172110Y1027130D02*
X1154530D01*
Y1009550D01*
X1172110D01*
Y1027130D01*
D02*
G37*
G36*
X1136550D02*
X1118970D01*
Y1009550D01*
X1136550D01*
Y1027130D01*
D02*
G37*
G36*
X806450Y1016088D02*
X803910D01*
Y1007110D01*
X816531D01*
X816348Y1008492D01*
X815325Y1010964D01*
X813696Y1013086D01*
X811574Y1014715D01*
X809102Y1015739D01*
X806450Y1016088D01*
D02*
G37*
G36*
X801370D02*
X798830D01*
X796178Y1015739D01*
X793706Y1014715D01*
X791584Y1013086D01*
X789955Y1010964D01*
X788932Y1008492D01*
X788749Y1007110D01*
X801370D01*
Y1016088D01*
D02*
G37*
G36*
X1314450Y1011008D02*
X1311910D01*
Y1002030D01*
X1324530D01*
X1324348Y1003412D01*
X1323325Y1005884D01*
X1321696Y1008006D01*
X1319574Y1009635D01*
X1317102Y1010658D01*
X1314450Y1011008D01*
D02*
G37*
G36*
X1309370D02*
X1306830D01*
X1304178Y1010658D01*
X1301706Y1009635D01*
X1299584Y1008006D01*
X1297955Y1005884D01*
X1296931Y1003412D01*
X1296750Y1002030D01*
X1309370D01*
Y1011008D01*
D02*
G37*
G36*
X1324530Y999490D02*
X1311910D01*
Y990512D01*
X1314450D01*
X1317102Y990862D01*
X1319574Y991885D01*
X1321696Y993514D01*
X1323325Y995636D01*
X1324348Y998108D01*
X1324530Y999490D01*
D02*
G37*
G36*
X1309370D02*
X1296750D01*
X1296931Y998108D01*
X1297955Y995636D01*
X1299584Y993514D01*
X1301706Y991885D01*
X1304178Y990862D01*
X1306830Y990512D01*
X1309370D01*
Y999490D01*
D02*
G37*
G36*
X1164477Y1002130D02*
X1162163D01*
X1159927Y1001531D01*
X1157923Y1000374D01*
X1156286Y998737D01*
X1155129Y996733D01*
X1154530Y994497D01*
Y992183D01*
X1155129Y989947D01*
X1156286Y987943D01*
X1157923Y986306D01*
X1159927Y985149D01*
X1162163Y984550D01*
X1164477D01*
X1166713Y985149D01*
X1168717Y986306D01*
X1170354Y987943D01*
X1171511Y989947D01*
X1172110Y992183D01*
Y994497D01*
X1171511Y996733D01*
X1170354Y998737D01*
X1168717Y1000374D01*
X1166713Y1001531D01*
X1164477Y1002130D01*
D02*
G37*
G36*
X1128917D02*
X1126603D01*
X1124367Y1001531D01*
X1122363Y1000374D01*
X1120726Y998737D01*
X1119569Y996733D01*
X1118970Y994497D01*
Y992183D01*
X1119569Y989947D01*
X1120726Y987943D01*
X1122363Y986306D01*
X1124367Y985149D01*
X1126603Y984550D01*
X1128917D01*
X1131153Y985149D01*
X1133157Y986306D01*
X1134794Y987943D01*
X1135951Y989947D01*
X1136550Y992183D01*
Y994497D01*
X1135951Y996733D01*
X1134794Y998737D01*
X1133157Y1000374D01*
X1131153Y1001531D01*
X1128917Y1002130D01*
D02*
G37*
G36*
X609030Y989230D02*
X591450D01*
Y971650D01*
X609030D01*
Y989230D01*
D02*
G37*
G36*
X343270Y963268D02*
X335540D01*
X333183Y962800D01*
X331185Y961465D01*
X329850Y959467D01*
X329634Y958380D01*
X343270D01*
Y963268D01*
D02*
G37*
G36*
X1136550Y973990D02*
X1118970D01*
Y956410D01*
X1136550D01*
Y973990D01*
D02*
G37*
G36*
X750680Y948498D02*
X742950D01*
Y943610D01*
X756586D01*
X756370Y944697D01*
X755035Y946695D01*
X753037Y948029D01*
X750680Y948498D01*
D02*
G37*
G36*
X740410D02*
X732680D01*
X730323Y948029D01*
X728325Y946695D01*
X726990Y944697D01*
X726774Y943610D01*
X740410D01*
Y948498D01*
D02*
G37*
G36*
X1243440Y938338D02*
X1235710D01*
Y933450D01*
X1249346D01*
X1249130Y934537D01*
X1247795Y936535D01*
X1245797Y937869D01*
X1243440Y938338D01*
D02*
G37*
G36*
X1233170D02*
X1225440D01*
X1223083Y937869D01*
X1221085Y936535D01*
X1219750Y934537D01*
X1219534Y933450D01*
X1233170D01*
Y938338D01*
D02*
G37*
G36*
X636370Y948590D02*
X618790D01*
Y931010D01*
X636370D01*
Y948590D01*
D02*
G37*
G36*
X834792Y1191260D02*
X834390D01*
Y1179830D01*
X845820D01*
Y1180232D01*
X844955Y1183462D01*
X843282Y1186358D01*
X840918Y1188723D01*
X838022Y1190395D01*
X834792Y1191260D01*
D02*
G37*
G36*
X831850D02*
X831448D01*
X828218Y1190395D01*
X825322Y1188723D01*
X822958Y1186358D01*
X821285Y1183462D01*
X820420Y1180232D01*
Y1179830D01*
X831850D01*
Y1191260D01*
D02*
G37*
G36*
X895752Y1186180D02*
X895350D01*
Y1174750D01*
X906780D01*
Y1175152D01*
X905915Y1178382D01*
X904242Y1181278D01*
X901878Y1183643D01*
X898982Y1185314D01*
X895752Y1186180D01*
D02*
G37*
G36*
X892810D02*
X892408D01*
X889178Y1185314D01*
X886282Y1183643D01*
X883917Y1181278D01*
X882245Y1178382D01*
X881380Y1175152D01*
Y1174750D01*
X892810D01*
Y1186180D01*
D02*
G37*
G36*
X845820Y1177290D02*
X834390D01*
Y1165860D01*
X834792D01*
X838022Y1166725D01*
X840918Y1168398D01*
X843282Y1170762D01*
X844955Y1173658D01*
X845820Y1176888D01*
Y1177290D01*
D02*
G37*
G36*
X831850D02*
X820420D01*
Y1176888D01*
X821285Y1173658D01*
X822958Y1170762D01*
X825322Y1168398D01*
X828218Y1166725D01*
X831448Y1165860D01*
X831850D01*
Y1177290D01*
D02*
G37*
G36*
X957580Y1186180D02*
X932180D01*
Y1160780D01*
X957580D01*
Y1186180D01*
D02*
G37*
G36*
X906780Y1172210D02*
X895350D01*
Y1160780D01*
X895752D01*
X898982Y1161646D01*
X901878Y1163317D01*
X904242Y1165682D01*
X905915Y1168578D01*
X906780Y1171808D01*
Y1172210D01*
D02*
G37*
G36*
X892810D02*
X881380D01*
Y1171808D01*
X882245Y1168578D01*
X883917Y1165682D01*
X886282Y1163317D01*
X889178Y1161646D01*
X892408Y1160780D01*
X892810D01*
Y1172210D01*
D02*
G37*
G36*
X435610Y995768D02*
X433070D01*
Y986790D01*
X445690D01*
X445508Y988172D01*
X444485Y990644D01*
X442856Y992766D01*
X440734Y994395D01*
X438262Y995418D01*
X435610Y995768D01*
D02*
G37*
G36*
X430530D02*
X427990D01*
X425338Y995418D01*
X422866Y994395D01*
X420744Y992766D01*
X419115Y990644D01*
X418092Y988172D01*
X417910Y986790D01*
X430530D01*
Y995768D01*
D02*
G37*
G36*
X445690Y984250D02*
X433070D01*
Y975272D01*
X435610D01*
X438262Y975621D01*
X440734Y976645D01*
X442856Y978274D01*
X444485Y980396D01*
X445508Y982868D01*
X445690Y984250D01*
D02*
G37*
G36*
X430530D02*
X417910D01*
X418092Y982868D01*
X419115Y980396D01*
X420744Y978274D01*
X422866Y976645D01*
X425338Y975621D01*
X427990Y975272D01*
X430530D01*
Y984250D01*
D02*
G37*
G36*
X440060Y926620D02*
X421290D01*
Y895350D01*
X440060D01*
Y926620D01*
D02*
G37*
G36*
X418750D02*
X399980D01*
Y895350D01*
X418750D01*
Y926620D01*
D02*
G37*
G36*
X440060Y892810D02*
X421290D01*
Y861540D01*
X440060D01*
Y892810D01*
D02*
G37*
G36*
X418750D02*
X399980D01*
Y861540D01*
X418750D01*
Y892810D01*
D02*
G37*
G36*
X384710Y846990D02*
X377190D01*
Y839470D01*
X384710D01*
Y846990D01*
D02*
G37*
G36*
X374650D02*
X367130D01*
Y839470D01*
X374650D01*
Y846990D01*
D02*
G37*
G36*
X384710Y836930D02*
X377190D01*
Y829410D01*
X384710D01*
Y836930D01*
D02*
G37*
G36*
X374650D02*
X367130D01*
Y829410D01*
X374650D01*
Y836930D01*
D02*
G37*
G36*
X356870Y811451D02*
Y798830D01*
X365848D01*
Y801370D01*
X365499Y804022D01*
X364475Y806494D01*
X362846Y808616D01*
X360724Y810245D01*
X358252Y811268D01*
X356870Y811451D01*
D02*
G37*
G36*
X443230D02*
Y798830D01*
X452208D01*
Y801370D01*
X451858Y804022D01*
X450835Y806494D01*
X449206Y808616D01*
X447084Y810245D01*
X444612Y811268D01*
X443230Y811451D01*
D02*
G37*
G36*
X440690D02*
X439308Y811268D01*
X436836Y810245D01*
X434714Y808616D01*
X433085Y806494D01*
X432062Y804022D01*
X431712Y801370D01*
Y798830D01*
X440690D01*
Y811451D01*
D02*
G37*
G36*
X354330D02*
X352948Y811268D01*
X350476Y810245D01*
X348354Y808616D01*
X346725Y806494D01*
X345701Y804022D01*
X345352Y801370D01*
Y798830D01*
X354330D01*
Y811451D01*
D02*
G37*
G36*
X466090Y812888D02*
X463438Y812539D01*
X460966Y811515D01*
X458844Y809886D01*
X457215Y807764D01*
X456191Y805292D01*
X455842Y802640D01*
Y795020D01*
X456191Y792368D01*
X457215Y789896D01*
X458844Y787774D01*
X460966Y786145D01*
X463438Y785122D01*
X466090Y784772D01*
X468742Y785122D01*
X471214Y786145D01*
X473336Y787774D01*
X474965Y789896D01*
X475989Y792368D01*
X476338Y795020D01*
Y802640D01*
X475989Y805292D01*
X474965Y807764D01*
X473336Y809886D01*
X471214Y811515D01*
X468742Y812539D01*
X466090Y812888D01*
D02*
G37*
G36*
X365848Y796290D02*
X356870D01*
Y783670D01*
X358252Y783851D01*
X360724Y784875D01*
X362846Y786504D01*
X364475Y788626D01*
X365499Y791098D01*
X365848Y793750D01*
Y796290D01*
D02*
G37*
G36*
X452208D02*
X443230D01*
Y783670D01*
X444612Y783851D01*
X447084Y784875D01*
X449206Y786504D01*
X450835Y788626D01*
X451858Y791098D01*
X452208Y793750D01*
Y796290D01*
D02*
G37*
G36*
X440690D02*
X431712D01*
Y793750D01*
X432062Y791098D01*
X433085Y788626D01*
X434714Y786504D01*
X436836Y784875D01*
X439308Y783851D01*
X440690Y783670D01*
Y796290D01*
D02*
G37*
G36*
X354330D02*
X345352D01*
Y793750D01*
X345701Y791098D01*
X346725Y788626D01*
X348354Y786504D01*
X350476Y784875D01*
X352948Y783851D01*
X354330Y783670D01*
Y796290D01*
D02*
G37*
G36*
X416560Y811618D02*
X413908Y811268D01*
X411436Y810245D01*
X409314Y808616D01*
X407685Y806494D01*
X406661Y804022D01*
X406312Y801370D01*
Y793750D01*
X406661Y791098D01*
X407685Y788626D01*
X409314Y786504D01*
X411436Y784875D01*
X413908Y783851D01*
X416560Y783502D01*
X419212Y783851D01*
X421684Y784875D01*
X423806Y786504D01*
X425435Y788626D01*
X426459Y791098D01*
X426808Y793750D01*
Y801370D01*
X426459Y804022D01*
X425435Y806494D01*
X423806Y808616D01*
X421684Y810245D01*
X419212Y811268D01*
X416560Y811618D01*
D02*
G37*
G36*
X381000D02*
X378348Y811268D01*
X375876Y810245D01*
X373754Y808616D01*
X372125Y806494D01*
X371101Y804022D01*
X370752Y801370D01*
Y793750D01*
X371101Y791098D01*
X372125Y788626D01*
X373754Y786504D01*
X375876Y784875D01*
X378348Y783851D01*
X381000Y783502D01*
X383652Y783851D01*
X386124Y784875D01*
X388246Y786504D01*
X389875Y788626D01*
X390899Y791098D01*
X391248Y793750D01*
Y801370D01*
X390899Y804022D01*
X389875Y806494D01*
X388246Y808616D01*
X386124Y810245D01*
X383652Y811268D01*
X381000Y811618D01*
D02*
G37*
G36*
X806450Y990688D02*
X803910D01*
Y981710D01*
X816531D01*
X816348Y983092D01*
X815325Y985564D01*
X813696Y987686D01*
X811574Y989315D01*
X809102Y990339D01*
X806450Y990688D01*
D02*
G37*
G36*
X801370D02*
X798830D01*
X796178Y990339D01*
X793706Y989315D01*
X791584Y987686D01*
X789955Y985564D01*
X788932Y983092D01*
X788749Y981710D01*
X801370D01*
Y990688D01*
D02*
G37*
G36*
X816531Y979170D02*
X803910D01*
Y970192D01*
X806450D01*
X809102Y970542D01*
X811574Y971565D01*
X813696Y973194D01*
X815325Y975316D01*
X816348Y977788D01*
X816531Y979170D01*
D02*
G37*
G36*
X801370D02*
X788749D01*
X788932Y977788D01*
X789955Y975316D01*
X791584Y973194D01*
X793706Y971565D01*
X796178Y970542D01*
X798830Y970192D01*
X801370D01*
Y979170D01*
D02*
G37*
G36*
X836300Y921540D02*
X817530D01*
Y890270D01*
X836300D01*
Y921540D01*
D02*
G37*
G36*
X814990D02*
X796220D01*
Y890270D01*
X814990D01*
Y921540D01*
D02*
G37*
G36*
X836300Y887730D02*
X817530D01*
Y856460D01*
X836300D01*
Y887730D01*
D02*
G37*
G36*
X814990D02*
X796220D01*
Y856460D01*
X814990D01*
Y887730D01*
D02*
G37*
G36*
X773430Y831720D02*
Y824230D01*
X780920D01*
X780351Y826353D01*
X779194Y828357D01*
X777557Y829994D01*
X775553Y831151D01*
X773430Y831720D01*
D02*
G37*
G36*
X770890D02*
X768767Y831151D01*
X766763Y829994D01*
X765126Y828357D01*
X763969Y826353D01*
X763400Y824230D01*
X770890D01*
Y831720D01*
D02*
G37*
G36*
X780920Y821690D02*
X773430D01*
Y814200D01*
X775553Y814769D01*
X777557Y815926D01*
X779194Y817563D01*
X780351Y819567D01*
X780920Y821690D01*
D02*
G37*
G36*
X770890D02*
X763400D01*
X763969Y819567D01*
X765126Y817563D01*
X766763Y815926D01*
X768767Y814769D01*
X770890Y814200D01*
Y821690D01*
D02*
G37*
G36*
X763270Y786050D02*
Y773430D01*
X772248D01*
Y775970D01*
X771898Y778622D01*
X770875Y781094D01*
X769246Y783216D01*
X767124Y784845D01*
X764652Y785869D01*
X763270Y786050D01*
D02*
G37*
G36*
X849630D02*
Y773430D01*
X858608D01*
Y775970D01*
X858259Y778622D01*
X857235Y781094D01*
X855606Y783216D01*
X853484Y784845D01*
X851012Y785869D01*
X849630Y786050D01*
D02*
G37*
G36*
X847090D02*
X845708Y785869D01*
X843236Y784845D01*
X841114Y783216D01*
X839485Y781094D01*
X838462Y778622D01*
X838112Y775970D01*
Y773430D01*
X847090D01*
Y786050D01*
D02*
G37*
G36*
X760730D02*
X759348Y785869D01*
X756876Y784845D01*
X754754Y783216D01*
X753125Y781094D01*
X752102Y778622D01*
X751752Y775970D01*
Y773430D01*
X760730D01*
Y786050D01*
D02*
G37*
G36*
X772248Y770890D02*
X763270D01*
Y758270D01*
X764652Y758452D01*
X767124Y759475D01*
X769246Y761104D01*
X770875Y763226D01*
X771898Y765698D01*
X772248Y768350D01*
Y770890D01*
D02*
G37*
G36*
X858608D02*
X849630D01*
Y758270D01*
X851012Y758452D01*
X853484Y759475D01*
X855606Y761104D01*
X857235Y763226D01*
X858259Y765698D01*
X858608Y768350D01*
Y770890D01*
D02*
G37*
G36*
X847090D02*
X838112D01*
Y768350D01*
X838462Y765698D01*
X839485Y763226D01*
X841114Y761104D01*
X843236Y759475D01*
X845708Y758452D01*
X847090Y758270D01*
Y770890D01*
D02*
G37*
G36*
X760730D02*
X751752D01*
Y768350D01*
X752102Y765698D01*
X753125Y763226D01*
X754754Y761104D01*
X756876Y759475D01*
X759348Y758452D01*
X760730Y758270D01*
Y770890D01*
D02*
G37*
G36*
X822960Y786218D02*
X820308Y785869D01*
X817836Y784845D01*
X815714Y783216D01*
X814085Y781094D01*
X813062Y778622D01*
X812712Y775970D01*
Y768350D01*
X813062Y765698D01*
X814085Y763226D01*
X815714Y761104D01*
X817836Y759475D01*
X820308Y758452D01*
X822960Y758102D01*
X825612Y758452D01*
X828084Y759475D01*
X830206Y761104D01*
X831835Y763226D01*
X832859Y765698D01*
X833208Y768350D01*
Y775970D01*
X832859Y778622D01*
X831835Y781094D01*
X830206Y783216D01*
X828084Y784845D01*
X825612Y785869D01*
X822960Y786218D01*
D02*
G37*
G36*
X787400D02*
X784748Y785869D01*
X782276Y784845D01*
X780154Y783216D01*
X778525Y781094D01*
X777502Y778622D01*
X777152Y775970D01*
Y768350D01*
X777502Y765698D01*
X778525Y763226D01*
X780154Y761104D01*
X782276Y759475D01*
X784748Y758452D01*
X787400Y758102D01*
X790052Y758452D01*
X792524Y759475D01*
X794646Y761104D01*
X796275Y763226D01*
X797299Y765698D01*
X797648Y768350D01*
Y775970D01*
X797299Y778622D01*
X796275Y781094D01*
X794646Y783216D01*
X792524Y784845D01*
X790052Y785869D01*
X787400Y786218D01*
D02*
G37*
G36*
X1324530Y974090D02*
X1311910D01*
Y965112D01*
X1314450D01*
X1317102Y965462D01*
X1319574Y966485D01*
X1321696Y968114D01*
X1323325Y970236D01*
X1324348Y972708D01*
X1324530Y974090D01*
D02*
G37*
G36*
X1309370D02*
X1296750D01*
X1296931Y972708D01*
X1297955Y970236D01*
X1299584Y968114D01*
X1301706Y966485D01*
X1304178Y965462D01*
X1306830Y965112D01*
X1309370D01*
Y974090D01*
D02*
G37*
G36*
X1340840Y916460D02*
X1322070D01*
Y885190D01*
X1340840D01*
Y916460D01*
D02*
G37*
G36*
X1319530D02*
X1300760D01*
Y885190D01*
X1319530D01*
Y916460D01*
D02*
G37*
G36*
X1340840Y882650D02*
X1322070D01*
Y851380D01*
X1340840D01*
Y882650D01*
D02*
G37*
G36*
X1319530D02*
X1300760D01*
Y851380D01*
X1319530D01*
Y882650D01*
D02*
G37*
G36*
X1266190Y821560D02*
Y814070D01*
X1273680D01*
X1273111Y816193D01*
X1271954Y818197D01*
X1270317Y819834D01*
X1268313Y820991D01*
X1266190Y821560D01*
D02*
G37*
G36*
X1263650D02*
X1261527Y820991D01*
X1259523Y819834D01*
X1257886Y818197D01*
X1256729Y816193D01*
X1256160Y814070D01*
X1263650D01*
Y821560D01*
D02*
G37*
G36*
X1273680Y811530D02*
X1266190D01*
Y804040D01*
X1268313Y804609D01*
X1270317Y805766D01*
X1271954Y807403D01*
X1273111Y809407D01*
X1273680Y811530D01*
D02*
G37*
G36*
X1263650D02*
X1256160D01*
X1256729Y809407D01*
X1257886Y807403D01*
X1259523Y805766D01*
X1261527Y804609D01*
X1263650Y804040D01*
Y811530D01*
D02*
G37*
G36*
X1248710Y821590D02*
X1231130D01*
Y804010D01*
X1248710D01*
Y821590D01*
D02*
G37*
G36*
X1230630Y786050D02*
Y773430D01*
X1239608D01*
Y775970D01*
X1239258Y778622D01*
X1238235Y781094D01*
X1236606Y783216D01*
X1234484Y784845D01*
X1232012Y785869D01*
X1230630Y786050D01*
D02*
G37*
G36*
X1322070D02*
Y773430D01*
X1331048D01*
Y775970D01*
X1330699Y778622D01*
X1329675Y781094D01*
X1328046Y783216D01*
X1325924Y784845D01*
X1323452Y785869D01*
X1322070Y786050D01*
D02*
G37*
G36*
X1319530D02*
X1318148Y785869D01*
X1315676Y784845D01*
X1313554Y783216D01*
X1311925Y781094D01*
X1310901Y778622D01*
X1310552Y775970D01*
Y773430D01*
X1319530D01*
Y786050D01*
D02*
G37*
G36*
X1344930Y787488D02*
X1342278Y787139D01*
X1339806Y786115D01*
X1337684Y784486D01*
X1336055Y782364D01*
X1335031Y779892D01*
X1334682Y777240D01*
Y769620D01*
X1335031Y766968D01*
X1336055Y764496D01*
X1337684Y762374D01*
X1339806Y760745D01*
X1342278Y759722D01*
X1344930Y759372D01*
X1347582Y759722D01*
X1350054Y760745D01*
X1352176Y762374D01*
X1353805Y764496D01*
X1354828Y766968D01*
X1355178Y769620D01*
Y777240D01*
X1354828Y779892D01*
X1353805Y782364D01*
X1352176Y784486D01*
X1350054Y786115D01*
X1347582Y787139D01*
X1344930Y787488D01*
D02*
G37*
G36*
X951300Y921540D02*
X932530D01*
Y890270D01*
X951300D01*
Y921540D01*
D02*
G37*
G36*
X929990D02*
X911220D01*
Y890270D01*
X929990D01*
Y921540D01*
D02*
G37*
G36*
X951300Y887730D02*
X932530D01*
Y856460D01*
X951300D01*
Y887730D01*
D02*
G37*
G36*
X929990D02*
X911220D01*
Y856460D01*
X929990D01*
Y887730D01*
D02*
G37*
G36*
X996950Y857920D02*
Y850430D01*
X1004440D01*
X1003871Y852553D01*
X1002714Y854557D01*
X1001077Y856194D01*
X999073Y857351D01*
X996950Y857920D01*
D02*
G37*
G36*
X994410D02*
X992287Y857351D01*
X990283Y856194D01*
X988646Y854557D01*
X987489Y852553D01*
X986920Y850430D01*
X994410D01*
Y857920D01*
D02*
G37*
G36*
X1004440Y847890D02*
X996950D01*
Y840400D01*
X999073Y840969D01*
X1001077Y842126D01*
X1002714Y843763D01*
X1003871Y845767D01*
X1004440Y847890D01*
D02*
G37*
G36*
X994410D02*
X986920D01*
X987489Y845767D01*
X988646Y843763D01*
X990283Y842126D01*
X992287Y840969D01*
X994410Y840400D01*
Y847890D01*
D02*
G37*
G36*
X1045110Y857950D02*
X1027530D01*
Y840370D01*
X1045110D01*
Y857950D01*
D02*
G37*
G36*
X1078117Y857150D02*
X1075803D01*
X1073567Y856551D01*
X1071563Y855394D01*
X1069926Y853757D01*
X1068769Y851753D01*
X1068170Y849517D01*
Y847203D01*
X1068769Y844967D01*
X1069926Y842963D01*
X1071563Y841326D01*
X1073567Y840169D01*
X1075803Y839570D01*
X1078117D01*
X1080353Y840169D01*
X1082357Y841326D01*
X1083994Y842963D01*
X1085151Y844967D01*
X1085750Y847203D01*
Y849517D01*
X1085151Y851753D01*
X1083994Y853757D01*
X1082357Y855394D01*
X1080353Y856551D01*
X1078117Y857150D01*
D02*
G37*
G36*
X982030Y811141D02*
Y803910D01*
X989261D01*
X988718Y805936D01*
X987594Y807884D01*
X986004Y809474D01*
X984056Y810598D01*
X982030Y811141D01*
D02*
G37*
G36*
X979490Y811141D02*
X977464Y810598D01*
X975516Y809474D01*
X973926Y807884D01*
X972802Y805936D01*
X972259Y803910D01*
X979490D01*
Y811141D01*
D02*
G37*
G36*
X989261Y801370D02*
X982030D01*
Y794139D01*
X984056Y794682D01*
X986004Y795806D01*
X987594Y797396D01*
X988718Y799344D01*
X989261Y801370D01*
D02*
G37*
G36*
X979490D02*
X972259D01*
X972802Y799344D01*
X973926Y797396D01*
X975516Y795806D01*
X977464Y794682D01*
X979490Y794139D01*
Y801370D01*
D02*
G37*
G36*
X1009300Y811180D02*
X992220D01*
Y794100D01*
X1009300D01*
Y811180D01*
D02*
G37*
G36*
X941070Y785741D02*
Y778510D01*
X948301D01*
X947758Y780536D01*
X946634Y782484D01*
X945044Y784074D01*
X943096Y785198D01*
X941070Y785741D01*
D02*
G37*
G36*
X938530D02*
X936504Y785198D01*
X934556Y784074D01*
X932966Y782484D01*
X931842Y780536D01*
X931299Y778510D01*
X938530D01*
Y785741D01*
D02*
G37*
G36*
X948301Y775970D02*
X941070D01*
Y768739D01*
X943096Y769282D01*
X945044Y770406D01*
X946634Y771996D01*
X947758Y773944D01*
X948301Y775970D01*
D02*
G37*
G36*
X938530D02*
X931299D01*
X931842Y773944D01*
X932966Y771996D01*
X934556Y770406D01*
X936504Y769282D01*
X938530Y768739D01*
Y775970D01*
D02*
G37*
G36*
X928340Y785780D02*
X911260D01*
Y768700D01*
X928340D01*
Y785780D01*
D02*
G37*
G36*
X986890Y755550D02*
X979370D01*
Y748030D01*
X986890D01*
Y755550D01*
D02*
G37*
G36*
X976830D02*
X969310D01*
Y748030D01*
X976830D01*
Y755550D01*
D02*
G37*
G36*
X1085750Y757150D02*
X1068170D01*
Y739570D01*
X1085750D01*
Y757150D01*
D02*
G37*
G36*
X1004257Y755550D02*
X1001943D01*
X999707Y754951D01*
X997703Y753794D01*
X996066Y752157D01*
X994909Y750153D01*
X994310Y747917D01*
Y745603D01*
X994909Y743367D01*
X996066Y741363D01*
X997703Y739726D01*
X999707Y738569D01*
X1001943Y737970D01*
X1004257D01*
X1006493Y738569D01*
X1008497Y739726D01*
X1010134Y741363D01*
X1011291Y743367D01*
X1011890Y745603D01*
Y747917D01*
X1011291Y750153D01*
X1010134Y752157D01*
X1008497Y753794D01*
X1006493Y754951D01*
X1004257Y755550D01*
D02*
G37*
G36*
X986890Y745490D02*
X979370D01*
Y737970D01*
X986890D01*
Y745490D01*
D02*
G37*
G36*
X976830D02*
X969310D01*
Y737970D01*
X976830D01*
Y745490D01*
D02*
G37*
G36*
X944080Y731520D02*
X935190D01*
Y722630D01*
X944080D01*
Y731520D01*
D02*
G37*
G36*
X932650D02*
X923760D01*
Y722630D01*
X932650D01*
Y731520D01*
D02*
G37*
G36*
X944080Y720090D02*
X935190D01*
Y711200D01*
X944080D01*
Y720090D01*
D02*
G37*
G36*
X932650D02*
X923760D01*
Y711200D01*
X932650D01*
Y720090D01*
D02*
G37*
G36*
X1155954Y877543D02*
X1153793Y876964D01*
X1151765Y875794D01*
X1150110Y874139D01*
X1148940Y872111D01*
X1148361Y869950D01*
X1155954D01*
Y877543D01*
D02*
G37*
G36*
Y867410D02*
X1148361D01*
X1148940Y865249D01*
X1150110Y863221D01*
X1151765Y861566D01*
X1153793Y860396D01*
X1155954Y859817D01*
Y867410D01*
D02*
G37*
G36*
X1146710Y788770D02*
X1139190D01*
Y781250D01*
X1146710D01*
Y788770D01*
D02*
G37*
G36*
X1136650D02*
X1129130D01*
Y781250D01*
X1136650D01*
Y788770D01*
D02*
G37*
G36*
X1146710Y778710D02*
X1139190D01*
Y771190D01*
X1146710D01*
Y778710D01*
D02*
G37*
G36*
X1136650D02*
X1129130D01*
Y771190D01*
X1136650D01*
Y778710D01*
D02*
G37*
G36*
X555060Y892810D02*
X536290D01*
Y861540D01*
X555060D01*
Y892810D01*
D02*
G37*
G36*
X533750D02*
X514980D01*
Y861540D01*
X533750D01*
Y892810D01*
D02*
G37*
G36*
X585630Y806061D02*
Y798830D01*
X592861D01*
X592318Y800856D01*
X591194Y802804D01*
X589604Y804394D01*
X587656Y805518D01*
X585630Y806061D01*
D02*
G37*
G36*
X583090Y806061D02*
X581064Y805518D01*
X579116Y804394D01*
X577526Y802804D01*
X576402Y800856D01*
X575859Y798830D01*
X583090D01*
Y806061D01*
D02*
G37*
G36*
X659030Y811430D02*
X641450D01*
Y793850D01*
X659030D01*
Y811430D01*
D02*
G37*
G36*
X592861Y796290D02*
X585630D01*
Y789059D01*
X587656Y789602D01*
X589604Y790726D01*
X591194Y792316D01*
X592318Y794264D01*
X592861Y796290D01*
D02*
G37*
G36*
X583090D02*
X575859D01*
X576402Y794264D01*
X577526Y792316D01*
X579116Y790726D01*
X581064Y789602D01*
X583090Y789059D01*
Y796290D01*
D02*
G37*
G36*
X612900Y806100D02*
X595820D01*
Y789020D01*
X612900D01*
Y806100D01*
D02*
G37*
G36*
X539590Y795901D02*
Y788670D01*
X546821D01*
X546278Y790696D01*
X545154Y792644D01*
X543564Y794234D01*
X541616Y795358D01*
X539590Y795901D01*
D02*
G37*
G36*
X537050D02*
X535024Y795358D01*
X533076Y794234D01*
X531486Y792644D01*
X530362Y790696D01*
X529819Y788670D01*
X537050D01*
Y795901D01*
D02*
G37*
G36*
X546821Y786130D02*
X539590D01*
Y778899D01*
X541616Y779442D01*
X543564Y780566D01*
X545154Y782156D01*
X546278Y784104D01*
X546821Y786130D01*
D02*
G37*
G36*
X537050D02*
X529819D01*
X530362Y784104D01*
X531486Y782156D01*
X533076Y780566D01*
X535024Y779442D01*
X537050Y778899D01*
Y786130D01*
D02*
G37*
G36*
X526860Y795940D02*
X509780D01*
Y778860D01*
X526860D01*
Y795940D01*
D02*
G37*
G36*
X651397Y786430D02*
X649083D01*
X646847Y785831D01*
X644843Y784674D01*
X643206Y783037D01*
X642049Y781033D01*
X641450Y778797D01*
Y776483D01*
X642049Y774247D01*
X643206Y772243D01*
X644843Y770606D01*
X646847Y769449D01*
X649083Y768850D01*
X651397D01*
X653633Y769449D01*
X655637Y770606D01*
X657274Y772243D01*
X658431Y774247D01*
X659030Y776483D01*
Y778797D01*
X658431Y781033D01*
X657274Y783037D01*
X655637Y784674D01*
X653633Y785831D01*
X651397Y786430D01*
D02*
G37*
G36*
X563080Y736600D02*
X554190D01*
Y727710D01*
X563080D01*
Y736600D01*
D02*
G37*
G36*
X595730Y735230D02*
X588210D01*
Y727710D01*
X595730D01*
Y735230D01*
D02*
G37*
G36*
X585670D02*
X578150D01*
Y727710D01*
X585670D01*
Y735230D01*
D02*
G37*
G36*
X551650Y736600D02*
X542760D01*
Y727710D01*
X551650D01*
Y736600D01*
D02*
G37*
G36*
X613097Y735230D02*
X610783D01*
X608547Y734631D01*
X606543Y733474D01*
X604906Y731837D01*
X603749Y729833D01*
X603150Y727597D01*
Y725283D01*
X603749Y723047D01*
X604906Y721043D01*
X606543Y719406D01*
X608547Y718249D01*
X610783Y717650D01*
X613097D01*
X615333Y718249D01*
X617337Y719406D01*
X618974Y721043D01*
X620131Y723047D01*
X620730Y725283D01*
Y727597D01*
X620131Y729833D01*
X618974Y731837D01*
X617337Y733474D01*
X615333Y734631D01*
X613097Y735230D01*
D02*
G37*
G36*
X595730Y725170D02*
X588210D01*
Y717650D01*
X595730D01*
Y725170D01*
D02*
G37*
G36*
X585670D02*
X578150D01*
Y717650D01*
X585670D01*
Y725170D01*
D02*
G37*
G36*
X563080D02*
X554190D01*
Y716280D01*
X563080D01*
Y725170D01*
D02*
G37*
G36*
X551650D02*
X542760D01*
Y716280D01*
X551650D01*
Y725170D01*
D02*
G37*
G36*
X740410Y852170D02*
X726774D01*
X726990Y851083D01*
X727942Y849659D01*
Y847945D01*
X727710Y847713D01*
Y839470D01*
X735303D01*
X734724Y841631D01*
X733952Y842968D01*
X734574Y843589D01*
X735416Y844849D01*
X735711Y846336D01*
Y847282D01*
X740410D01*
Y852170D01*
D02*
G37*
G36*
X725170Y847063D02*
X723009Y846484D01*
X720981Y845314D01*
X719326Y843659D01*
X718156Y841631D01*
X717577Y839470D01*
X725170D01*
Y847063D01*
D02*
G37*
G36*
X735303Y836930D02*
X727710D01*
Y829337D01*
X729871Y829916D01*
X731899Y831086D01*
X733554Y832741D01*
X734724Y834769D01*
X735303Y836930D01*
D02*
G37*
G36*
X725170D02*
X717577D01*
X718156Y834769D01*
X719326Y832741D01*
X720981Y831086D01*
X723009Y829916D01*
X725170Y829337D01*
Y836930D01*
D02*
G37*
G36*
X835258Y731520D02*
X835190D01*
Y722630D01*
X844080D01*
Y722698D01*
X843388Y725282D01*
X842050Y727598D01*
X840158Y729490D01*
X837842Y730828D01*
X835258Y731520D01*
D02*
G37*
G36*
X832650D02*
X832582D01*
X829998Y730828D01*
X827682Y729490D01*
X825790Y727598D01*
X824452Y725282D01*
X823760Y722698D01*
Y722630D01*
X832650D01*
Y731520D01*
D02*
G37*
G36*
X1348338Y721360D02*
X1348270D01*
Y712470D01*
X1357160D01*
Y712538D01*
X1356468Y715122D01*
X1355130Y717438D01*
X1353238Y719330D01*
X1350922Y720668D01*
X1348338Y721360D01*
D02*
G37*
G36*
X1345730D02*
X1345662D01*
X1343078Y720668D01*
X1340762Y719330D01*
X1338870Y717438D01*
X1337532Y715122D01*
X1336840Y712538D01*
Y712470D01*
X1345730D01*
Y721360D01*
D02*
G37*
G36*
X844080Y720090D02*
X835190D01*
Y711200D01*
X835258D01*
X837842Y711892D01*
X840158Y713230D01*
X842050Y715122D01*
X843388Y717438D01*
X844080Y720022D01*
Y720090D01*
D02*
G37*
G36*
X832650D02*
X823760D01*
Y720022D01*
X824452Y717438D01*
X825790Y715122D01*
X827682Y713230D01*
X829998Y711892D01*
X832582Y711200D01*
X832650D01*
Y720090D01*
D02*
G37*
G36*
X1357160Y709930D02*
X1348270D01*
Y701040D01*
X1348338D01*
X1350922Y701732D01*
X1353238Y703070D01*
X1355130Y704962D01*
X1356468Y707278D01*
X1357160Y709862D01*
Y709930D01*
D02*
G37*
G36*
X1345730D02*
X1336840D01*
Y709862D01*
X1337532Y707278D01*
X1338870Y704962D01*
X1340762Y703070D01*
X1343078Y701732D01*
X1345662Y701040D01*
X1345730D01*
Y709930D01*
D02*
G37*
G36*
X954278Y683995D02*
Y676402D01*
X961871D01*
X961292Y678563D01*
X960122Y680591D01*
X958467Y682246D01*
X956439Y683416D01*
X954278Y683995D01*
D02*
G37*
G36*
X951738D02*
X949577Y683416D01*
X947549Y682246D01*
X945894Y680591D01*
X944724Y678563D01*
X944145Y676402D01*
X951738D01*
Y683995D01*
D02*
G37*
G36*
X903732Y681709D02*
Y674116D01*
X911325D01*
X910746Y676277D01*
X909576Y678305D01*
X907921Y679960D01*
X905893Y681130D01*
X903732Y681709D01*
D02*
G37*
G36*
X901192D02*
X899031Y681130D01*
X897003Y679960D01*
X895348Y678305D01*
X894178Y676277D01*
X893599Y674116D01*
X901192D01*
Y681709D01*
D02*
G37*
G36*
X961871Y673862D02*
X954278D01*
Y666269D01*
X956439Y666848D01*
X958467Y668018D01*
X960122Y669673D01*
X961292Y671701D01*
X961871Y673862D01*
D02*
G37*
G36*
X951738D02*
X944145D01*
X944724Y671701D01*
X945894Y669673D01*
X947549Y668018D01*
X949577Y666848D01*
X951738Y666269D01*
Y673862D01*
D02*
G37*
G36*
X911325Y671576D02*
X903732D01*
Y663983D01*
X905893Y664562D01*
X907921Y665732D01*
X909576Y667387D01*
X910746Y669415D01*
X911325Y671576D01*
D02*
G37*
G36*
X901192D02*
X893599D01*
X894178Y669415D01*
X895348Y667387D01*
X897003Y665732D01*
X899031Y664562D01*
X901192Y663983D01*
Y671576D01*
D02*
G37*
G36*
X636270Y669263D02*
Y661670D01*
X643863D01*
X643284Y663831D01*
X642114Y665859D01*
X640459Y667514D01*
X638431Y668684D01*
X636270Y669263D01*
D02*
G37*
G36*
X633730D02*
X631569Y668684D01*
X629541Y667514D01*
X627886Y665859D01*
X626716Y663831D01*
X626137Y661670D01*
X633730D01*
Y669263D01*
D02*
G37*
G36*
X579120D02*
Y661670D01*
X586713D01*
X586134Y663831D01*
X584964Y665859D01*
X583309Y667514D01*
X581281Y668684D01*
X579120Y669263D01*
D02*
G37*
G36*
X576580D02*
X574419Y668684D01*
X572391Y667514D01*
X570736Y665859D01*
X569566Y663831D01*
X568987Y661670D01*
X576580D01*
Y669263D01*
D02*
G37*
G36*
X1022668Y667385D02*
X1022350D01*
Y656590D01*
X1033145D01*
Y656908D01*
X1032323Y659977D01*
X1030734Y662728D01*
X1028488Y664974D01*
X1025737Y666563D01*
X1022668Y667385D01*
D02*
G37*
G36*
X697548D02*
X697230D01*
Y656590D01*
X708025D01*
Y656908D01*
X707203Y659977D01*
X705614Y662728D01*
X703368Y664974D01*
X700617Y666563D01*
X697548Y667385D01*
D02*
G37*
G36*
X1019810D02*
X1019492D01*
X1016423Y666563D01*
X1013672Y664974D01*
X1011426Y662728D01*
X1009837Y659977D01*
X1009015Y656908D01*
Y656590D01*
X1019810D01*
Y667385D01*
D02*
G37*
G36*
X694690D02*
X694372D01*
X691303Y666563D01*
X688552Y664974D01*
X686306Y662728D01*
X684717Y659977D01*
X683895Y656908D01*
Y656590D01*
X694690D01*
Y667385D01*
D02*
G37*
G36*
X1328420Y662913D02*
Y655320D01*
X1336013D01*
X1335434Y657481D01*
X1334264Y659509D01*
X1332609Y661164D01*
X1330581Y662334D01*
X1328420Y662913D01*
D02*
G37*
G36*
X1325880D02*
X1323719Y662334D01*
X1321691Y661164D01*
X1320036Y659509D01*
X1318866Y657481D01*
X1318287Y655320D01*
X1325880D01*
Y662913D01*
D02*
G37*
G36*
X1271270D02*
Y655320D01*
X1278863D01*
X1278284Y657481D01*
X1277114Y659509D01*
X1275459Y661164D01*
X1273431Y662334D01*
X1271270Y662913D01*
D02*
G37*
G36*
X1268730D02*
X1266569Y662334D01*
X1264541Y661164D01*
X1262886Y659509D01*
X1261716Y657481D01*
X1261137Y655320D01*
X1268730D01*
Y662913D01*
D02*
G37*
G36*
X643863Y659130D02*
X636270D01*
Y651537D01*
X638431Y652116D01*
X640459Y653286D01*
X642114Y654941D01*
X643284Y656969D01*
X643863Y659130D01*
D02*
G37*
G36*
X633730D02*
X626137D01*
X626716Y656969D01*
X627886Y654941D01*
X629541Y653286D01*
X631569Y652116D01*
X633730Y651537D01*
Y659130D01*
D02*
G37*
G36*
X586713D02*
X579120D01*
Y651537D01*
X581281Y652116D01*
X583309Y653286D01*
X584964Y654941D01*
X586134Y656969D01*
X586713Y659130D01*
D02*
G37*
G36*
X576580D02*
X568987D01*
X569566Y656969D01*
X570736Y654941D01*
X572391Y653286D01*
X574419Y652116D01*
X576580Y651537D01*
Y659130D01*
D02*
G37*
G36*
X1396668Y657305D02*
X1396350D01*
Y646510D01*
X1407145D01*
Y646828D01*
X1406323Y649897D01*
X1404734Y652648D01*
X1402488Y654894D01*
X1399737Y656483D01*
X1396668Y657305D01*
D02*
G37*
G36*
X1393810D02*
X1393492D01*
X1390423Y656483D01*
X1387672Y654894D01*
X1385426Y652648D01*
X1383837Y649897D01*
X1383015Y646828D01*
Y646510D01*
X1393810D01*
Y657305D01*
D02*
G37*
G36*
X1336013Y652780D02*
X1328420D01*
Y645187D01*
X1330581Y645766D01*
X1332609Y646936D01*
X1334264Y648591D01*
X1335434Y650619D01*
X1336013Y652780D01*
D02*
G37*
G36*
X1325880D02*
X1318287D01*
X1318866Y650619D01*
X1320036Y648591D01*
X1321691Y646936D01*
X1323719Y645766D01*
X1325880Y645187D01*
Y652780D01*
D02*
G37*
G36*
X1278863D02*
X1271270D01*
Y645187D01*
X1273431Y645766D01*
X1275459Y646936D01*
X1277114Y648591D01*
X1278284Y650619D01*
X1278863Y652780D01*
D02*
G37*
G36*
X1268730D02*
X1261137D01*
X1261716Y650619D01*
X1262886Y648591D01*
X1264541Y646936D01*
X1266569Y645766D01*
X1268730Y645187D01*
Y652780D01*
D02*
G37*
G36*
X1033145Y654050D02*
X1022350D01*
Y643255D01*
X1022668D01*
X1025737Y644077D01*
X1028488Y645666D01*
X1030734Y647912D01*
X1032323Y650663D01*
X1033145Y653732D01*
Y654050D01*
D02*
G37*
G36*
X1019810D02*
X1009015D01*
Y653732D01*
X1009837Y650663D01*
X1011426Y647912D01*
X1013672Y645666D01*
X1016423Y644077D01*
X1019492Y643255D01*
X1019810D01*
Y654050D01*
D02*
G37*
G36*
X708025D02*
X697230D01*
Y643255D01*
X697548D01*
X700617Y644077D01*
X703368Y645666D01*
X705614Y647912D01*
X707203Y650663D01*
X708025Y653732D01*
Y654050D01*
D02*
G37*
G36*
X694690D02*
X683895D01*
Y653732D01*
X684717Y650663D01*
X686306Y647912D01*
X688552Y645666D01*
X691303Y644077D01*
X694372Y643255D01*
X694690D01*
Y654050D01*
D02*
G37*
G36*
X953770Y650213D02*
Y642620D01*
X961363D01*
X960784Y644781D01*
X959614Y646809D01*
X957959Y648464D01*
X955931Y649634D01*
X953770Y650213D01*
D02*
G37*
G36*
X951230D02*
X949069Y649634D01*
X947041Y648464D01*
X945386Y646809D01*
X944216Y644781D01*
X943637Y642620D01*
X951230D01*
Y650213D01*
D02*
G37*
G36*
X902970D02*
Y642620D01*
X910563D01*
X909984Y644781D01*
X908814Y646809D01*
X907159Y648464D01*
X905131Y649634D01*
X902970Y650213D01*
D02*
G37*
G36*
X900430D02*
X898269Y649634D01*
X896241Y648464D01*
X894586Y646809D01*
X893416Y644781D01*
X892837Y642620D01*
X900430D01*
Y650213D01*
D02*
G37*
G36*
X1138849Y694690D02*
X1134451D01*
X1130107Y694002D01*
X1125925Y692643D01*
X1122006Y690646D01*
X1118448Y688061D01*
X1115339Y684952D01*
X1112754Y681394D01*
X1110757Y677475D01*
X1109398Y673293D01*
X1108710Y668949D01*
Y664551D01*
X1109398Y660207D01*
X1110757Y656025D01*
X1112754Y652106D01*
X1115339Y648548D01*
X1118448Y645439D01*
X1122006Y642854D01*
X1125925Y640857D01*
X1130107Y639498D01*
X1134451Y638810D01*
X1138849D01*
X1143193Y639498D01*
X1147375Y640857D01*
X1151294Y642854D01*
X1154852Y645439D01*
X1157961Y648548D01*
X1160546Y652106D01*
X1162543Y656025D01*
X1163902Y660207D01*
X1164590Y664551D01*
Y668949D01*
X1163902Y673293D01*
X1162543Y677475D01*
X1160546Y681394D01*
X1157961Y684952D01*
X1154852Y688061D01*
X1151294Y690646D01*
X1147375Y692643D01*
X1143193Y694002D01*
X1138849Y694690D01*
D02*
G37*
G36*
X770549D02*
X766151D01*
X761807Y694002D01*
X757625Y692643D01*
X753706Y690646D01*
X750148Y688061D01*
X747039Y684952D01*
X744454Y681394D01*
X742457Y677475D01*
X741098Y673293D01*
X740410Y668949D01*
Y664551D01*
X741098Y660207D01*
X742457Y656025D01*
X744454Y652106D01*
X747039Y648548D01*
X750148Y645439D01*
X753706Y642854D01*
X757625Y640857D01*
X761807Y639498D01*
X766151Y638810D01*
X770549D01*
X774893Y639498D01*
X779075Y640857D01*
X782994Y642854D01*
X786552Y645439D01*
X789661Y648548D01*
X792246Y652106D01*
X794243Y656025D01*
X795602Y660207D01*
X796290Y664551D01*
Y668949D01*
X795602Y673293D01*
X794243Y677475D01*
X792246Y681394D01*
X789661Y684952D01*
X786552Y688061D01*
X782994Y690646D01*
X779075Y692643D01*
X774893Y694002D01*
X770549Y694690D01*
D02*
G37*
G36*
X1407145Y643970D02*
X1396350D01*
Y633175D01*
X1396668D01*
X1399737Y633997D01*
X1402488Y635586D01*
X1404734Y637832D01*
X1406323Y640583D01*
X1407145Y643652D01*
Y643970D01*
D02*
G37*
G36*
X1393810D02*
X1383015D01*
Y643652D01*
X1383837Y640583D01*
X1385426Y637832D01*
X1387672Y635586D01*
X1390423Y633997D01*
X1393492Y633175D01*
X1393810D01*
Y643970D01*
D02*
G37*
G36*
X961363Y640080D02*
X953770D01*
Y632487D01*
X955931Y633066D01*
X957959Y634236D01*
X959614Y635891D01*
X960784Y637919D01*
X961363Y640080D01*
D02*
G37*
G36*
X951230D02*
X943637D01*
X944216Y637919D01*
X945386Y635891D01*
X947041Y634236D01*
X949069Y633066D01*
X951230Y632487D01*
Y640080D01*
D02*
G37*
G36*
X910563D02*
X902970D01*
Y632487D01*
X905131Y633066D01*
X907159Y634236D01*
X908814Y635891D01*
X909984Y637919D01*
X910563Y640080D01*
D02*
G37*
G36*
X900430D02*
X892837D01*
X893416Y637919D01*
X894586Y635891D01*
X896241Y634236D01*
X898269Y633066D01*
X900430Y632487D01*
Y640080D01*
D02*
G37*
G36*
X636270Y631163D02*
Y623570D01*
X643863D01*
X643284Y625731D01*
X642114Y627759D01*
X640459Y629414D01*
X638431Y630584D01*
X636270Y631163D01*
D02*
G37*
G36*
X633730D02*
X631569Y630584D01*
X629541Y629414D01*
X627886Y627759D01*
X626716Y625731D01*
X626137Y623570D01*
X633730D01*
Y631163D01*
D02*
G37*
G36*
X579120D02*
Y623570D01*
X586713D01*
X586134Y625731D01*
X584964Y627759D01*
X583309Y629414D01*
X581281Y630584D01*
X579120Y631163D01*
D02*
G37*
G36*
X576580D02*
X574419Y630584D01*
X572391Y629414D01*
X570736Y627759D01*
X569566Y625731D01*
X568987Y623570D01*
X576580D01*
Y631163D01*
D02*
G37*
G36*
X1328420Y624813D02*
Y617220D01*
X1336013D01*
X1335434Y619381D01*
X1334264Y621409D01*
X1332609Y623064D01*
X1330581Y624234D01*
X1328420Y624813D01*
D02*
G37*
G36*
X1325880D02*
X1323719Y624234D01*
X1321691Y623064D01*
X1320036Y621409D01*
X1318866Y619381D01*
X1318287Y617220D01*
X1325880D01*
Y624813D01*
D02*
G37*
G36*
X1271270D02*
Y617220D01*
X1278863D01*
X1278284Y619381D01*
X1277114Y621409D01*
X1275459Y623064D01*
X1273431Y624234D01*
X1271270Y624813D01*
D02*
G37*
G36*
X1268730D02*
X1266569Y624234D01*
X1264541Y623064D01*
X1262886Y621409D01*
X1261716Y619381D01*
X1261137Y617220D01*
X1268730D01*
Y624813D01*
D02*
G37*
G36*
X643863Y621030D02*
X636270D01*
Y613437D01*
X638431Y614016D01*
X640459Y615186D01*
X642114Y616841D01*
X643284Y618869D01*
X643863Y621030D01*
D02*
G37*
G36*
X633730D02*
X626137D01*
X626716Y618869D01*
X627886Y616841D01*
X629541Y615186D01*
X631569Y614016D01*
X633730Y613437D01*
Y621030D01*
D02*
G37*
G36*
X586713D02*
X579120D01*
Y613437D01*
X581281Y614016D01*
X583309Y615186D01*
X584964Y616841D01*
X586134Y618869D01*
X586713Y621030D01*
D02*
G37*
G36*
X576580D02*
X568987D01*
X569566Y618869D01*
X570736Y616841D01*
X572391Y615186D01*
X574419Y614016D01*
X576580Y613437D01*
Y621030D01*
D02*
G37*
G36*
X1336013Y614680D02*
X1328420D01*
Y607087D01*
X1330581Y607666D01*
X1332609Y608836D01*
X1334264Y610491D01*
X1335434Y612519D01*
X1336013Y614680D01*
D02*
G37*
G36*
X1325880D02*
X1318287D01*
X1318866Y612519D01*
X1320036Y610491D01*
X1321691Y608836D01*
X1323719Y607666D01*
X1325880Y607087D01*
Y614680D01*
D02*
G37*
G36*
X1278863D02*
X1271270D01*
Y607087D01*
X1273431Y607666D01*
X1275459Y608836D01*
X1277114Y610491D01*
X1278284Y612519D01*
X1278863Y614680D01*
D02*
G37*
G36*
X1268730D02*
X1261137D01*
X1261716Y612519D01*
X1262886Y610491D01*
X1264541Y608836D01*
X1266569Y607666D01*
X1268730Y607087D01*
Y614680D01*
D02*
G37*
G36*
X953770Y612113D02*
Y604520D01*
X961363D01*
X960784Y606681D01*
X959614Y608709D01*
X957959Y610364D01*
X955931Y611534D01*
X953770Y612113D01*
D02*
G37*
G36*
X951230D02*
X949069Y611534D01*
X947041Y610364D01*
X945386Y608709D01*
X944216Y606681D01*
X943637Y604520D01*
X951230D01*
Y612113D01*
D02*
G37*
G36*
X902970D02*
Y604520D01*
X910563D01*
X909984Y606681D01*
X908814Y608709D01*
X907159Y610364D01*
X905131Y611534D01*
X902970Y612113D01*
D02*
G37*
G36*
X900430D02*
X898269Y611534D01*
X896241Y610364D01*
X894586Y608709D01*
X893416Y606681D01*
X892837Y604520D01*
X900430D01*
Y612113D01*
D02*
G37*
G36*
X961363Y601980D02*
X953770D01*
Y594387D01*
X955931Y594966D01*
X957959Y596136D01*
X959614Y597791D01*
X960784Y599819D01*
X961363Y601980D01*
D02*
G37*
G36*
X951230D02*
X943637D01*
X944216Y599819D01*
X945386Y597791D01*
X947041Y596136D01*
X949069Y594966D01*
X951230Y594387D01*
Y601980D01*
D02*
G37*
G36*
X910563D02*
X902970D01*
Y594387D01*
X905131Y594966D01*
X907159Y596136D01*
X908814Y597791D01*
X909984Y599819D01*
X910563Y601980D01*
D02*
G37*
G36*
X900430D02*
X892837D01*
X893416Y599819D01*
X894586Y597791D01*
X896241Y596136D01*
X898269Y594966D01*
X900430Y594387D01*
Y601980D01*
D02*
G37*
G36*
X636270Y586713D02*
Y579120D01*
X643863D01*
X643284Y581281D01*
X642114Y583309D01*
X640459Y584964D01*
X638431Y586134D01*
X636270Y586713D01*
D02*
G37*
G36*
X633730D02*
X631569Y586134D01*
X629541Y584964D01*
X627886Y583309D01*
X626716Y581281D01*
X626137Y579120D01*
X633730D01*
Y586713D01*
D02*
G37*
G36*
X579120D02*
Y579120D01*
X586713D01*
X586134Y581281D01*
X584964Y583309D01*
X583309Y584964D01*
X581281Y586134D01*
X579120Y586713D01*
D02*
G37*
G36*
X576580D02*
X574419Y586134D01*
X572391Y584964D01*
X570736Y583309D01*
X569566Y581281D01*
X568987Y579120D01*
X576580D01*
Y586713D01*
D02*
G37*
G36*
X1446530Y594448D02*
X1438910D01*
X1436258Y594099D01*
X1433786Y593075D01*
X1431664Y591446D01*
X1430035Y589324D01*
X1429012Y586852D01*
X1428662Y584200D01*
X1429012Y581548D01*
X1430035Y579076D01*
X1431664Y576954D01*
X1433786Y575325D01*
X1436258Y574301D01*
X1438910Y573952D01*
X1446530D01*
X1449182Y574301D01*
X1451654Y575325D01*
X1453776Y576954D01*
X1455405Y579076D01*
X1456429Y581548D01*
X1456778Y584200D01*
X1456429Y586852D01*
X1455405Y589324D01*
X1453776Y591446D01*
X1451654Y593075D01*
X1449182Y594099D01*
X1446530Y594448D01*
D02*
G37*
G36*
X1328420Y580363D02*
Y572770D01*
X1336013D01*
X1335434Y574931D01*
X1334264Y576959D01*
X1332609Y578614D01*
X1330581Y579784D01*
X1328420Y580363D01*
D02*
G37*
G36*
X1325880D02*
X1323719Y579784D01*
X1321691Y578614D01*
X1320036Y576959D01*
X1318866Y574931D01*
X1318287Y572770D01*
X1325880D01*
Y580363D01*
D02*
G37*
G36*
X1271270D02*
Y572770D01*
X1278863D01*
X1278284Y574931D01*
X1277114Y576959D01*
X1275459Y578614D01*
X1273431Y579784D01*
X1271270Y580363D01*
D02*
G37*
G36*
X1268730D02*
X1266569Y579784D01*
X1264541Y578614D01*
X1262886Y576959D01*
X1261716Y574931D01*
X1261137Y572770D01*
X1268730D01*
Y580363D01*
D02*
G37*
G36*
X1080770Y591908D02*
X1073150D01*
X1070498Y591558D01*
X1068026Y590535D01*
X1065904Y588906D01*
X1064275Y586784D01*
X1063251Y584312D01*
X1062902Y581660D01*
X1063251Y579008D01*
X1064275Y576536D01*
X1065904Y574414D01*
X1068026Y572785D01*
X1070498Y571762D01*
X1073150Y571412D01*
X1080770D01*
X1083422Y571762D01*
X1085894Y572785D01*
X1088016Y574414D01*
X1089645Y576536D01*
X1090668Y579008D01*
X1091018Y581660D01*
X1090668Y584312D01*
X1089645Y586784D01*
X1088016Y588906D01*
X1085894Y590535D01*
X1083422Y591558D01*
X1080770Y591908D01*
D02*
G37*
G36*
X643863Y576580D02*
X636270D01*
Y568987D01*
X638431Y569566D01*
X640459Y570736D01*
X642114Y572391D01*
X643284Y574419D01*
X643863Y576580D01*
D02*
G37*
G36*
X633730D02*
X626137D01*
X626716Y574419D01*
X627886Y572391D01*
X629541Y570736D01*
X631569Y569566D01*
X633730Y568987D01*
Y576580D01*
D02*
G37*
G36*
X586713D02*
X579120D01*
Y568987D01*
X581281Y569566D01*
X583309Y570736D01*
X584964Y572391D01*
X586134Y574419D01*
X586713Y576580D01*
D02*
G37*
G36*
X576580D02*
X568987D01*
X569566Y574419D01*
X570736Y572391D01*
X572391Y570736D01*
X574419Y569566D01*
X576580Y568987D01*
Y576580D01*
D02*
G37*
G36*
X765810Y584288D02*
X758190D01*
X755538Y583938D01*
X753066Y582915D01*
X750944Y581286D01*
X749315Y579164D01*
X748291Y576692D01*
X747942Y574040D01*
X748291Y571388D01*
X749315Y568916D01*
X750944Y566794D01*
X753066Y565165D01*
X755538Y564142D01*
X758190Y563792D01*
X765810D01*
X768462Y564142D01*
X770934Y565165D01*
X773056Y566794D01*
X774685Y568916D01*
X775708Y571388D01*
X776058Y574040D01*
X775708Y576692D01*
X774685Y579164D01*
X773056Y581286D01*
X770934Y582915D01*
X768462Y583938D01*
X765810Y584288D01*
D02*
G37*
G36*
X1336013Y570230D02*
X1328420D01*
Y562637D01*
X1330581Y563216D01*
X1332609Y564386D01*
X1334264Y566041D01*
X1335434Y568069D01*
X1336013Y570230D01*
D02*
G37*
G36*
X1325880D02*
X1318287D01*
X1318866Y568069D01*
X1320036Y566041D01*
X1321691Y564386D01*
X1323719Y563216D01*
X1325880Y562637D01*
Y570230D01*
D02*
G37*
G36*
X1278863D02*
X1271270D01*
Y562637D01*
X1273431Y563216D01*
X1275459Y564386D01*
X1277114Y566041D01*
X1278284Y568069D01*
X1278863Y570230D01*
D02*
G37*
G36*
X1268730D02*
X1261137D01*
X1261716Y568069D01*
X1262886Y566041D01*
X1264541Y564386D01*
X1266569Y563216D01*
X1268730Y562637D01*
Y570230D01*
D02*
G37*
G36*
X1446530Y569048D02*
X1443990D01*
Y560070D01*
X1456611D01*
X1456429Y561452D01*
X1455405Y563924D01*
X1453776Y566046D01*
X1451654Y567675D01*
X1449182Y568699D01*
X1446530Y569048D01*
D02*
G37*
G36*
X1441450D02*
X1438910D01*
X1436258Y568699D01*
X1433786Y567675D01*
X1431664Y566046D01*
X1430035Y563924D01*
X1429012Y561452D01*
X1428829Y560070D01*
X1441450D01*
Y569048D01*
D02*
G37*
G36*
X1080770Y566508D02*
X1078230D01*
Y557530D01*
X1090851D01*
X1090668Y558912D01*
X1089645Y561384D01*
X1088016Y563506D01*
X1085894Y565135D01*
X1083422Y566158D01*
X1080770Y566508D01*
D02*
G37*
G36*
X1075690D02*
X1073150D01*
X1070498Y566158D01*
X1068026Y565135D01*
X1065904Y563506D01*
X1064275Y561384D01*
X1063251Y558912D01*
X1063070Y557530D01*
X1075690D01*
Y566508D01*
D02*
G37*
G36*
X765810Y558888D02*
X763270D01*
Y549910D01*
X775891D01*
X775708Y551292D01*
X774685Y553764D01*
X773056Y555886D01*
X770934Y557515D01*
X768462Y558539D01*
X765810Y558888D01*
D02*
G37*
G36*
X760730D02*
X758190D01*
X755538Y558539D01*
X753066Y557515D01*
X750944Y555886D01*
X749315Y553764D01*
X748291Y551292D01*
X748110Y549910D01*
X760730D01*
Y558888D01*
D02*
G37*
G36*
X1456611Y557530D02*
X1443990D01*
Y548552D01*
X1446530D01*
X1449182Y548901D01*
X1451654Y549925D01*
X1453776Y551554D01*
X1455405Y553676D01*
X1456429Y556148D01*
X1456611Y557530D01*
D02*
G37*
G36*
X1441450D02*
X1428829D01*
X1429012Y556148D01*
X1430035Y553676D01*
X1431664Y551554D01*
X1433786Y549925D01*
X1436258Y548901D01*
X1438910Y548552D01*
X1441450D01*
Y557530D01*
D02*
G37*
G36*
X1090851Y554990D02*
X1078230D01*
Y546012D01*
X1080770D01*
X1083422Y546362D01*
X1085894Y547385D01*
X1088016Y549014D01*
X1089645Y551136D01*
X1090668Y553608D01*
X1090851Y554990D01*
D02*
G37*
G36*
X1075690D02*
X1063070D01*
X1063251Y553608D01*
X1064275Y551136D01*
X1065904Y549014D01*
X1068026Y547385D01*
X1070498Y546362D01*
X1073150Y546012D01*
X1075690D01*
Y554990D01*
D02*
G37*
G36*
X1583590Y942710D02*
X1566010D01*
Y925130D01*
X1583590D01*
Y942710D01*
D02*
G37*
G36*
X1540397D02*
X1538083D01*
X1535847Y942111D01*
X1533843Y940954D01*
X1532206Y939317D01*
X1531049Y937313D01*
X1530450Y935077D01*
Y932763D01*
X1531049Y930527D01*
X1532206Y928523D01*
X1533843Y926886D01*
X1535847Y925729D01*
X1538083Y925130D01*
X1540397D01*
X1542633Y925729D01*
X1544637Y926886D01*
X1546274Y928523D01*
X1547431Y930527D01*
X1548030Y932763D01*
Y935077D01*
X1547431Y937313D01*
X1546274Y939317D01*
X1544637Y940954D01*
X1542633Y942111D01*
X1540397Y942710D01*
D02*
G37*
G36*
X1512470D02*
X1494890D01*
Y925130D01*
X1512470D01*
Y942710D01*
D02*
G37*
G36*
X1455840Y916460D02*
X1437070D01*
Y885190D01*
X1455840D01*
Y916460D01*
D02*
G37*
G36*
X1434530D02*
X1415760D01*
Y885190D01*
X1434530D01*
Y916460D01*
D02*
G37*
G36*
X1455840Y882650D02*
X1437070D01*
Y851380D01*
X1455840D01*
Y882650D01*
D02*
G37*
G36*
X1434530D02*
X1415760D01*
Y851380D01*
X1434530D01*
Y882650D01*
D02*
G37*
G36*
X1504950Y842680D02*
Y835190D01*
X1512440D01*
X1511871Y837313D01*
X1510714Y839317D01*
X1509077Y840954D01*
X1507073Y842111D01*
X1504950Y842680D01*
D02*
G37*
G36*
X1502410D02*
X1500287Y842111D01*
X1498283Y840954D01*
X1496646Y839317D01*
X1495489Y837313D01*
X1494920Y835190D01*
X1502410D01*
Y842680D01*
D02*
G37*
G36*
X1512440Y832650D02*
X1504950D01*
Y825160D01*
X1507073Y825729D01*
X1509077Y826886D01*
X1510714Y828523D01*
X1511871Y830527D01*
X1512440Y832650D01*
D02*
G37*
G36*
X1502410D02*
X1494920D01*
X1495489Y830527D01*
X1496646Y828523D01*
X1498283Y826886D01*
X1500287Y825729D01*
X1502410Y825160D01*
Y832650D01*
D02*
G37*
G36*
X1575957Y842710D02*
X1573643D01*
X1571407Y842111D01*
X1569403Y840954D01*
X1567766Y839317D01*
X1566609Y837313D01*
X1566010Y835077D01*
Y832763D01*
X1566609Y830527D01*
X1567766Y828523D01*
X1569403Y826886D01*
X1571407Y825729D01*
X1573643Y825130D01*
X1575957D01*
X1578193Y825729D01*
X1580197Y826886D01*
X1581834Y828523D01*
X1582991Y830527D01*
X1583590Y832763D01*
Y835077D01*
X1582991Y837313D01*
X1581834Y839317D01*
X1580197Y840954D01*
X1578193Y842111D01*
X1575957Y842710D01*
D02*
G37*
G36*
X1548030D02*
X1530450D01*
Y825130D01*
X1548030D01*
Y842710D01*
D02*
G37*
G36*
X1489870Y790821D02*
Y783590D01*
X1497101D01*
X1496558Y785616D01*
X1495434Y787564D01*
X1493844Y789154D01*
X1491896Y790278D01*
X1489870Y790821D01*
D02*
G37*
G36*
X1443670D02*
Y783590D01*
X1450901D01*
X1450358Y785616D01*
X1449234Y787564D01*
X1447644Y789154D01*
X1445696Y790278D01*
X1443670Y790821D01*
D02*
G37*
G36*
X1441130D02*
X1439104Y790278D01*
X1437156Y789154D01*
X1435566Y787564D01*
X1434442Y785616D01*
X1433899Y783590D01*
X1441130D01*
Y790821D01*
D02*
G37*
G36*
X1487330Y790821D02*
X1485304Y790278D01*
X1483356Y789154D01*
X1481766Y787564D01*
X1480642Y785616D01*
X1480099Y783590D01*
X1487330D01*
Y790821D01*
D02*
G37*
G36*
X1497101Y781050D02*
X1489870D01*
Y773819D01*
X1491896Y774362D01*
X1493844Y775486D01*
X1495434Y777076D01*
X1496558Y779024D01*
X1497101Y781050D01*
D02*
G37*
G36*
X1450901D02*
X1443670D01*
Y773819D01*
X1445696Y774362D01*
X1447644Y775486D01*
X1449234Y777076D01*
X1450358Y779024D01*
X1450901Y781050D01*
D02*
G37*
G36*
X1441130D02*
X1433899D01*
X1434442Y779024D01*
X1435566Y777076D01*
X1437156Y775486D01*
X1439104Y774362D01*
X1441130Y773819D01*
Y781050D01*
D02*
G37*
G36*
X1487330D02*
X1480099D01*
X1480642Y779024D01*
X1481766Y777076D01*
X1483356Y775486D01*
X1485304Y774362D01*
X1487330Y773819D01*
Y781050D01*
D02*
G37*
G36*
X1517140Y790860D02*
X1500060D01*
Y773780D01*
X1517140D01*
Y790860D01*
D02*
G37*
G36*
X1430940D02*
X1413860D01*
Y773780D01*
X1430940D01*
Y790860D01*
D02*
G37*
G36*
X1494890Y725070D02*
X1487370D01*
Y717550D01*
X1494890D01*
Y725070D01*
D02*
G37*
G36*
X1484830D02*
X1477310D01*
Y717550D01*
X1484830D01*
Y725070D01*
D02*
G37*
G36*
X1457160Y721360D02*
X1448270D01*
Y712470D01*
X1457160D01*
Y721360D01*
D02*
G37*
G36*
X1445730D02*
X1436840D01*
Y712470D01*
X1445730D01*
Y721360D01*
D02*
G37*
G36*
X1512257Y725070D02*
X1509943D01*
X1507707Y724471D01*
X1505703Y723314D01*
X1504066Y721677D01*
X1502909Y719673D01*
X1502310Y717437D01*
Y715123D01*
X1502909Y712887D01*
X1504066Y710883D01*
X1505703Y709246D01*
X1507707Y708089D01*
X1509943Y707490D01*
X1512257D01*
X1514493Y708089D01*
X1516497Y709246D01*
X1518134Y710883D01*
X1519291Y712887D01*
X1519890Y715123D01*
Y717437D01*
X1519291Y719673D01*
X1518134Y721677D01*
X1516497Y723314D01*
X1514493Y724471D01*
X1512257Y725070D01*
D02*
G37*
G36*
X1494890Y715010D02*
X1487370D01*
Y707490D01*
X1494890D01*
Y715010D01*
D02*
G37*
G36*
X1484830D02*
X1477310D01*
Y707490D01*
X1484830D01*
Y715010D01*
D02*
G37*
G36*
X1457160Y709930D02*
X1448270D01*
Y701040D01*
X1457160D01*
Y709930D01*
D02*
G37*
G36*
X1445730D02*
X1436840D01*
Y701040D01*
X1445730D01*
Y709930D01*
D02*
G37*
G36*
X962668Y525385D02*
X962350D01*
Y514590D01*
X973145D01*
Y514908D01*
X972323Y517977D01*
X970734Y520728D01*
X968488Y522974D01*
X965737Y524563D01*
X962668Y525385D01*
D02*
G37*
G36*
X959810D02*
X959492D01*
X956423Y524563D01*
X953672Y522974D01*
X951426Y520728D01*
X949837Y517977D01*
X949015Y514908D01*
Y514590D01*
X959810D01*
Y525385D01*
D02*
G37*
G36*
X973145Y512050D02*
X962350D01*
Y501255D01*
X962668D01*
X965737Y502077D01*
X968488Y503666D01*
X970734Y505912D01*
X972323Y508663D01*
X973145Y511732D01*
Y512050D01*
D02*
G37*
G36*
X959810D02*
X949015D01*
Y511732D01*
X949837Y508663D01*
X951426Y505912D01*
X953672Y503666D01*
X956423Y502077D01*
X959492Y501255D01*
X959810D01*
Y512050D01*
D02*
G37*
G36*
X1010920Y476720D02*
X1002030D01*
Y467830D01*
X1010920D01*
Y476720D01*
D02*
G37*
G36*
X934720D02*
X925830D01*
Y467830D01*
X934720D01*
Y476720D01*
D02*
G37*
G36*
X999490D02*
X990600D01*
Y467830D01*
X999490D01*
Y476720D01*
D02*
G37*
G36*
X923290D02*
X914400D01*
Y467830D01*
X923290D01*
Y476720D01*
D02*
G37*
G36*
X1010920Y465290D02*
X1002030D01*
Y456400D01*
X1010920D01*
Y465290D01*
D02*
G37*
G36*
X999490D02*
X990600D01*
Y456400D01*
X999490D01*
Y465290D01*
D02*
G37*
G36*
X934720D02*
X925830D01*
Y456400D01*
X934720D01*
Y465290D01*
D02*
G37*
G36*
X923290D02*
X914400D01*
Y456400D01*
X923290D01*
Y465290D01*
D02*
G37*
G36*
X1336668Y515305D02*
X1336350D01*
Y504510D01*
X1347145D01*
Y504828D01*
X1346323Y507897D01*
X1344734Y510648D01*
X1342488Y512894D01*
X1339737Y514483D01*
X1336668Y515305D01*
D02*
G37*
G36*
X1333810D02*
X1333492D01*
X1330423Y514483D01*
X1327672Y512894D01*
X1325426Y510648D01*
X1323837Y507897D01*
X1323015Y504828D01*
Y504510D01*
X1333810D01*
Y515305D01*
D02*
G37*
G36*
X1347145Y501970D02*
X1336350D01*
Y491175D01*
X1336668D01*
X1339737Y491997D01*
X1342488Y493586D01*
X1344734Y495832D01*
X1346323Y498583D01*
X1347145Y501652D01*
Y501970D01*
D02*
G37*
G36*
X1333810D02*
X1323015D01*
Y501652D01*
X1323837Y498583D01*
X1325426Y495832D01*
X1327672Y493586D01*
X1330423Y491997D01*
X1333492Y491175D01*
X1333810D01*
Y501970D01*
D02*
G37*
G36*
X1452880Y476720D02*
X1443990D01*
Y467830D01*
X1452880D01*
Y476720D01*
D02*
G37*
G36*
X1351280D02*
X1342390D01*
Y467830D01*
X1351280D01*
Y476720D01*
D02*
G37*
G36*
X1259840D02*
X1250950D01*
Y467830D01*
X1259840D01*
Y476720D01*
D02*
G37*
G36*
X1441450D02*
X1432560D01*
Y467830D01*
X1441450D01*
Y476720D01*
D02*
G37*
G36*
X1339850D02*
X1330960D01*
Y467830D01*
X1339850D01*
Y476720D01*
D02*
G37*
G36*
X1248410D02*
X1239520D01*
Y467830D01*
X1248410D01*
Y476720D01*
D02*
G37*
G36*
X1178560Y475920D02*
X1169670D01*
Y467030D01*
X1178560D01*
Y475920D01*
D02*
G37*
G36*
X1167130D02*
X1158240D01*
Y467030D01*
X1167130D01*
Y475920D01*
D02*
G37*
G36*
X1452880Y465290D02*
X1443990D01*
Y456400D01*
X1452880D01*
Y465290D01*
D02*
G37*
G36*
X1441450D02*
X1432560D01*
Y456400D01*
X1441450D01*
Y465290D01*
D02*
G37*
G36*
X1351280D02*
X1342390D01*
Y456400D01*
X1351280D01*
Y465290D01*
D02*
G37*
G36*
X1339850D02*
X1330960D01*
Y456400D01*
X1339850D01*
Y465290D01*
D02*
G37*
G36*
X1259840D02*
X1250950D01*
Y456400D01*
X1259840D01*
Y465290D01*
D02*
G37*
G36*
X1248410D02*
X1239520D01*
Y456400D01*
X1248410D01*
Y465290D01*
D02*
G37*
G36*
X1178560Y464490D02*
X1169670D01*
Y455600D01*
X1178560D01*
Y464490D01*
D02*
G37*
G36*
X1167130D02*
X1158240D01*
Y455600D01*
X1167130D01*
Y464490D01*
D02*
G37*
G36*
X637548Y525385D02*
X637230D01*
Y514590D01*
X648025D01*
Y514908D01*
X647203Y517977D01*
X645614Y520728D01*
X643368Y522974D01*
X640617Y524563D01*
X637548Y525385D01*
D02*
G37*
G36*
X634690D02*
X634372D01*
X631303Y524563D01*
X628552Y522974D01*
X626306Y520728D01*
X624717Y517977D01*
X623895Y514908D01*
Y514590D01*
X634690D01*
Y525385D01*
D02*
G37*
G36*
X648025Y512050D02*
X637230D01*
Y501255D01*
X637548D01*
X640617Y502077D01*
X643368Y503666D01*
X645614Y505912D01*
X647203Y508663D01*
X648025Y511732D01*
Y512050D01*
D02*
G37*
G36*
X634690D02*
X623895D01*
Y511732D01*
X624717Y508663D01*
X626306Y505912D01*
X628552Y503666D01*
X631303Y502077D01*
X634372Y501255D01*
X634690D01*
Y512050D01*
D02*
G37*
G36*
X695960Y471640D02*
X687070D01*
Y462750D01*
X695960D01*
Y471640D01*
D02*
G37*
G36*
X684530D02*
X675640D01*
Y462750D01*
X684530D01*
Y471640D01*
D02*
G37*
G36*
X695960Y460210D02*
X687070D01*
Y451320D01*
X695960D01*
Y460210D01*
D02*
G37*
G36*
X684530D02*
X675640D01*
Y451320D01*
X684530D01*
Y460210D01*
D02*
G37*
%LPD*%
D15*
X1176319Y817372D02*
X1180891Y812800D01*
X1106678Y825246D02*
X1114552Y817372D01*
X1176319D01*
X1180891Y812800D02*
X1183640D01*
X1124060Y860916D02*
X1126490Y863346D01*
X1106678Y825246D02*
Y853440D01*
X1114154Y860916D02*
X1124060D01*
X1106678Y853440D02*
X1114154Y860916D01*
X1191768Y828294D02*
X1209294Y845820D01*
X1138682Y828294D02*
X1191768D01*
X1135207Y831769D02*
X1138682Y828294D01*
X1135207Y831769D02*
Y832142D01*
X1128133Y839216D02*
X1135207Y832142D01*
X1127760Y839216D02*
X1128133D01*
X1225440Y868680D02*
X1234440D01*
X1209294Y852534D02*
X1225440Y868680D01*
X1209294Y845820D02*
Y852534D01*
X1139071Y894080D02*
X1185440D01*
X1133737Y888746D02*
X1139071Y894080D01*
X1126490Y888746D02*
X1133737D01*
X706882Y844550D02*
X716534Y854202D01*
X641350Y844550D02*
X706882D01*
X716534Y862694D02*
X732680Y878840D01*
X741680D01*
X716534Y854202D02*
Y862694D01*
X643890Y894080D02*
X654050Y904240D01*
X640080Y894080D02*
X643890D01*
X654050Y904240D02*
X692680D01*
X620776Y851916D02*
X637540Y868680D01*
X640080D01*
X620776Y836422D02*
Y851916D01*
Y836422D02*
X634238Y822960D01*
X747160D01*
X285242Y847598D02*
X294640Y838200D01*
X229870Y847598D02*
X285242D01*
X221742Y855726D02*
Y874776D01*
Y855726D02*
X229870Y847598D01*
X235966Y889000D02*
X238760D01*
X221742Y874776D02*
X235966Y889000D01*
X248742Y868093D02*
X248920Y868210D01*
X243840Y864870D02*
X248742Y868093D01*
X243840Y864870D02*
X248920Y868210D01*
X303333D01*
X1196848Y953914D02*
X1208134Y965200D01*
X1227760D01*
X1196848Y944092D02*
Y953914D01*
X1207008Y905202D02*
Y949706D01*
Y905202D02*
X1218130Y894080D01*
X1196848Y944092D02*
X1201750Y939190D01*
Y916452D02*
Y939190D01*
X1201191Y910366D02*
Y915893D01*
X1201750Y908363D02*
X1201750Y908363D01*
X1201191Y910366D02*
X1201750Y909808D01*
Y908363D02*
Y909808D01*
X1201750Y888690D02*
Y908363D01*
X1201191Y915893D02*
X1201750Y916452D01*
X1218130Y894080D02*
X1234440D01*
X1167296Y846836D02*
X1176440Y855980D01*
X1156970Y846836D02*
X1167296D01*
X1157224Y868680D02*
X1185440D01*
X1217513Y882233D02*
X1233587D01*
X1209040Y873760D02*
X1217513Y882233D01*
X1233587D02*
X1234440Y881380D01*
X665480Y863600D02*
X667167Y865287D01*
X691827D02*
X692680Y866140D01*
X667167Y865287D02*
X691827D01*
X676653Y878928D02*
X676741Y878840D01*
X668229Y883920D02*
X673221Y878928D01*
X676653D01*
X665480Y883920D02*
X668229D01*
X676741Y878840D02*
X692680D01*
X1203960Y772160D02*
Y817880D01*
X1218130Y832050D01*
Y847463D01*
X1226647Y855980D01*
X1234440D01*
X1176440D02*
X1185440D01*
X755159Y865361D02*
X757990Y862530D01*
Y798630D02*
Y862530D01*
X741680Y866140D02*
X742459Y865361D01*
X755159D01*
X736600Y777240D02*
X757990Y798630D01*
X1234440Y843280D02*
X1252011D01*
X1257091Y838200D01*
X1259840D01*
X1194440Y881380D02*
X1201750Y888690D01*
X1185440Y881380D02*
X1194440D01*
X1143000Y924560D02*
X1160780Y906780D01*
X1185440D01*
X716638Y915560D02*
Y975360D01*
X741412Y904508D02*
X741680Y904240D01*
X800273Y1028873D02*
X802640Y1031240D01*
X770151Y1028873D02*
X800273D01*
X716638Y975360D02*
X770151Y1028873D01*
X727690Y904508D02*
X741412D01*
X716638Y915560D02*
X727690Y904508D01*
X1036320Y849160D02*
X1037120Y848360D01*
X702533Y894755D02*
X711200Y903422D01*
Y969480D01*
X700240Y980440D02*
X711200Y969480D01*
X716280Y883920D02*
X717660Y885300D01*
X732680Y891540D02*
X741680D01*
X726440Y885300D02*
X732680Y891540D01*
X717660Y885300D02*
X726440D01*
X700473Y891540D02*
X702533Y893600D01*
Y894755D01*
X692680Y891540D02*
X700473D01*
X726440Y838200D02*
Y840949D01*
X733887Y853440D02*
X741680D01*
X731827Y851380D02*
X733887Y853440D01*
X731827Y846336D02*
Y851380D01*
X726440Y840949D02*
X731827Y846336D01*
X736600Y772160D02*
Y777240D01*
X675440Y916940D02*
X692680D01*
X652580Y939800D02*
X675440Y916940D01*
X1163320Y934720D02*
Y939800D01*
Y934720D02*
X1165860Y932180D01*
X1185440D01*
X675640Y950380D02*
X683680Y942340D01*
X675640Y950380D02*
Y955040D01*
X683680Y942340D02*
X692680D01*
X279400Y964250D02*
Y970280D01*
X286540Y957110D02*
X295540D01*
X279400Y964250D02*
X286540Y957110D01*
X304540Y906310D02*
X314160Y915930D01*
X321092Y986572D02*
X370840Y1036320D01*
X314160Y915930D02*
Y1016000D01*
X321092Y933458D02*
Y986572D01*
Y933458D02*
X335540Y919010D01*
X330200Y801370D02*
X360980Y832150D01*
X330200Y797560D02*
Y801370D01*
X360980Y832150D02*
Y873470D01*
X248982Y914400D02*
X253592Y919010D01*
X295540D01*
X269240Y901909D02*
X277539Y893610D01*
X269240Y901909D02*
Y904240D01*
X277539Y893610D02*
X295540D01*
X277330Y880910D02*
X295540D01*
X274320Y883920D02*
X277330Y880910D01*
X325120Y851109D02*
X334911Y860900D01*
X325120Y848360D02*
Y851109D01*
X336971Y868210D02*
X344540D01*
X334911Y866150D02*
X336971Y868210D01*
X334911Y860900D02*
Y866150D01*
X322110Y906310D02*
X344540D01*
X320040Y904240D02*
X322110Y906310D01*
X303333Y868210D02*
X305393Y870270D01*
X328230Y893610D02*
X344540D01*
X305393Y870270D02*
Y870773D01*
X328230Y893610D01*
X353540Y880910D02*
X360980Y873470D01*
X344540Y880910D02*
X353540D01*
X264160Y391160D02*
X330200D01*
X233680Y360680D02*
X264160Y391160D01*
X330200D02*
Y447040D01*
X304800Y365760D02*
X330200Y391160D01*
X259080Y447040D02*
X330200D01*
X233680Y421640D02*
X259080Y447040D01*
X355600D02*
X381000Y472440D01*
X304800Y421640D02*
X330200Y447040D01*
X355600D01*
X381000Y365760D02*
X421640D01*
X381000Y421640D02*
X422440D01*
X521640Y365760D02*
X522440Y366560D01*
Y421640D01*
X452920Y491160D02*
Y544360D01*
Y491160D02*
X522440Y421640D01*
X330600Y508400D02*
X416960D01*
X259480D02*
X330600D01*
X233680Y482600D02*
X259480Y508400D01*
X416960D02*
X452920Y544360D01*
X381000Y472440D02*
X416960Y508400D01*
X304800Y482600D02*
X330600Y508400D01*
X452920Y544360D02*
Y600240D01*
X233680Y538480D02*
X254000Y558800D01*
X325120D01*
X411480D02*
X452920Y600240D01*
X381000Y528320D02*
X411480Y558800D01*
X304800Y538480D02*
X325120Y558800D01*
X411480D01*
X452920Y600240D02*
Y661200D01*
X248920Y609600D02*
X320040D01*
X233680Y594360D02*
X248920Y609600D01*
X401320D02*
X452920Y661200D01*
X381000Y589280D02*
X401320Y609600D01*
X320040D02*
X401320D01*
X304800Y594360D02*
X320040Y609600D01*
X452920Y661200D02*
Y726440D01*
X259080Y670560D02*
X330200D01*
X233680Y645160D02*
X259080Y670560D01*
X406400D02*
X450850Y715010D01*
X381000Y645160D02*
X406400Y670560D01*
X330200D02*
X406400D01*
X304800Y645160D02*
X330200Y670560D01*
X450850Y715010D02*
Y724370D01*
X452920Y726440D01*
X406400D02*
X452920D01*
X330200D02*
X406400D01*
X259080D02*
X330200D01*
X233680Y701040D02*
X259080Y726440D01*
X304800Y701040D02*
X330200Y726440D01*
X381000Y701040D02*
X406400Y726440D01*
X295540Y906310D02*
X304540D01*
X370840Y1036320D02*
X431800D01*
X261420Y949960D02*
X279670Y931710D01*
X295540D01*
X214160Y1049620D02*
X216100Y1051560D01*
X214160Y1016000D02*
Y1049620D01*
X216100Y1051560D02*
Y1082040D01*
X335540Y919010D02*
X344540D01*
D16*
X1185440Y932180D02*
D03*
Y919480D02*
D03*
Y906780D02*
D03*
Y894080D02*
D03*
Y881380D02*
D03*
Y868680D02*
D03*
Y855980D02*
D03*
Y843280D02*
D03*
X1234440Y932180D02*
D03*
Y919480D02*
D03*
Y906780D02*
D03*
Y894080D02*
D03*
Y881380D02*
D03*
Y868680D02*
D03*
Y855980D02*
D03*
Y843280D02*
D03*
X741680Y853440D02*
D03*
Y866140D02*
D03*
Y878840D02*
D03*
Y891540D02*
D03*
Y904240D02*
D03*
Y916940D02*
D03*
Y929640D02*
D03*
Y942340D02*
D03*
X692680Y853440D02*
D03*
Y866140D02*
D03*
Y878840D02*
D03*
Y891540D02*
D03*
Y904240D02*
D03*
Y916940D02*
D03*
Y929640D02*
D03*
Y942340D02*
D03*
X344540Y868210D02*
D03*
Y880910D02*
D03*
Y893610D02*
D03*
Y906310D02*
D03*
Y919010D02*
D03*
Y931710D02*
D03*
Y944410D02*
D03*
Y957110D02*
D03*
X295540Y868210D02*
D03*
Y880910D02*
D03*
Y893610D02*
D03*
Y906310D02*
D03*
Y919010D02*
D03*
Y931710D02*
D03*
Y944410D02*
D03*
Y957110D02*
D03*
D17*
X1435800Y883920D02*
D03*
X1320800D02*
D03*
X931260Y889000D02*
D03*
X816260D02*
D03*
X535020Y894080D02*
D03*
X420020D02*
D03*
D24*
X1508600Y782320D02*
D03*
X1229520Y1026160D02*
D03*
X1315560Y1076960D02*
D03*
X1422400Y782320D02*
D03*
X1000760Y802640D02*
D03*
X919800Y777240D02*
D03*
X843280Y1076960D02*
D03*
X604360Y797560D02*
D03*
X518320Y787400D02*
D03*
X731680Y1041400D02*
D03*
X497680Y1071880D02*
D03*
X365920Y1046480D02*
D03*
D25*
X1488600Y782320D02*
D03*
X1249520Y1026160D02*
D03*
X1295560Y1076960D02*
D03*
X1442400Y782320D02*
D03*
X980760Y802640D02*
D03*
X939800Y777240D02*
D03*
X823280Y1076960D02*
D03*
X584360Y797560D02*
D03*
X538320Y787400D02*
D03*
X751680Y1041400D02*
D03*
X477680Y1071880D02*
D03*
X385920Y1046480D02*
D03*
D26*
X1076960Y848360D02*
D03*
X1087920Y1209040D02*
D03*
X1309840Y1173480D02*
D03*
X1336040Y1125420D02*
D03*
X1209840Y1209040D02*
D03*
X1574800Y833920D02*
D03*
X1493520Y466560D02*
D03*
X1558760Y1046480D02*
D03*
Y1010920D02*
D03*
X1488440Y1197280D02*
D03*
X1534160D02*
D03*
X1076960Y471640D02*
D03*
X1227760Y965200D02*
D03*
X746760Y461480D02*
D03*
X314160Y1016000D02*
D03*
X700240Y980440D02*
D03*
X1163320Y993340D02*
D03*
X1442720Y1176220D02*
D03*
X1227020Y1082040D02*
D03*
X609600Y1043740D02*
D03*
X1137920Y804980D02*
D03*
X1127760Y993340D02*
D03*
X1511100Y716280D02*
D03*
X1143000Y924560D02*
D03*
X1264920Y812800D02*
D03*
X1003100Y746760D02*
D03*
X650240Y777640D02*
D03*
X248920Y810460D02*
D03*
X241100Y1051560D02*
D03*
Y1082040D02*
D03*
X261420Y949960D02*
D03*
X650240Y1043740D02*
D03*
X751840Y1092200D02*
D03*
X652580Y939800D02*
D03*
X772160Y822960D02*
D03*
X611940Y726440D02*
D03*
X381400Y1102360D02*
D03*
X350920Y838200D02*
D03*
X995680Y849160D02*
D03*
X1036320Y949160D02*
D03*
X1503680Y833920D02*
D03*
X1539240Y933920D02*
D03*
D27*
X1076960Y748360D02*
D03*
X1336040Y1150420D02*
D03*
X1574800Y933920D02*
D03*
X1493520Y366560D02*
D03*
X1488440Y1097280D02*
D03*
X1534160D02*
D03*
X1076960Y371640D02*
D03*
X746760Y361480D02*
D03*
X1163320Y1018340D02*
D03*
X1442720Y1201220D02*
D03*
X609600Y1018740D02*
D03*
X1137920Y779980D02*
D03*
X1127760Y1018340D02*
D03*
X650240Y802640D02*
D03*
X248920Y835460D02*
D03*
X650240Y1018740D02*
D03*
X995680Y949160D02*
D03*
X1036320Y849160D02*
D03*
X1503680Y933920D02*
D03*
X1539240Y833920D02*
D03*
D28*
X1187920Y1209040D02*
D03*
X1209840Y1173480D02*
D03*
X1309840Y1209040D02*
D03*
X1458760Y1046480D02*
D03*
Y1010920D02*
D03*
X1127760Y965200D02*
D03*
X214160Y1016000D02*
D03*
X600240Y980440D02*
D03*
X1252020Y1082040D02*
D03*
X1486100Y716280D02*
D03*
X1118000Y924560D02*
D03*
X1239920Y812800D02*
D03*
X978100Y746760D02*
D03*
X216100Y1051560D02*
D03*
Y1082040D02*
D03*
X236420Y949960D02*
D03*
X776840Y1092200D02*
D03*
X627580Y939800D02*
D03*
X747160Y822960D02*
D03*
X586940Y726440D02*
D03*
X406400Y1102360D02*
D03*
X375920Y838200D02*
D03*
D29*
X522440Y421640D02*
D03*
X521640Y365760D02*
D03*
X1447000Y711200D02*
D03*
X933920Y721360D02*
D03*
X552920Y726440D02*
D03*
D30*
X422440Y421640D02*
D03*
X421640Y365760D02*
D03*
X1442720Y366560D02*
D03*
X1341120D02*
D03*
X1249680D02*
D03*
X1168400Y365760D02*
D03*
X1000760Y366560D02*
D03*
X1347000Y711200D02*
D03*
X924560Y366560D02*
D03*
X685800Y361480D02*
D03*
X833920Y721360D02*
D03*
X452920Y726440D02*
D03*
D35*
X1442720Y466560D02*
D03*
X1341120D02*
D03*
X1249680D02*
D03*
X1168400Y465760D02*
D03*
X1000760Y466560D02*
D03*
X924560D02*
D03*
X685800Y461480D02*
D03*
D41*
X1612900Y1244600D02*
D03*
X215900Y311150D02*
D03*
X1136650Y666750D02*
D03*
X768350D02*
D03*
X215900Y1206500D02*
D03*
X1612900Y336550D02*
D03*
D42*
X695960Y533320D02*
D03*
X635960Y513320D02*
D03*
X575960Y533320D02*
D03*
X695960Y655320D02*
D03*
X1395080Y645240D02*
D03*
X1275080Y523240D02*
D03*
X1335080Y503240D02*
D03*
X1395080Y523240D02*
D03*
X1021080Y655320D02*
D03*
X901080Y533320D02*
D03*
X961080Y513320D02*
D03*
X1021080Y533320D02*
D03*
D43*
X1295400Y772160D02*
D03*
X1320800D02*
D03*
X1344930Y773430D02*
D03*
X822960Y772160D02*
D03*
X848360D02*
D03*
X872490Y773430D02*
D03*
X416560Y797560D02*
D03*
X441960D02*
D03*
X466090Y798830D02*
D03*
X381000Y797560D02*
D03*
X330200D02*
D03*
X355600D02*
D03*
X762000Y772160D02*
D03*
X736600D02*
D03*
X787400D02*
D03*
X1254760D02*
D03*
X1203960D02*
D03*
X1229360D02*
D03*
D44*
X1126490Y888746D02*
D03*
Y863346D02*
D03*
X1127760Y839216D02*
D03*
X640080Y894080D02*
D03*
Y868680D02*
D03*
X641350Y844550D02*
D03*
X238760Y914400D02*
D03*
Y889000D02*
D03*
X240030Y864870D02*
D03*
X431800Y1010920D02*
D03*
Y1036320D02*
D03*
Y985520D02*
D03*
X802640Y1005840D02*
D03*
Y1031240D02*
D03*
Y980440D02*
D03*
X762000Y523240D02*
D03*
Y574040D02*
D03*
Y548640D02*
D03*
X1310640Y975360D02*
D03*
Y1026160D02*
D03*
Y1000760D02*
D03*
X1076960Y556260D02*
D03*
Y581660D02*
D03*
Y530860D02*
D03*
X1442720Y558800D02*
D03*
Y584200D02*
D03*
Y533400D02*
D03*
D45*
X355600Y421640D02*
D03*
Y365760D02*
D03*
X1440180Y1074420D02*
D03*
Y1099820D02*
D03*
Y1125220D02*
D03*
Y1150620D02*
D03*
X1363980Y1074420D02*
D03*
Y1099820D02*
D03*
Y1125220D02*
D03*
X1574800Y769620D02*
D03*
Y706120D02*
D03*
Y652780D02*
D03*
Y472440D02*
D03*
Y533400D02*
D03*
Y589280D02*
D03*
Y421640D02*
D03*
X1351280Y335280D02*
D03*
X355600Y701040D02*
D03*
Y645160D02*
D03*
Y589280D02*
D03*
Y528320D02*
D03*
Y472440D02*
D03*
X279400Y421640D02*
D03*
Y365760D02*
D03*
X208280Y594360D02*
D03*
X279400D02*
D03*
Y538480D02*
D03*
X208280Y421640D02*
D03*
X1584960Y1173480D02*
D03*
X1549400Y330200D02*
D03*
X782320Y335280D02*
D03*
X1264920D02*
D03*
X1172718Y333756D02*
D03*
X1452880Y335280D02*
D03*
X1036320D02*
D03*
X929640D02*
D03*
X716280D02*
D03*
X279400Y701040D02*
D03*
X208280D02*
D03*
X279400Y645160D02*
D03*
Y482600D02*
D03*
X208280Y360680D02*
D03*
Y482600D02*
D03*
Y645160D02*
D03*
Y538480D02*
D03*
X1584960Y1041400D02*
D03*
D46*
X381000Y421640D02*
D03*
Y365760D02*
D03*
X1363980Y1150620D02*
D03*
X1549400Y769620D02*
D03*
Y706120D02*
D03*
Y652780D02*
D03*
Y472440D02*
D03*
Y533400D02*
D03*
Y589280D02*
D03*
Y421640D02*
D03*
X1325880Y335280D02*
D03*
X381000Y701040D02*
D03*
Y645160D02*
D03*
Y589280D02*
D03*
Y528320D02*
D03*
Y472440D02*
D03*
X304800Y421640D02*
D03*
Y365760D02*
D03*
X233680Y594360D02*
D03*
X304800D02*
D03*
Y538480D02*
D03*
X233680Y421640D02*
D03*
X807720Y335280D02*
D03*
X1239520D02*
D03*
X1147318Y333756D02*
D03*
X1427480Y335280D02*
D03*
X1010920D02*
D03*
X904240D02*
D03*
X690880D02*
D03*
X304800Y701040D02*
D03*
X233680D02*
D03*
X304800Y645160D02*
D03*
Y482600D02*
D03*
X233680Y360680D02*
D03*
Y482600D02*
D03*
Y645160D02*
D03*
Y538480D02*
D03*
D47*
X833120Y1178560D02*
D03*
X894080Y1173480D02*
D03*
D48*
X782320Y1178560D02*
D03*
X944880Y1173480D02*
D03*
D49*
X1584960Y1148080D02*
D03*
X1549400Y355600D02*
D03*
X1584960Y1066800D02*
D03*
D50*
X722630Y1179576D02*
D03*
X697230D02*
D03*
X1270000Y654050D02*
D03*
X1327150D02*
D03*
X1270000Y615950D02*
D03*
X1327150D02*
D03*
X1270000Y571500D02*
D03*
X1327150D02*
D03*
X635000Y577850D02*
D03*
X577850D02*
D03*
X635000Y622300D02*
D03*
X577850D02*
D03*
X635000Y660400D02*
D03*
X577850D02*
D03*
X952500Y603250D02*
D03*
X901700D02*
D03*
Y641350D02*
D03*
X952500D02*
D03*
X953008Y675132D02*
D03*
X902462Y672846D02*
D03*
X1183640Y812800D02*
D03*
X1207008Y949706D02*
D03*
X1156970Y846836D02*
D03*
X1157224Y868680D02*
D03*
X1209040Y873760D02*
D03*
X665480Y863600D02*
D03*
Y883920D02*
D03*
X1259840Y838200D02*
D03*
X716280Y883920D02*
D03*
X726440Y838200D02*
D03*
X1163320Y939800D02*
D03*
X675640Y955040D02*
D03*
X279400Y970280D02*
D03*
X269240Y883920D02*
D03*
Y904240D02*
D03*
X325120Y848360D02*
D03*
X294640Y838200D02*
D03*
X320040Y904240D02*
D03*
M02*
