G04*
G04 #@! TF.GenerationSoftware,Altium Limited,Altium Designer,23.1.1 (15)*
G04*
G04 Layer_Color=128*
%FSLAX44Y44*%
%MOMM*%
G71*
G04*
G04 #@! TF.SameCoordinates,B2619DF1-9EDC-4D65-B863-11D422F83FB1*
G04*
G04*
G04 #@! TF.FilePolarity,Positive*
G04*
G01*
G75*
%ADD54C,0.1270*%
D54*
X1600200Y1244600D02*
X1625600D01*
X1612900Y1231900D02*
Y1257300D01*
X203200Y311150D02*
X228600D01*
X215900Y298450D02*
Y323850D01*
X1123950Y666750D02*
X1149350D01*
X1136650Y654050D02*
Y679450D01*
X755650Y666750D02*
X781050D01*
X768350Y654050D02*
Y679450D01*
X203200Y1206500D02*
X228600D01*
X215900Y1193800D02*
Y1219200D01*
X1600200Y336550D02*
X1625600D01*
X1612900Y323850D02*
Y349250D01*
X690245Y533320D02*
X701675D01*
X695960Y527605D02*
Y539035D01*
X630245Y513320D02*
X641675D01*
X635960Y507605D02*
Y519035D01*
X570245Y533320D02*
X581675D01*
X575960Y527605D02*
Y539035D01*
X690245Y655320D02*
X701675D01*
X695960Y649605D02*
Y661035D01*
X1290320Y772160D02*
X1300480D01*
X1295400Y767080D02*
Y777240D01*
X1315720Y772160D02*
X1325880D01*
X1320800Y767080D02*
Y777240D01*
X1339850Y773430D02*
X1350010D01*
X1344930Y768350D02*
Y778510D01*
X1121410Y888746D02*
X1131570D01*
X1126490Y883666D02*
Y893826D01*
X1121410Y863346D02*
X1131570D01*
X1126490Y858266D02*
Y868426D01*
X1122680Y839216D02*
X1132840D01*
X1127760Y834136D02*
Y844296D01*
X817880Y772160D02*
X828040D01*
X822960Y767080D02*
Y777240D01*
X843280Y772160D02*
X853440D01*
X848360Y767080D02*
Y777240D01*
X867410Y773430D02*
X877570D01*
X872490Y768350D02*
Y778510D01*
X635000Y894080D02*
X645160D01*
X640080Y889000D02*
Y899160D01*
X635000Y868680D02*
X645160D01*
X640080Y863600D02*
Y873760D01*
X636270Y844550D02*
X646430D01*
X641350Y839470D02*
Y849630D01*
X233680Y914400D02*
X243840D01*
X238760Y909320D02*
Y919480D01*
X233680Y889000D02*
X243840D01*
X238760Y883920D02*
Y894080D01*
X234950Y864870D02*
X245110D01*
X240030Y859790D02*
Y869950D01*
X411480Y797560D02*
X421640D01*
X416560Y792480D02*
Y802640D01*
X436880Y797560D02*
X447040D01*
X441960Y792480D02*
Y802640D01*
X461010Y798830D02*
X471170D01*
X466090Y793750D02*
Y803910D01*
X426720Y1010920D02*
X436880D01*
X431800Y1005840D02*
Y1016000D01*
X426720Y1036320D02*
X436880D01*
X431800Y1031240D02*
Y1041400D01*
X426720Y985520D02*
X436880D01*
X431800Y980440D02*
Y990600D01*
X375920Y797560D02*
X386080D01*
X381000Y792480D02*
Y802640D01*
X325120Y797560D02*
X335280D01*
X330200Y792480D02*
Y802640D01*
X350520Y797560D02*
X360680D01*
X355600Y792480D02*
Y802640D01*
X797560Y1005840D02*
X807720D01*
X802640Y1000760D02*
Y1010920D01*
X797560Y1031240D02*
X807720D01*
X802640Y1026160D02*
Y1036320D01*
X797560Y980440D02*
X807720D01*
X802640Y975360D02*
Y985520D01*
X756920Y523240D02*
X767080D01*
X762000Y518160D02*
Y528320D01*
X756920Y574040D02*
X767080D01*
X762000Y568960D02*
Y579120D01*
X756920Y548640D02*
X767080D01*
X762000Y543560D02*
Y553720D01*
X756920Y772160D02*
X767080D01*
X762000Y767080D02*
Y777240D01*
X731520Y772160D02*
X741680D01*
X736600Y767080D02*
Y777240D01*
X782320Y772160D02*
X792480D01*
X787400Y767080D02*
Y777240D01*
X1305560Y975360D02*
X1315720D01*
X1310640Y970280D02*
Y980440D01*
X1305560Y1026160D02*
X1315720D01*
X1310640Y1021080D02*
Y1031240D01*
X1305560Y1000760D02*
X1315720D01*
X1310640Y995680D02*
Y1005840D01*
X1071880Y556260D02*
X1082040D01*
X1076960Y551180D02*
Y561340D01*
X1071880Y581660D02*
X1082040D01*
X1076960Y576580D02*
Y586740D01*
X1071880Y530860D02*
X1082040D01*
X1076960Y525780D02*
Y535940D01*
X1249680Y772160D02*
X1259840D01*
X1254760Y767080D02*
Y777240D01*
X1198880Y772160D02*
X1209040D01*
X1203960Y767080D02*
Y777240D01*
X1224280Y772160D02*
X1234440D01*
X1229360Y767080D02*
Y777240D01*
X1437640Y558800D02*
X1447800D01*
X1442720Y553720D02*
Y563880D01*
X1437640Y584200D02*
X1447800D01*
X1442720Y579120D02*
Y589280D01*
X1437640Y533400D02*
X1447800D01*
X1442720Y528320D02*
Y538480D01*
X1505100Y782320D02*
X1512100D01*
X1508600Y778820D02*
Y785820D01*
X1485100Y782320D02*
X1492100D01*
X1488600Y778820D02*
Y785820D01*
X1073210Y848360D02*
X1080710D01*
X1076960Y844610D02*
Y852110D01*
X1073210Y748360D02*
X1080710D01*
X1076960Y744610D02*
Y752110D01*
X1184170Y1209040D02*
X1191670D01*
X1187920Y1205290D02*
Y1212790D01*
X1084170Y1209040D02*
X1091670D01*
X1087920Y1205290D02*
Y1212790D01*
X1206090Y1173480D02*
X1213590D01*
X1209840Y1169730D02*
Y1177230D01*
X1306090Y1173480D02*
X1313590D01*
X1309840Y1169730D02*
Y1177230D01*
X517360Y421640D02*
X527520D01*
X522440Y416560D02*
Y426720D01*
X417360Y421640D02*
X427520D01*
X422440Y416560D02*
Y426720D01*
X516560Y365760D02*
X526720D01*
X521640Y360680D02*
Y370840D01*
X416560Y365760D02*
X426720D01*
X421640Y360680D02*
Y370840D01*
X350520Y421640D02*
X360680D01*
X355600Y416560D02*
Y426720D01*
X375920Y421640D02*
X386080D01*
X381000Y416560D02*
Y426720D01*
X350520Y365760D02*
X360680D01*
X355600Y360680D02*
Y370840D01*
X375920Y365760D02*
X386080D01*
X381000Y360680D02*
Y370840D01*
X1332290Y1125420D02*
X1339790D01*
X1336040Y1121670D02*
Y1129170D01*
X1332290Y1150420D02*
X1339790D01*
X1336040Y1146670D02*
Y1154170D01*
X1435680Y1074420D02*
X1444680D01*
X1440180Y1069920D02*
Y1078920D01*
X1435680Y1099820D02*
X1444680D01*
X1440180Y1095320D02*
Y1104320D01*
X1435680Y1125220D02*
X1444680D01*
X1440180Y1120720D02*
Y1129720D01*
X1435680Y1150620D02*
X1444680D01*
X1440180Y1146120D02*
Y1155120D01*
X1359480Y1074420D02*
X1368480D01*
X1363980Y1069920D02*
Y1078920D01*
X1359480Y1099820D02*
X1368480D01*
X1363980Y1095320D02*
Y1104320D01*
X1359480Y1125220D02*
X1368480D01*
X1363980Y1120720D02*
Y1129720D01*
X1359480Y1150620D02*
X1368480D01*
X1363980Y1146120D02*
Y1155120D01*
X1206090Y1209040D02*
X1213590D01*
X1209840Y1205290D02*
Y1212790D01*
X1306090Y1209040D02*
X1313590D01*
X1309840Y1205290D02*
Y1212790D01*
X1544320Y769620D02*
X1554480D01*
X1549400Y764540D02*
Y774700D01*
X1569720Y769620D02*
X1579880D01*
X1574800Y764540D02*
Y774700D01*
X1544320Y706120D02*
X1554480D01*
X1549400Y701040D02*
Y711200D01*
X1569720Y706120D02*
X1579880D01*
X1574800Y701040D02*
Y711200D01*
X1544320Y652780D02*
X1554480D01*
X1549400Y647700D02*
Y657860D01*
X1569720Y652780D02*
X1579880D01*
X1574800Y647700D02*
Y657860D01*
X1544320Y472440D02*
X1554480D01*
X1549400Y467360D02*
Y477520D01*
X1569720Y472440D02*
X1579880D01*
X1574800Y467360D02*
Y477520D01*
X1544320Y533400D02*
X1554480D01*
X1549400Y528320D02*
Y538480D01*
X1569720Y533400D02*
X1579880D01*
X1574800Y528320D02*
Y538480D01*
X1544320Y589280D02*
X1554480D01*
X1549400Y584200D02*
Y594360D01*
X1569720Y589280D02*
X1579880D01*
X1574800Y584200D02*
Y594360D01*
X1544320Y421640D02*
X1554480D01*
X1549400Y416560D02*
Y426720D01*
X1569720Y421640D02*
X1579880D01*
X1574800Y416560D02*
Y426720D01*
X1571050Y833920D02*
X1578550D01*
X1574800Y830170D02*
Y837670D01*
X1571050Y933920D02*
X1578550D01*
X1574800Y930170D02*
Y937670D01*
X1437640Y366560D02*
X1447800D01*
X1442720Y361480D02*
Y371640D01*
X1437640Y466560D02*
X1447800D01*
X1442720Y461480D02*
Y471640D01*
X1489770Y466560D02*
X1497270D01*
X1493520Y462810D02*
Y470310D01*
X1489770Y366560D02*
X1497270D01*
X1493520Y362810D02*
Y370310D01*
X1336040Y366560D02*
X1346200D01*
X1341120Y361480D02*
Y371640D01*
X1336040Y466560D02*
X1346200D01*
X1341120Y461480D02*
Y471640D01*
X1244600Y366560D02*
X1254760D01*
X1249680Y361480D02*
Y371640D01*
X1244600Y466560D02*
X1254760D01*
X1249680Y461480D02*
Y471640D01*
X1320800Y335280D02*
X1330960D01*
X1325880Y330200D02*
Y340360D01*
X1346200Y335280D02*
X1356360D01*
X1351280Y330200D02*
Y340360D01*
X1555010Y1046480D02*
X1562510D01*
X1558760Y1042730D02*
Y1050230D01*
X1455010Y1046480D02*
X1462510D01*
X1458760Y1042730D02*
Y1050230D01*
X1555010Y1010920D02*
X1562510D01*
X1558760Y1007170D02*
Y1014670D01*
X1455010Y1010920D02*
X1462510D01*
X1458760Y1007170D02*
Y1014670D01*
X375920Y701040D02*
X386080D01*
X381000Y695960D02*
Y706120D01*
X350520Y701040D02*
X360680D01*
X355600Y695960D02*
Y706120D01*
X375920Y645160D02*
X386080D01*
X381000Y640080D02*
Y650240D01*
X350520Y645160D02*
X360680D01*
X355600Y640080D02*
Y650240D01*
X375920Y589280D02*
X386080D01*
X381000Y584200D02*
Y594360D01*
X350520Y589280D02*
X360680D01*
X355600Y584200D02*
Y594360D01*
X375920Y528320D02*
X386080D01*
X381000Y523240D02*
Y533400D01*
X350520Y528320D02*
X360680D01*
X355600Y523240D02*
Y533400D01*
X375920Y472440D02*
X386080D01*
X381000Y467360D02*
Y477520D01*
X350520Y472440D02*
X360680D01*
X355600Y467360D02*
Y477520D01*
X299720Y421640D02*
X309880D01*
X304800Y416560D02*
Y426720D01*
X274320Y421640D02*
X284480D01*
X279400Y416560D02*
Y426720D01*
X299720Y365760D02*
X309880D01*
X304800Y360680D02*
Y370840D01*
X274320Y365760D02*
X284480D01*
X279400Y360680D02*
Y370840D01*
X228600Y594360D02*
X238760D01*
X233680Y589280D02*
Y599440D01*
X203200Y594360D02*
X213360D01*
X208280Y589280D02*
Y599440D01*
X299720Y594360D02*
X309880D01*
X304800Y589280D02*
Y599440D01*
X274320Y594360D02*
X284480D01*
X279400Y589280D02*
Y599440D01*
X825500Y1178560D02*
X840740D01*
X833120Y1170940D02*
Y1186180D01*
X775970Y1178560D02*
X788670D01*
X782320Y1172210D02*
Y1184910D01*
X1484690Y1197280D02*
X1492190D01*
X1488440Y1193530D02*
Y1201030D01*
X1484690Y1097280D02*
X1492190D01*
X1488440Y1093530D02*
Y1101030D01*
X1530410Y1197280D02*
X1537910D01*
X1534160Y1193530D02*
Y1201030D01*
X1530410Y1097280D02*
X1537910D01*
X1534160Y1093530D02*
Y1101030D01*
X1073210Y471640D02*
X1080710D01*
X1076960Y467890D02*
Y475390D01*
X1073210Y371640D02*
X1080710D01*
X1076960Y367890D02*
Y375390D01*
X1224010Y965200D02*
X1231510D01*
X1227760Y961450D02*
Y968950D01*
X1124010Y965200D02*
X1131510D01*
X1127760Y961450D02*
Y968950D01*
X743010Y461480D02*
X750510D01*
X746760Y457730D02*
Y465230D01*
X743010Y361480D02*
X750510D01*
X746760Y357730D02*
Y365230D01*
X310410Y1016000D02*
X317910D01*
X314160Y1012250D02*
Y1019750D01*
X210410Y1016000D02*
X217910D01*
X214160Y1012250D02*
Y1019750D01*
X696490Y980440D02*
X703990D01*
X700240Y976690D02*
Y984190D01*
X596490Y980440D02*
X603990D01*
X600240Y976690D02*
Y984190D01*
X299720Y538480D02*
X309880D01*
X304800Y533400D02*
Y543560D01*
X274320Y538480D02*
X284480D01*
X279400Y533400D02*
Y543560D01*
X228600Y421640D02*
X238760D01*
X233680Y416560D02*
Y426720D01*
X203200Y421640D02*
X213360D01*
X208280Y416560D02*
Y426720D01*
X1579880Y1148080D02*
X1590040D01*
X1584960Y1143000D02*
Y1153160D01*
X1579880Y1173480D02*
X1590040D01*
X1584960Y1168400D02*
Y1178560D01*
X1544320Y355600D02*
X1554480D01*
X1549400Y350520D02*
Y360680D01*
X1544320Y330200D02*
X1554480D01*
X1549400Y325120D02*
Y335280D01*
X802640D02*
X812800D01*
X807720Y330200D02*
Y340360D01*
X777240Y335280D02*
X787400D01*
X782320Y330200D02*
Y340360D01*
X886460Y1173480D02*
X901700D01*
X894080Y1165860D02*
Y1181100D01*
X938530Y1173480D02*
X951230D01*
X944880Y1167130D02*
Y1179830D01*
X1234440Y335280D02*
X1244600D01*
X1239520Y330200D02*
Y340360D01*
X1259840Y335280D02*
X1270000D01*
X1264920Y330200D02*
Y340360D01*
X1142238Y333756D02*
X1152398D01*
X1147318Y328676D02*
Y338836D01*
X1167638Y333756D02*
X1177798D01*
X1172718Y328676D02*
Y338836D01*
X1422400Y335280D02*
X1432560D01*
X1427480Y330200D02*
Y340360D01*
X1447800Y335280D02*
X1457960D01*
X1452880Y330200D02*
Y340360D01*
X1005840Y335280D02*
X1016000D01*
X1010920Y330200D02*
Y340360D01*
X1031240Y335280D02*
X1041400D01*
X1036320Y330200D02*
Y340360D01*
X899160Y335280D02*
X909320D01*
X904240Y330200D02*
Y340360D01*
X924560Y335280D02*
X934720D01*
X929640Y330200D02*
Y340360D01*
X685800Y335280D02*
X695960D01*
X690880Y330200D02*
Y340360D01*
X711200Y335280D02*
X721360D01*
X716280Y330200D02*
Y340360D01*
X299720Y701040D02*
X309880D01*
X304800Y695960D02*
Y706120D01*
X274320Y701040D02*
X284480D01*
X279400Y695960D02*
Y706120D01*
X228600Y701040D02*
X238760D01*
X233680Y695960D02*
Y706120D01*
X203200Y701040D02*
X213360D01*
X208280Y695960D02*
Y706120D01*
X299720Y645160D02*
X309880D01*
X304800Y640080D02*
Y650240D01*
X274320Y645160D02*
X284480D01*
X279400Y640080D02*
Y650240D01*
X299720Y482600D02*
X309880D01*
X304800Y477520D02*
Y487680D01*
X274320Y482600D02*
X284480D01*
X279400Y477520D02*
Y487680D01*
X228600Y360680D02*
X238760D01*
X233680Y355600D02*
Y365760D01*
X203200Y360680D02*
X213360D01*
X208280Y355600D02*
Y365760D01*
X228600Y482600D02*
X238760D01*
X233680Y477520D02*
Y487680D01*
X203200Y482600D02*
X213360D01*
X208280Y477520D02*
Y487680D01*
X228600Y645160D02*
X238760D01*
X233680Y640080D02*
Y650240D01*
X203200Y645160D02*
X213360D01*
X208280Y640080D02*
Y650240D01*
X228600Y538480D02*
X238760D01*
X233680Y533400D02*
Y543560D01*
X203200Y538480D02*
X213360D01*
X208280Y533400D02*
Y543560D01*
X1579880Y1066800D02*
X1590040D01*
X1584960Y1061720D02*
Y1071880D01*
X1579880Y1041400D02*
X1590040D01*
X1584960Y1036320D02*
Y1046480D01*
X1389365Y645240D02*
X1400795D01*
X1395080Y639525D02*
Y650955D01*
X1269365Y523240D02*
X1280795D01*
X1275080Y517525D02*
Y528955D01*
X1329365Y503240D02*
X1340795D01*
X1335080Y497525D02*
Y508955D01*
X1389365Y523240D02*
X1400795D01*
X1395080Y517525D02*
Y528955D01*
X1015365Y655320D02*
X1026795D01*
X1021080Y649605D02*
Y661035D01*
X895365Y533320D02*
X906795D01*
X901080Y527605D02*
Y539035D01*
X955365Y513320D02*
X966795D01*
X961080Y507605D02*
Y519035D01*
X1015365Y533320D02*
X1026795D01*
X1021080Y527605D02*
Y539035D01*
X1163320Y365760D02*
X1173480D01*
X1168400Y360680D02*
Y370840D01*
X1163320Y465760D02*
X1173480D01*
X1168400Y460680D02*
Y470840D01*
X995680Y366560D02*
X1005840D01*
X1000760Y361480D02*
Y371640D01*
X995680Y466560D02*
X1005840D01*
X1000760Y461480D02*
Y471640D01*
X1341920Y711200D02*
X1352080D01*
X1347000Y706120D02*
Y716280D01*
X1441920Y711200D02*
X1452080D01*
X1447000Y706120D02*
Y716280D01*
X919480Y366560D02*
X929640D01*
X924560Y361480D02*
Y371640D01*
X919480Y466560D02*
X929640D01*
X924560Y461480D02*
Y471640D01*
X680720Y361480D02*
X690880D01*
X685800Y356400D02*
Y366560D01*
X680720Y461480D02*
X690880D01*
X685800Y456400D02*
Y466560D01*
X828840Y721360D02*
X839000D01*
X833920Y716280D02*
Y726440D01*
X928840Y721360D02*
X939000D01*
X933920Y716280D02*
Y726440D01*
X447840D02*
X458000D01*
X452920Y721360D02*
Y731520D01*
X547840Y726440D02*
X558000D01*
X552920Y721360D02*
Y731520D01*
X1159570Y993340D02*
X1167070D01*
X1163320Y989590D02*
Y997090D01*
X1159570Y1018340D02*
X1167070D01*
X1163320Y1014590D02*
Y1022090D01*
X1438970Y1176220D02*
X1446470D01*
X1442720Y1172470D02*
Y1179970D01*
X1438970Y1201220D02*
X1446470D01*
X1442720Y1197470D02*
Y1204970D01*
X717550Y1179576D02*
X727710D01*
X722630Y1174496D02*
Y1184656D01*
X692150Y1179576D02*
X702310D01*
X697230Y1174496D02*
Y1184656D01*
X1246020Y1026160D02*
X1253020D01*
X1249520Y1022660D02*
Y1029660D01*
X1226020Y1026160D02*
X1233020D01*
X1229520Y1022660D02*
Y1029660D01*
X1292060Y1076960D02*
X1299060D01*
X1295560Y1073460D02*
Y1080460D01*
X1312060Y1076960D02*
X1319060D01*
X1315560Y1073460D02*
Y1080460D01*
X1223270Y1082040D02*
X1230770D01*
X1227020Y1078290D02*
Y1085790D01*
X1248270Y1082040D02*
X1255770D01*
X1252020Y1078290D02*
Y1085790D01*
X605850Y1043740D02*
X613350D01*
X609600Y1039990D02*
Y1047490D01*
X605850Y1018740D02*
X613350D01*
X609600Y1014990D02*
Y1022490D01*
X1134170Y804980D02*
X1141670D01*
X1137920Y801230D02*
Y808730D01*
X1134170Y779980D02*
X1141670D01*
X1137920Y776230D02*
Y783730D01*
X1124010Y993340D02*
X1131510D01*
X1127760Y989590D02*
Y997090D01*
X1124010Y1018340D02*
X1131510D01*
X1127760Y1014590D02*
Y1022090D01*
X1438900Y782320D02*
X1445900D01*
X1442400Y778820D02*
Y785820D01*
X1418900Y782320D02*
X1425900D01*
X1422400Y778820D02*
Y785820D01*
X1507350Y716280D02*
X1514850D01*
X1511100Y712530D02*
Y720030D01*
X1482350Y716280D02*
X1489850D01*
X1486100Y712530D02*
Y720030D01*
X1139250Y924560D02*
X1146750D01*
X1143000Y920810D02*
Y928310D01*
X1114250Y924560D02*
X1121750D01*
X1118000Y920810D02*
Y928310D01*
X977260Y802640D02*
X984260D01*
X980760Y799140D02*
Y806140D01*
X997260Y802640D02*
X1004260D01*
X1000760Y799140D02*
Y806140D01*
X936300Y777240D02*
X943300D01*
X939800Y773740D02*
Y780740D01*
X916300Y777240D02*
X923300D01*
X919800Y773740D02*
Y780740D01*
X1261170Y812800D02*
X1268670D01*
X1264920Y809050D02*
Y816550D01*
X1236170Y812800D02*
X1243670D01*
X1239920Y809050D02*
Y816550D01*
X999350Y746760D02*
X1006850D01*
X1003100Y743010D02*
Y750510D01*
X974350Y746760D02*
X981850D01*
X978100Y743010D02*
Y750510D01*
X646490Y777640D02*
X653990D01*
X650240Y773890D02*
Y781390D01*
X646490Y802640D02*
X653990D01*
X650240Y798890D02*
Y806390D01*
X819780Y1076960D02*
X826780D01*
X823280Y1073460D02*
Y1080460D01*
X839780Y1076960D02*
X846780D01*
X843280Y1073460D02*
Y1080460D01*
X245170Y810460D02*
X252670D01*
X248920Y806710D02*
Y814210D01*
X245170Y835460D02*
X252670D01*
X248920Y831710D02*
Y839210D01*
X237350Y1051560D02*
X244850D01*
X241100Y1047810D02*
Y1055310D01*
X212350Y1051560D02*
X219850D01*
X216100Y1047810D02*
Y1055310D01*
X237350Y1082040D02*
X244850D01*
X241100Y1078290D02*
Y1085790D01*
X212350Y1082040D02*
X219850D01*
X216100Y1078290D02*
Y1085790D01*
X580860Y797560D02*
X587860D01*
X584360Y794060D02*
Y801060D01*
X600860Y797560D02*
X607860D01*
X604360Y794060D02*
Y801060D01*
X257670Y949960D02*
X265170D01*
X261420Y946210D02*
Y953710D01*
X232670Y949960D02*
X240170D01*
X236420Y946210D02*
Y953710D01*
X646490Y1043740D02*
X653990D01*
X650240Y1039990D02*
Y1047490D01*
X646490Y1018740D02*
X653990D01*
X650240Y1014990D02*
Y1022490D01*
X534820Y787400D02*
X541820D01*
X538320Y783900D02*
Y790900D01*
X514820Y787400D02*
X521820D01*
X518320Y783900D02*
Y790900D01*
X748090Y1092200D02*
X755590D01*
X751840Y1088450D02*
Y1095950D01*
X773090Y1092200D02*
X780590D01*
X776840Y1088450D02*
Y1095950D01*
X648830Y939800D02*
X656330D01*
X652580Y936050D02*
Y943550D01*
X623830Y939800D02*
X631330D01*
X627580Y936050D02*
Y943550D01*
X748180Y1041400D02*
X755180D01*
X751680Y1037900D02*
Y1044900D01*
X728180Y1041400D02*
X735180D01*
X731680Y1037900D02*
Y1044900D01*
X768410Y822960D02*
X775910D01*
X772160Y819210D02*
Y826710D01*
X743410Y822960D02*
X750910D01*
X747160Y819210D02*
Y826710D01*
X608190Y726440D02*
X615690D01*
X611940Y722690D02*
Y730190D01*
X583190Y726440D02*
X590690D01*
X586940Y722690D02*
Y730190D01*
X474180Y1071880D02*
X481180D01*
X477680Y1068380D02*
Y1075380D01*
X494180Y1071880D02*
X501180D01*
X497680Y1068380D02*
Y1075380D01*
X382420Y1046480D02*
X389420D01*
X385920Y1042980D02*
Y1049980D01*
X362420Y1046480D02*
X369420D01*
X365920Y1042980D02*
Y1049980D01*
X377650Y1102360D02*
X385150D01*
X381400Y1098610D02*
Y1106110D01*
X402650Y1102360D02*
X410150D01*
X406400Y1098610D02*
Y1106110D01*
X347170Y838200D02*
X354670D01*
X350920Y834450D02*
Y841950D01*
X372170Y838200D02*
X379670D01*
X375920Y834450D02*
Y841950D01*
X991930Y849160D02*
X999430D01*
X995680Y845410D02*
Y852910D01*
X991930Y949160D02*
X999430D01*
X995680Y945410D02*
Y952910D01*
X1032570Y949160D02*
X1040070D01*
X1036320Y945410D02*
Y952910D01*
X1032570Y849160D02*
X1040070D01*
X1036320Y845410D02*
Y852910D01*
X1499930Y833920D02*
X1507430D01*
X1503680Y830170D02*
Y837670D01*
X1499930Y933920D02*
X1507430D01*
X1503680Y930170D02*
Y937670D01*
X1535490Y933920D02*
X1542990D01*
X1539240Y930170D02*
Y937670D01*
X1535490Y833920D02*
X1542990D01*
X1539240Y830170D02*
Y837670D01*
X1266444Y654050D02*
X1273556D01*
X1270000Y650494D02*
Y657606D01*
X1323594Y654050D02*
X1330706D01*
X1327150Y650494D02*
Y657606D01*
X1266444Y615950D02*
X1273556D01*
X1270000Y612394D02*
Y619506D01*
X1323594Y615950D02*
X1330706D01*
X1327150Y612394D02*
Y619506D01*
X1266444Y571500D02*
X1273556D01*
X1270000Y567944D02*
Y575056D01*
X1323594Y571500D02*
X1330706D01*
X1327150Y567944D02*
Y575056D01*
X631444Y577850D02*
X638556D01*
X635000Y574294D02*
Y581406D01*
X574294Y577850D02*
X581406D01*
X577850Y574294D02*
Y581406D01*
X631444Y622300D02*
X638556D01*
X635000Y618744D02*
Y625856D01*
X574294Y622300D02*
X581406D01*
X577850Y618744D02*
Y625856D01*
X631444Y660400D02*
X638556D01*
X635000Y656844D02*
Y663956D01*
X574294Y660400D02*
X581406D01*
X577850Y656844D02*
Y663956D01*
X948944Y603250D02*
X956056D01*
X952500Y599694D02*
Y606806D01*
X898144Y603250D02*
X905256D01*
X901700Y599694D02*
Y606806D01*
X898144Y641350D02*
X905256D01*
X901700Y637794D02*
Y644906D01*
X948944Y641350D02*
X956056D01*
X952500Y637794D02*
Y644906D01*
X949452Y675132D02*
X956564D01*
X953008Y671576D02*
Y678688D01*
X898906Y672846D02*
X906018D01*
X902462Y669290D02*
Y676402D01*
X1180084Y812800D02*
X1187196D01*
X1183640Y809244D02*
Y816356D01*
X1203452Y949706D02*
X1210564D01*
X1207008Y946150D02*
Y953262D01*
X1153414Y846836D02*
X1160526D01*
X1156970Y843280D02*
Y850392D01*
X1153668Y868680D02*
X1160780D01*
X1157224Y865124D02*
Y872236D01*
X1205484Y873760D02*
X1212596D01*
X1209040Y870204D02*
Y877316D01*
X661924Y863600D02*
X669036D01*
X665480Y860044D02*
Y867156D01*
X661924Y883920D02*
X669036D01*
X665480Y880364D02*
Y887476D01*
X1256284Y838200D02*
X1263396D01*
X1259840Y834644D02*
Y841756D01*
X712724Y883920D02*
X719836D01*
X716280Y880364D02*
Y887476D01*
X722884Y838200D02*
X729996D01*
X726440Y834644D02*
Y841756D01*
X1159764Y939800D02*
X1166876D01*
X1163320Y936244D02*
Y943356D01*
X672084Y955040D02*
X679196D01*
X675640Y951484D02*
Y958596D01*
X275844Y970280D02*
X282956D01*
X279400Y966724D02*
Y973836D01*
X265684Y883920D02*
X272796D01*
X269240Y880364D02*
Y887476D01*
X265684Y904240D02*
X272796D01*
X269240Y900684D02*
Y907796D01*
X321564Y848360D02*
X328676D01*
X325120Y844804D02*
Y851916D01*
X291084Y838200D02*
X298196D01*
X294640Y834644D02*
Y841756D01*
X316484Y904240D02*
X323596D01*
X320040Y900684D02*
Y907796D01*
M02*
