G04*
G04 #@! TF.GenerationSoftware,Altium Limited,Altium Designer,23.1.1 (15)*
G04*
G04 Layer_Physical_Order=4*
G04 Layer_Color=16711680*
%FSLAX44Y44*%
%MOMM*%
G71*
G04*
G04 #@! TF.SameCoordinates,B2619DF1-9EDC-4D65-B863-11D422F83FB1*
G04*
G04*
G04 #@! TF.FilePolarity,Positive*
G04*
G01*
G75*
%ADD15C,0.2540*%
%ADD24R,1.2000X1.2000*%
%ADD25C,1.2000*%
%ADD26C,1.2500*%
%ADD27R,1.2500X1.2500*%
%ADD28R,1.2500X1.2500*%
%ADD29R,1.5240X1.5240*%
%ADD30C,1.5240*%
%ADD35R,1.5240X1.5240*%
%ADD41C,5.0800*%
%ADD42C,1.9050*%
%ADD43O,1.5240X2.2860*%
%ADD44O,2.2860X1.5240*%
%ADD45C,1.5000*%
%ADD46R,1.5000X1.5000*%
%ADD47C,2.0320*%
%ADD48R,2.0320X2.0320*%
%ADD49R,1.5000X1.5000*%
%ADD50C,1.2700*%
%ADD51C,1.0160*%
%ADD52C,0.5080*%
D15*
X1107948Y855218D02*
X1123950Y839216D01*
X1127760D01*
X1107948Y855218D02*
Y870204D01*
X1120250Y882506D01*
X1126117Y888746D02*
X1126490D01*
X1120250Y882879D02*
X1126117Y888746D01*
X1120250Y882506D02*
Y882879D01*
X1127760Y836096D02*
X1137920Y825936D01*
X1127760Y836096D02*
Y839216D01*
X1137920Y804980D02*
Y825936D01*
X636524Y844550D02*
X641350D01*
X620776Y860298D02*
X636524Y844550D01*
X620776Y874776D02*
X633840Y887840D01*
X620776Y860298D02*
Y874776D01*
X639707Y894080D02*
X640080D01*
X633840Y888213D02*
X639707Y894080D01*
X633840Y887840D02*
Y888213D01*
X650240Y802640D02*
Y836033D01*
X641723Y844550D02*
X650240Y836033D01*
X641350Y844550D02*
X641723D01*
X236220Y864870D02*
X240030D01*
X223520Y877570D02*
X236220Y864870D01*
X223520Y877570D02*
Y902462D01*
X235458Y914400D01*
X238760D01*
X240403Y864870D02*
X248920Y856353D01*
X240030Y864870D02*
X240403D01*
X248920Y835460D02*
Y856353D01*
X1498346Y743966D02*
X1539240Y784860D01*
X1156970Y785622D02*
X1183042Y759550D01*
X1539240Y784860D02*
Y833920D01*
X1183042Y759550D02*
X1183042D01*
X1198626Y743966D02*
X1498346D01*
X1183042Y759550D02*
Y759550D01*
X1183042Y759550D02*
X1183042Y759550D01*
X1183042D02*
X1198626Y743966D01*
X1156970Y785622D02*
Y846836D01*
X1183640Y812800D02*
X1239920D01*
X1036320Y815086D02*
Y849160D01*
X987806Y766572D02*
X1036320Y815086D01*
X925830Y737870D02*
X954532Y766572D01*
X987806D01*
X742442Y737870D02*
X925830D01*
X716469Y763843D02*
Y763843D01*
Y763843D02*
X742442Y737870D01*
X665480Y814832D02*
Y863600D01*
Y814832D02*
X716469Y763843D01*
X269240Y808482D02*
Y883920D01*
Y808482D02*
X311150Y766572D01*
X517492D01*
X538320Y787400D01*
X1207008Y968248D02*
X1264920Y1026160D01*
X1207008Y949706D02*
Y968248D01*
X1209040Y843680D02*
X1239920Y812800D01*
X1209040Y843680D02*
Y873760D01*
X1336140Y1125320D02*
X1363880D01*
X1363980Y1125220D01*
X1336040Y1125420D02*
X1336140Y1125320D01*
X1290320Y1188720D02*
X1402080D01*
X1440180Y1150620D01*
X1188720Y1087120D02*
X1290320Y1188720D01*
X1163320Y939800D02*
X1188720Y965200D01*
Y1087120D01*
X1309840Y1151620D02*
Y1173480D01*
Y1151620D02*
X1336040Y1125420D01*
X1187920Y1209040D02*
X1209840D01*
Y1173480D02*
Y1209040D01*
X1441450Y1174950D02*
X1442720Y1176220D01*
X1441450Y1151890D02*
Y1174950D01*
X1440180Y1150620D02*
X1441450Y1151890D01*
X1557960Y1173480D02*
X1584960D01*
X1534160Y1197280D02*
X1557960Y1173480D01*
X1537640Y1148080D02*
X1584960D01*
X1488440Y1197280D02*
X1537640Y1148080D01*
X1518920Y1112520D02*
X1534160Y1097280D01*
X1477426Y1112520D02*
X1518920D01*
X1464726Y1099820D02*
X1477426Y1112520D01*
X1440180Y1099820D02*
X1464726D01*
X1465580Y1074420D02*
X1488440Y1097280D01*
X1440180Y1074420D02*
X1465580D01*
X1427480Y1066800D02*
X1447800Y1046480D01*
X1458760D01*
X1427480Y1066800D02*
Y1112520D01*
X1440180Y1125220D01*
X1363980Y1150620D02*
X1411995Y1102605D01*
Y1057685D02*
Y1102605D01*
Y1057685D02*
X1458760Y1010920D01*
X1560666Y1048386D02*
X1566546D01*
X1584960Y1066800D01*
X1558760Y1046480D02*
X1560666Y1048386D01*
X1558760Y1010920D02*
Y1013060D01*
X1584960Y1039260D02*
Y1041400D01*
X1558760Y1013060D02*
X1584960Y1039260D01*
X1503680Y934720D02*
X1504480Y933920D01*
X1539240D01*
X1503680D02*
Y934720D01*
X1539240Y833920D02*
X1574800D01*
X344452Y833120D02*
X349532Y838200D01*
X296128D02*
X301208Y833120D01*
X344452D01*
X349532Y838200D02*
X350920D01*
X1127760Y993340D02*
X1163320D01*
X1127760Y965200D02*
Y993340D01*
X1114952Y960120D02*
X1125112Y949960D01*
X1153160D02*
X1163320Y939800D01*
X1125112Y949960D02*
X1153160D01*
X294640Y955040D02*
X677128D01*
X682208Y960120D02*
X1114952D01*
X677128Y955040D02*
X682208Y960120D01*
X1264920Y1026160D02*
X1310640D01*
X609600Y1018740D02*
X650240D01*
X600240Y980440D02*
Y1009380D01*
X609600Y1018740D01*
X1037120Y848360D02*
X1076960D01*
X1036320Y849160D02*
X1037120Y848360D01*
X995680Y949160D02*
X1036320D01*
X716280Y852568D02*
Y883920D01*
X711200Y847488D02*
X716280Y852568D01*
X721360Y822960D02*
X747160D01*
X711200Y833120D02*
Y847488D01*
Y833120D02*
X721360Y822960D01*
X294640Y726440D02*
X452920D01*
X203200Y817880D02*
X294640Y726440D01*
X203200Y817880D02*
Y960120D01*
X213360Y970280D01*
X279400D01*
X294640Y955040D01*
X320040Y863600D02*
Y904240D01*
X294640Y838200D02*
X320040Y863600D01*
X1443093Y584200D02*
X1448960Y578333D01*
Y577960D02*
Y578333D01*
X1442720Y584200D02*
X1443093D01*
X1448960Y577960D02*
X1513840Y513080D01*
Y365760D02*
Y513080D01*
Y365760D02*
X1549400Y330200D01*
X782320Y335280D02*
Y553720D01*
X762000Y574040D02*
X762373D01*
X768240Y568173D01*
Y567800D02*
Y568173D01*
Y567800D02*
X782320Y553720D01*
X807720Y335280D02*
Y477520D01*
X911860Y581660D01*
X1076960D01*
D24*
X1508600Y782320D02*
D03*
X1229520Y1026160D02*
D03*
X1315560Y1076960D02*
D03*
X1422400Y782320D02*
D03*
X1000760Y802640D02*
D03*
X919800Y777240D02*
D03*
X843280Y1076960D02*
D03*
X604360Y797560D02*
D03*
X518320Y787400D02*
D03*
X731680Y1041400D02*
D03*
X497680Y1071880D02*
D03*
X365920Y1046480D02*
D03*
D25*
X1488600Y782320D02*
D03*
X1249520Y1026160D02*
D03*
X1295560Y1076960D02*
D03*
X1442400Y782320D02*
D03*
X980760Y802640D02*
D03*
X939800Y777240D02*
D03*
X823280Y1076960D02*
D03*
X584360Y797560D02*
D03*
X538320Y787400D02*
D03*
X751680Y1041400D02*
D03*
X477680Y1071880D02*
D03*
X385920Y1046480D02*
D03*
D26*
X1076960Y848360D02*
D03*
X1087920Y1209040D02*
D03*
X1309840Y1173480D02*
D03*
X1336040Y1125420D02*
D03*
X1209840Y1209040D02*
D03*
X1574800Y833920D02*
D03*
X1493520Y466560D02*
D03*
X1558760Y1046480D02*
D03*
Y1010920D02*
D03*
X1488440Y1197280D02*
D03*
X1534160D02*
D03*
X1076960Y471640D02*
D03*
X1227760Y965200D02*
D03*
X746760Y461480D02*
D03*
X314160Y1016000D02*
D03*
X700240Y980440D02*
D03*
X1163320Y993340D02*
D03*
X1442720Y1176220D02*
D03*
X1227020Y1082040D02*
D03*
X609600Y1043740D02*
D03*
X1137920Y804980D02*
D03*
X1127760Y993340D02*
D03*
X1511100Y716280D02*
D03*
X1143000Y924560D02*
D03*
X1264920Y812800D02*
D03*
X1003100Y746760D02*
D03*
X650240Y777640D02*
D03*
X248920Y810460D02*
D03*
X241100Y1051560D02*
D03*
Y1082040D02*
D03*
X261420Y949960D02*
D03*
X650240Y1043740D02*
D03*
X751840Y1092200D02*
D03*
X652580Y939800D02*
D03*
X772160Y822960D02*
D03*
X611940Y726440D02*
D03*
X381400Y1102360D02*
D03*
X350920Y838200D02*
D03*
X995680Y849160D02*
D03*
X1036320Y949160D02*
D03*
X1503680Y833920D02*
D03*
X1539240Y933920D02*
D03*
D27*
X1076960Y748360D02*
D03*
X1336040Y1150420D02*
D03*
X1574800Y933920D02*
D03*
X1493520Y366560D02*
D03*
X1488440Y1097280D02*
D03*
X1534160D02*
D03*
X1076960Y371640D02*
D03*
X746760Y361480D02*
D03*
X1163320Y1018340D02*
D03*
X1442720Y1201220D02*
D03*
X609600Y1018740D02*
D03*
X1137920Y779980D02*
D03*
X1127760Y1018340D02*
D03*
X650240Y802640D02*
D03*
X248920Y835460D02*
D03*
X650240Y1018740D02*
D03*
X995680Y949160D02*
D03*
X1036320Y849160D02*
D03*
X1503680Y933920D02*
D03*
X1539240Y833920D02*
D03*
D28*
X1187920Y1209040D02*
D03*
X1209840Y1173480D02*
D03*
X1309840Y1209040D02*
D03*
X1458760Y1046480D02*
D03*
Y1010920D02*
D03*
X1127760Y965200D02*
D03*
X214160Y1016000D02*
D03*
X600240Y980440D02*
D03*
X1252020Y1082040D02*
D03*
X1486100Y716280D02*
D03*
X1118000Y924560D02*
D03*
X1239920Y812800D02*
D03*
X978100Y746760D02*
D03*
X216100Y1051560D02*
D03*
Y1082040D02*
D03*
X236420Y949960D02*
D03*
X776840Y1092200D02*
D03*
X627580Y939800D02*
D03*
X747160Y822960D02*
D03*
X586940Y726440D02*
D03*
X406400Y1102360D02*
D03*
X375920Y838200D02*
D03*
D29*
X522440Y421640D02*
D03*
X521640Y365760D02*
D03*
X1447000Y711200D02*
D03*
X933920Y721360D02*
D03*
X552920Y726440D02*
D03*
D30*
X422440Y421640D02*
D03*
X421640Y365760D02*
D03*
X1442720Y366560D02*
D03*
X1341120D02*
D03*
X1249680D02*
D03*
X1168400Y365760D02*
D03*
X1000760Y366560D02*
D03*
X1347000Y711200D02*
D03*
X924560Y366560D02*
D03*
X685800Y361480D02*
D03*
X833920Y721360D02*
D03*
X452920Y726440D02*
D03*
D35*
X1442720Y466560D02*
D03*
X1341120D02*
D03*
X1249680D02*
D03*
X1168400Y465760D02*
D03*
X1000760Y466560D02*
D03*
X924560D02*
D03*
X685800Y461480D02*
D03*
D41*
X1612900Y1244600D02*
D03*
X215900Y311150D02*
D03*
X1136650Y666750D02*
D03*
X768350D02*
D03*
X215900Y1206500D02*
D03*
X1612900Y336550D02*
D03*
D42*
X695960Y533320D02*
D03*
X635960Y513320D02*
D03*
X575960Y533320D02*
D03*
X695960Y655320D02*
D03*
X1395080Y645240D02*
D03*
X1275080Y523240D02*
D03*
X1335080Y503240D02*
D03*
X1395080Y523240D02*
D03*
X1021080Y655320D02*
D03*
X901080Y533320D02*
D03*
X961080Y513320D02*
D03*
X1021080Y533320D02*
D03*
D43*
X1295400Y772160D02*
D03*
X1320800D02*
D03*
X1344930Y773430D02*
D03*
X822960Y772160D02*
D03*
X848360D02*
D03*
X872490Y773430D02*
D03*
X416560Y797560D02*
D03*
X441960D02*
D03*
X466090Y798830D02*
D03*
X381000Y797560D02*
D03*
X330200D02*
D03*
X355600D02*
D03*
X762000Y772160D02*
D03*
X736600D02*
D03*
X787400D02*
D03*
X1254760D02*
D03*
X1203960D02*
D03*
X1229360D02*
D03*
D44*
X1126490Y888746D02*
D03*
Y863346D02*
D03*
X1127760Y839216D02*
D03*
X640080Y894080D02*
D03*
Y868680D02*
D03*
X641350Y844550D02*
D03*
X238760Y914400D02*
D03*
Y889000D02*
D03*
X240030Y864870D02*
D03*
X431800Y1010920D02*
D03*
Y1036320D02*
D03*
Y985520D02*
D03*
X802640Y1005840D02*
D03*
Y1031240D02*
D03*
Y980440D02*
D03*
X762000Y523240D02*
D03*
Y574040D02*
D03*
Y548640D02*
D03*
X1310640Y975360D02*
D03*
Y1026160D02*
D03*
Y1000760D02*
D03*
X1076960Y556260D02*
D03*
Y581660D02*
D03*
Y530860D02*
D03*
X1442720Y558800D02*
D03*
Y584200D02*
D03*
Y533400D02*
D03*
D45*
X355600Y421640D02*
D03*
Y365760D02*
D03*
X1440180Y1074420D02*
D03*
Y1099820D02*
D03*
Y1125220D02*
D03*
Y1150620D02*
D03*
X1363980Y1074420D02*
D03*
Y1099820D02*
D03*
Y1125220D02*
D03*
X1574800Y769620D02*
D03*
Y706120D02*
D03*
Y652780D02*
D03*
Y472440D02*
D03*
Y533400D02*
D03*
Y589280D02*
D03*
Y421640D02*
D03*
X1351280Y335280D02*
D03*
X355600Y701040D02*
D03*
Y645160D02*
D03*
Y589280D02*
D03*
Y528320D02*
D03*
Y472440D02*
D03*
X279400Y421640D02*
D03*
Y365760D02*
D03*
X208280Y594360D02*
D03*
X279400D02*
D03*
Y538480D02*
D03*
X208280Y421640D02*
D03*
X1584960Y1173480D02*
D03*
X1549400Y330200D02*
D03*
X782320Y335280D02*
D03*
X1264920D02*
D03*
X1172718Y333756D02*
D03*
X1452880Y335280D02*
D03*
X1036320D02*
D03*
X929640D02*
D03*
X716280D02*
D03*
X279400Y701040D02*
D03*
X208280D02*
D03*
X279400Y645160D02*
D03*
Y482600D02*
D03*
X208280Y360680D02*
D03*
Y482600D02*
D03*
Y645160D02*
D03*
Y538480D02*
D03*
X1584960Y1041400D02*
D03*
D46*
X381000Y421640D02*
D03*
Y365760D02*
D03*
X1363980Y1150620D02*
D03*
X1549400Y769620D02*
D03*
Y706120D02*
D03*
Y652780D02*
D03*
Y472440D02*
D03*
Y533400D02*
D03*
Y589280D02*
D03*
Y421640D02*
D03*
X1325880Y335280D02*
D03*
X381000Y701040D02*
D03*
Y645160D02*
D03*
Y589280D02*
D03*
Y528320D02*
D03*
Y472440D02*
D03*
X304800Y421640D02*
D03*
Y365760D02*
D03*
X233680Y594360D02*
D03*
X304800D02*
D03*
Y538480D02*
D03*
X233680Y421640D02*
D03*
X807720Y335280D02*
D03*
X1239520D02*
D03*
X1147318Y333756D02*
D03*
X1427480Y335280D02*
D03*
X1010920D02*
D03*
X904240D02*
D03*
X690880D02*
D03*
X304800Y701040D02*
D03*
X233680D02*
D03*
X304800Y645160D02*
D03*
Y482600D02*
D03*
X233680Y360680D02*
D03*
Y482600D02*
D03*
Y645160D02*
D03*
Y538480D02*
D03*
D47*
X833120Y1178560D02*
D03*
X894080Y1173480D02*
D03*
D48*
X782320Y1178560D02*
D03*
X944880Y1173480D02*
D03*
D49*
X1584960Y1148080D02*
D03*
X1549400Y355600D02*
D03*
X1584960Y1066800D02*
D03*
D50*
X722630Y1179576D02*
D03*
X697230D02*
D03*
X1270000Y654050D02*
D03*
X1327150D02*
D03*
X1270000Y615950D02*
D03*
X1327150D02*
D03*
X1270000Y571500D02*
D03*
X1327150D02*
D03*
X635000Y577850D02*
D03*
X577850D02*
D03*
X635000Y622300D02*
D03*
X577850D02*
D03*
X635000Y660400D02*
D03*
X577850D02*
D03*
X952500Y603250D02*
D03*
X901700D02*
D03*
Y641350D02*
D03*
X952500D02*
D03*
X953008Y675132D02*
D03*
X902462Y672846D02*
D03*
X1183640Y812800D02*
D03*
X1207008Y949706D02*
D03*
X1156970Y846836D02*
D03*
X1157224Y868680D02*
D03*
X1209040Y873760D02*
D03*
X665480Y863600D02*
D03*
Y883920D02*
D03*
X1259840Y838200D02*
D03*
X716280Y883920D02*
D03*
X726440Y838200D02*
D03*
X1163320Y939800D02*
D03*
X675640Y955040D02*
D03*
X279400Y970280D02*
D03*
X269240Y883920D02*
D03*
Y904240D02*
D03*
X325120Y848360D02*
D03*
X294640Y838200D02*
D03*
X320040Y904240D02*
D03*
D51*
X685800Y361480D02*
X686772Y360508D01*
Y339388D02*
Y360508D01*
Y339388D02*
X690880Y335280D01*
X1429900Y352365D02*
X1442720Y365185D01*
X1429900Y337700D02*
Y352365D01*
X1427480Y335280D02*
X1429900Y337700D01*
X1442720Y365185D02*
Y366560D01*
X1325880Y335280D02*
X1328300Y337700D01*
X1341120Y365185D02*
Y366560D01*
X1328300Y352365D02*
X1341120Y365185D01*
X1328300Y337700D02*
Y352365D01*
X1248708Y365588D02*
X1249680Y366560D01*
X1248708Y344468D02*
Y365588D01*
X1239520Y335280D02*
X1248708Y344468D01*
X1150500Y347860D02*
X1168400Y365760D01*
X1150500Y337700D02*
Y347860D01*
X1148080Y335280D02*
X1150500Y337700D01*
X1000760Y366560D02*
X1001732Y365588D01*
Y344468D02*
Y365588D01*
Y344468D02*
X1010920Y335280D01*
X904240D02*
X924035Y355075D01*
Y366035D01*
X924560Y366560D01*
D52*
X812800Y1209040D02*
X1087920D01*
X782320Y1178560D02*
X812800Y1209040D01*
X751920Y533320D02*
X762000Y523240D01*
X695960Y533320D02*
X751920D01*
X1076960Y471640D02*
Y530860D01*
X1075730Y532090D02*
X1076960Y530860D01*
X1021080Y533320D02*
X1022310Y532090D01*
X1075730D01*
X1395080Y523240D02*
X1405240Y533400D01*
X1442720D01*
X1448960Y527160D02*
Y527533D01*
Y527160D02*
X1493520Y482600D01*
Y466560D02*
Y482600D01*
X1442720Y533400D02*
X1443093D01*
X1448960Y527533D01*
X746760Y461480D02*
X762000Y476720D01*
Y523240D01*
M02*
