G04*
G04 #@! TF.GenerationSoftware,Altium Limited,Altium Designer,23.1.1 (15)*
G04*
G04 Layer_Color=8421504*
%FSLAX44Y44*%
%MOMM*%
G71*
G04*
G04 #@! TF.SameCoordinates,B2619DF1-9EDC-4D65-B863-11D422F83FB1*
G04*
G04*
G04 #@! TF.FilePolarity,Positive*
G04*
G01*
G75*
%ADD16O,2.5000X0.7000*%
%ADD17R,3.5000X6.0000*%
D16*
X1185440Y932180D02*
D03*
Y919480D02*
D03*
Y906780D02*
D03*
Y894080D02*
D03*
Y881380D02*
D03*
Y868680D02*
D03*
Y855980D02*
D03*
Y843280D02*
D03*
X1234440Y932180D02*
D03*
Y919480D02*
D03*
Y906780D02*
D03*
Y894080D02*
D03*
Y881380D02*
D03*
Y868680D02*
D03*
Y855980D02*
D03*
Y843280D02*
D03*
X741680Y853440D02*
D03*
Y866140D02*
D03*
Y878840D02*
D03*
Y891540D02*
D03*
Y904240D02*
D03*
Y916940D02*
D03*
Y929640D02*
D03*
Y942340D02*
D03*
X692680Y853440D02*
D03*
Y866140D02*
D03*
Y878840D02*
D03*
Y891540D02*
D03*
Y904240D02*
D03*
Y916940D02*
D03*
Y929640D02*
D03*
Y942340D02*
D03*
X344540Y868210D02*
D03*
Y880910D02*
D03*
Y893610D02*
D03*
Y906310D02*
D03*
Y919010D02*
D03*
Y931710D02*
D03*
Y944410D02*
D03*
Y957110D02*
D03*
X295540Y868210D02*
D03*
Y880910D02*
D03*
Y893610D02*
D03*
Y906310D02*
D03*
Y919010D02*
D03*
Y931710D02*
D03*
Y944410D02*
D03*
Y957110D02*
D03*
D17*
X1435800Y883920D02*
D03*
X1320800D02*
D03*
X931260Y889000D02*
D03*
X816260D02*
D03*
X535020Y894080D02*
D03*
X420020D02*
D03*
M02*
